solid OpenSCAD_Model
  facet normal 0 0 -1
    outer loop
      vertex -3.718571231752866 3.130091330464102 -4.35
      vertex -3.720499602996719 3.1734127879870244 -4.35
      vertex -3.639135653011659 2.7376425795158057 -4.35
    endloop
  endfacet
  facet normal 0 0 -1
    outer loop
      vertex -3.639135653011659 2.7376425795158057 -4.35
      vertex -3.720499602996719 3.1734127879870244 -4.35
      vertex -3.727997531677691 3.6177173322815372 -4.35
    endloop
  endfacet
  facet normal 0 0 -1
    outer loop
      vertex -3.628230543302952 2.6945341841487442 -4.35
      vertex -3.639135653011659 2.7376425795158057 -4.35
      vertex -3.681650123168964 4.076766889215111 -4.35
    endloop
  endfacet
  facet normal 0 0 -1
    outer loop
      vertex -3.7355373949733233 3.567045191398267 -4.35
      vertex -3.727997531677691 3.6177173322815372 -4.35
      vertex -3.720499602996719 3.1734127879870244 -4.35
    endloop
  endfacet
  facet normal 0 0 -1
    outer loop
      vertex -3.681650123168964 4.076766889215111 -4.35
      vertex -3.639135653011659 2.7376425795158057 -4.35
      vertex -3.727997531677691 3.6177173322815372 -4.35
    endloop
  endfacet
  facet normal 0 0 -1
    outer loop
      vertex -3.628230543302952 2.6945341841487442 -4.35
      vertex -3.4328133855084246 4.97880570729165 -4.35
      vertex -3.4907557956325386 2.3104655840763786 -4.35
    endloop
  endfacet
  facet normal 0 0 -1
    outer loop
      vertex -3.4328133855084246 4.97880570729165 -4.35
      vertex -3.4756301008497346 2.2681573954602583 -4.35
      vertex -3.4907557956325386 2.3104655840763786 -4.35
    endloop
  endfacet
  facet normal 0 0 -1
    outer loop
      vertex -3.2656619794690895 1.8589923343000416 -4.35
      vertex -3.2864915417019995 1.899624550595058 -4.35
      vertex -3.4123864570942914 5.024115875395451 -4.35
    endloop
  endfacet
  facet normal 0 0 -1
    outer loop
      vertex -3.4756301008497346 2.2681573954602583 -4.35
      vertex -3.4123864570942914 5.024115875395451 -4.35
      vertex -3.2864915417019995 1.899624550595058 -4.35
    endloop
  endfacet
  facet normal 0 0 -1
    outer loop
      vertex -3.2656619794690895 1.8589923343000416 -4.35
      vertex -3.2143902754205205 5.416297223320636 -4.35
      vertex -3.031266871670757 1.5131508243610057 -4.35
    endloop
  endfacet
  facet normal 0 0 -1
    outer loop
      vertex -3.031266871670757 1.5131508243610057 -4.35
      vertex -2.017892069144428 6.572267879607527 -4.35
      vertex -3.0054221594228983 1.4749720755444977 -4.35
    endloop
  endfacet
  facet normal 0 0 -1
    outer loop
      vertex -1.6737924329872715 6.7384427150271815 -4.35
      vertex -2.732151984466705 1.1589713522468774 -4.35
      vertex -3.0054221594228983 1.4749720755444977 -4.35
    endloop
  endfacet
  facet normal 0 0 -1
    outer loop
      vertex -1.6737924329872715 6.7384427150271815 -4.35
      vertex -2.703377359492666 1.1239734329359226 -4.35
      vertex -2.732151984466705 1.1589713522468774 -4.35
    endloop
  endfacet
  facet normal 0 0 -1
    outer loop
      vertex -1.6737924329872715 6.7384427150271815 -4.35
      vertex -2.397610588789845 0.8449808441179633 -4.35
      vertex -2.703377359492666 1.1239734329359226 -4.35
    endloop
  endfacet
  facet normal 0 0 -1
    outer loop
      vertex -1.6737924329872715 6.7384427150271815 -4.35
      vertex -2.366008350661996 0.8140450078519165 -4.35
      vertex -2.397610588789845 0.8449808441179633 -4.35
    endloop
  endfacet
  facet normal 0 0 -1
    outer loop
      vertex -1.6737924329872715 6.7384427150271815 -4.35
      vertex -2.0341213974670995 0.5791668071343354 -4.35
      vertex -2.366008350661996 0.8140450078519165 -4.35
    endloop
  endfacet
  facet normal 0 0 -1
    outer loop
      vertex -1.6737924329872715 6.7384427150271815 -4.35
      vertex -1.9937136059852028 0.5532022346537745 -4.35
      vertex -2.0341213974670995 0.5791668071343354 -4.35
    endloop
  endfacet
  facet normal 0 0 -1
    outer loop
      vertex -1.9937136059852028 0.5532022346537745 -4.35
      vertex -1.6737924329872715 6.7384427150271815 -4.35
      vertex -1.6420944121435352 0.3696138562570752 -4.35
    endloop
  endfacet
  facet normal 0 0 -1
    outer loop
      vertex -1.603027844960651 0.34918944598124513 -4.35
      vertex -1.6420944121435352 0.3696138562570752 -4.35
      vertex -1.637458861385482 6.7522429786944915 -4.35
    endloop
  endfacet
  facet normal 0 0 -1
    outer loop
      vertex -1.603027844960651 0.34918944598124513 -4.35
      vertex 0.130445361333244 7.007582955996216 -4.35
      vertex -1.2380537429823466 0.22396210439044326 -4.35
    endloop
  endfacet
  facet normal 0 0 -1
    outer loop
      vertex 0.130445361333244 7.007582955996216 -4.35
      vertex -1.1973421877076655 0.21000072276511147 -4.35
      vertex -1.2380537429823466 0.22396210439044326 -4.35
    endloop
  endfacet
  facet normal 0 0 -1
    outer loop
      vertex 0.130445361333244 7.007582955996216 -4.35
      vertex -0.8252541023314366 0.1502513618697711 -4.35
      vertex -1.1973421877076655 0.21000072276511147 -4.35
    endloop
  endfacet
  facet normal 0 0 -1
    outer loop
      vertex 0.130445361333244 7.007582955996216 -4.35
      vertex -0.7860222560962743 0.1434951542708615 -4.35
      vertex -0.8252541023314366 0.1502513618697711 -4.35
    endloop
  endfacet
  facet normal 0 0 1
    outer loop
      vertex -3.4192147144883487 5.164078737893351 -2.85
      vertex -3.0817792362644107 1.4728969764391677 -2.85
      vertex -2.917405322439415 1.2828203401275544 -2.85
    endloop
  endfacet
  facet normal 0 0 1
    outer loop
      vertex -3.4192147144883487 5.164078737893351 -2.85
      vertex -2.917405322439415 1.2828203401275544 -2.85
      vertex -2.7849152910082116 1.1216757401990194 -2.85
    endloop
  endfacet
  facet normal 0 0 1
    outer loop
      vertex -3.704331914378198 2.6924713431113516 -2.85
      vertex -3.621440661551077 2.4608947956287444 -2.85
      vertex -3.82040779343671 3.5645908710262777 -2.85
    endloop
  endfacet
  facet normal 0 0 1
    outer loop
      vertex -3.5517966148987568 2.266092936668452 -2.85
      vertex -3.785692062504961 3.7979001950372777 -2.85
      vertex -3.621440661551077 2.4608947956287444 -2.85
    endloop
  endfacet
  facet normal 0 0 1
    outer loop
      vertex -3.704331914378198 2.6924713431113516 -2.85
      vertex -3.8113367773449753 3.32714604726978 -2.85
      vertex -3.7545426946814673 2.890956844570707 -2.85
    endloop
  endfacet
  facet normal 0 0 1
    outer loop
      vertex -3.802457954537297 3.1276805416818707 -2.85
      vertex -3.7545426946814673 2.890956844570707 -2.85
      vertex -3.8113367773449753 3.32714604726978 -2.85
    endloop
  endfacet
  facet normal 0 0 1
    outer loop
      vertex -3.43781969024082 2.0440110910498293 -2.85
      vertex -3.593949366867171 4.719441461573761 -2.85
      vertex -3.5517966148987568 2.266092936668452 -2.85
    endloop
  endfacet
  facet normal 0 0 1
    outer loop
      vertex -3.4192147144883487 5.164078737893351 -2.85
      vertex -3.43781969024082 2.0440110910498293 -2.85
      vertex -3.341912810442291 1.8569255901362762 -2.85
    endloop
  endfacet
  facet normal 0 0 1
    outer loop
      vertex -3.704331914378198 2.6924713431113516 -2.85
      vertex -3.82040779343671 3.5645908710262777 -2.85
      vertex -3.8113367773449753 3.32714604726978 -2.85
    endloop
  endfacet
  facet normal 0 0 1
    outer loop
      vertex -3.82040779343671 3.5645908710262777 -2.85
      vertex -3.621440661551077 2.4608947956287444 -2.85
      vertex -3.785692062504961 3.7979001950372777 -2.85
    endloop
  endfacet
  facet normal 0 0 1
    outer loop
      vertex -3.5517966148987568 2.266092936668452 -2.85
      vertex -3.757744862914943 4.074704227929778 -2.85
      vertex -3.785692062504961 3.7979001950372777 -2.85
    endloop
  endfacet
  facet normal 0 0 1
    outer loop
      vertex -3.5517966148987568 2.266092936668452 -2.85
      vertex -3.711498427931576 4.290870538402165 -2.85
      vertex -3.757744862914943 4.074704227929778 -2.85
    endloop
  endfacet
  facet normal 0 0 1
    outer loop
      vertex -3.4192147144883487 5.164078737893351 -2.85
      vertex -3.341912810442291 1.8569255901362762 -2.85
      vertex -3.200778271156306 1.6486866783702074 -2.85
    endloop
  endfacet
  facet normal 0 0 1
    outer loop
      vertex -3.4192147144883487 5.164078737893351 -2.85
      vertex -3.200778271156306 1.6486866783702074 -2.85
      vertex -3.0817792362644107 1.4728969764391677 -2.85
    endloop
  endfacet
  facet normal 0 0 1
    outer loop
      vertex -2.455696331989448 0.8116115065517351 -2.85
      vertex -2.2565479195044924 0.6706730925829263 -2.85
      vertex -3.3142100724749763 5.37875207777486 -2.85
    endloop
  endfacet
  facet normal 0 0 1
    outer loop
      vertex -3.4192147144883487 5.164078737893351 -2.85
      vertex -2.7849152910082116 1.1216757401990194 -2.85
      vertex -2.6012059212791714 0.9540527099625693 -2.85
    endloop
  endfacet
  facet normal 0 0 1
    outer loop
      vertex -2.455696331989448 0.8116115065517351 -2.85
      vertex -3.4192147144883487 5.164078737893351 -2.85
      vertex -2.6012059212791714 0.9540527099625693 -2.85
    endloop
  endfacet
  facet normal 0 0 1
    outer loop
      vertex -2.070493260259084 0.5511211569744738 -2.85
      vertex -3.205936373961054 5.542070238164127 -2.85
      vertex -2.2565479195044924 0.6706730925829263 -2.85
    endloop
  endfacet
  facet normal 0 0 1
    outer loop
      vertex -1.8598533976012348 0.44114129384882383 -2.85
      vertex -3.078000655327571 5.734804020058538 -2.85
      vertex -2.070493260259084 0.5511211569744738 -2.85
    endloop
  endfacet
  facet normal 0 0 1
    outer loop
      vertex -1.938125916476769 6.637527581388517 -2.85
      vertex -1.8598533976012348 0.44114129384882383 -2.85
      vertex -1.6799737748143846 0.34709834405850276 -2.85
    endloop
  endfacet
  facet normal 0 0 1
    outer loop
      vertex -1.938125916476769 6.637527581388517 -2.85
      vertex -1.6799737748143846 0.34709834405850276 -2.85
      vertex -1.4616857419404672 0.2722008926784835 -2.85
    endloop
  endfacet
  facet normal 0 0 1
    outer loop
      vertex -1.938125916476769 6.637527581388517 -2.85
      vertex -1.4616857419404672 0.2722008926784835 -2.85
      vertex -1.274232139925686 0.20791665551009844 -2.85
    endloop
  endfacet
  facet normal 0 0 1
    outer loop
      vertex -1.938125916476769 6.637527581388517 -2.85
      vertex -1.274232139925686 0.20791665551009844 -2.85
      vertex -1.0515684078626935 0.17216163886697472 -2.85
    endloop
  endfacet
  facet normal 0 0 1
    outer loop
      vertex -1.938125916476769 6.637527581388517 -2.85
      vertex -1.0515684078626935 0.17216163886697472 -2.85
      vertex -0.8709277818521632 0.14105309600593863 -2.85
    endloop
  endfacet
  facet normal 0 0 1
    outer loop
      vertex -1.938125916476769 6.637527581388517 -2.85
      vertex -0.8709277818521632 0.14105309600593863 -2.85
      vertex -0.6473598930942154 0.14879185778631393 -2.85
    endloop
  endfacet
  facet normal 0 0 1
    outer loop
      vertex -0.5131526800998711 0.15353639899093754 -2.85
      vertex -1.938125916476769 6.637527581388517 -2.85
      vertex -0.6473598930942154 0.14879185778631393 -2.85
    endloop
  endfacet
  facet normal 0 0 1
    outer loop
      vertex -1.938125916476769 6.637527581388517 -2.85
      vertex -0.5131526800998711 0.15353639899093754 -2.85
      vertex -0.2582309153694087 0.19930639855435467 -2.85
    endloop
  endfacet
  facet normal 0 0 1
    outer loop
      vertex 0.035182098718115735 0.24097502720068067 -2.85
      vertex -1.7324532530177095 6.736852362380211 -2.85
      vertex -0.2582309153694087 0.19930639855435467 -2.85
    endloop
  endfacet
  facet normal 0 0 -1
    outer loop
      vertex -3.628230543302952 2.6945341841487442 -4.35
      vertex -3.681650123168964 4.076766889215111 -4.35
      vertex -3.6716058675606136 4.123716014635907 -4.35
    endloop
  endfacet
  facet normal 0 0 -1
    outer loop
      vertex -3.628230543302952 2.6945341841487442 -4.35
      vertex -3.6716058675606136 4.123716014635907 -4.35
      vertex -3.5803467781939964 4.549651655128199 -4.35
    endloop
  endfacet
  facet normal 0 0 -1
    outer loop
      vertex -3.628230543302952 2.6945341841487442 -4.35
      vertex -3.5803467781939964 4.549651655128199 -4.35
      vertex -3.5667623870547027 4.586976659432207 -4.35
    endloop
  endfacet
  facet normal 0 0 -1
    outer loop
      vertex -3.628230543302952 2.6945341841487442 -4.35
      vertex -3.5667623870547027 4.586976659432207 -4.35
      vertex -3.4328133855084246 4.97880570729165 -4.35
    endloop
  endfacet
  facet normal 0 0 -1
    outer loop
      vertex -3.4756301008497346 2.2681573954602583 -4.35
      vertex -3.4328133855084246 4.97880570729165 -4.35
      vertex -3.4123864570942914 5.024115875395451 -4.35
    endloop
  endfacet
  facet normal 0 0 -1
    outer loop
      vertex -3.2656619794690895 1.8589923343000416 -4.35
      vertex -3.4123864570942914 5.024115875395451 -4.35
      vertex -3.2379065250169634 5.380825722152214 -4.35
    endloop
  endfacet
  facet normal 0 0 -1
    outer loop
      vertex -3.2656619794690895 1.8589923343000416 -4.35
      vertex -3.2379065250169634 5.380825722152214 -4.35
      vertex -3.2143902754205205 5.416297223320636 -4.35
    endloop
  endfacet
  facet normal 0 0 -1
    outer loop
      vertex -3.031266871670757 1.5131508243610057 -4.35
      vertex -3.2143902754205205 5.416297223320636 -4.35
      vertex -3.0015923317777333 5.7368750329871085 -4.35
    endloop
  endfacet
  facet normal 0 0 -1
    outer loop
      vertex -3.031266871670757 1.5131508243610057 -4.35
      vertex -3.0015923317777333 5.7368750329871085 -4.35
      vertex -2.9740357524418704 5.768293742232848 -4.35
    endloop
  endfacet
  facet normal 0 0 -1
    outer loop
      vertex -3.031266871670757 1.5131508243610057 -4.35
      vertex -2.9740357524418704 5.768293742232848 -4.35
      vertex -2.725121686461588 6.051768222235123 -4.35
    endloop
  endfacet
  facet normal 0 0 -1
    outer loop
      vertex -3.031266871670757 1.5131508243610057 -4.35
      vertex -2.725121686461588 6.051768222235123 -4.35
      vertex -2.6937446076817992 6.079016899841824 -4.35
    endloop
  endfacet
  facet normal 0 0 -1
    outer loop
      vertex -3.031266871670757 1.5131508243610057 -4.35
      vertex -2.6937446076817992 6.079016899841824 -4.35
      vertex -2.4108900192654703 6.32436544656399 -4.35
    endloop
  endfacet
  facet normal 0 0 -1
    outer loop
      vertex -3.031266871670757 1.5131508243610057 -4.35
      vertex -2.4108900192654703 6.32436544656399 -4.35
      vertex -2.3722888343909734 6.347490003533333 -4.35
    endloop
  endfacet
  facet normal 0 0 -1
    outer loop
      vertex -3.031266871670757 1.5131508243610057 -4.35
      vertex -2.3722888343909734 6.347490003533333 -4.35
      vertex -2.0577182653667982 6.553743742357728 -4.35
    endloop
  endfacet
  facet normal 0 0 -1
    outer loop
      vertex -2.017892069144428 6.572267879607527 -4.35
      vertex -3.031266871670757 1.5131508243610057 -4.35
      vertex -2.0577182653667982 6.553743742357728 -4.35
    endloop
  endfacet
  facet normal 0 0 -1
    outer loop
      vertex -1.6737924329872715 6.7384427150271815 -4.35
      vertex -3.0054221594228983 1.4749720755444977 -4.35
      vertex -2.017892069144428 6.572267879607527 -4.35
    endloop
  endfacet
  facet normal 0 0 -1
    outer loop
      vertex -1.6420944121435352 0.3696138562570752 -4.35
      vertex -1.6737924329872715 6.7384427150271815 -4.35
      vertex -1.637458861385482 6.7522429786944915 -4.35
    endloop
  endfacet
  facet normal 0 0 -1
    outer loop
      vertex -1.603027844960651 0.34918944598124513 -4.35
      vertex -1.637458861385482 6.7522429786944915 -4.35
      vertex -1.2658256450793903 6.877420515405461 -4.35
    endloop
  endfacet
  facet normal 0 0 -1
    outer loop
      vertex -1.603027844960651 0.34918944598124513 -4.35
      vertex -1.2658256450793903 6.877420515405461 -4.35
      vertex -1.2216991716830732 6.886652794265364 -4.35
    endloop
  endfacet
  facet normal 0 0 -1
    outer loop
      vertex -1.603027844960651 0.34918944598124513 -4.35
      vertex -1.2216991716830732 6.886652794265364 -4.35
      vertex -0.8246813461211983 6.969814068348393 -4.35
    endloop
  endfacet
  facet normal 0 0 -1
    outer loop
      vertex -1.603027844960651 0.34918944598124513 -4.35
      vertex -0.8246813461211983 6.969814068348393 -4.35
      vertex -0.7781239164960186 6.974254352897045 -4.35
    endloop
  endfacet
  facet normal 0 0 -1
    outer loop
      vertex -1.603027844960651 0.34918944598124513 -4.35
      vertex -0.7781239164960186 6.974254352897045 -4.35
      vertex -0.3578842079708143 7.014371393873672 -4.35
    endloop
  endfacet
  facet normal 0 0 -1
    outer loop
      vertex -1.603027844960651 0.34918944598124513 -4.35
      vertex -0.3578842079708143 7.014371393873672 -4.35
      vertex -0.3093255306652866 7.013698712411119 -4.35
    endloop
  endfacet
  facet normal 0 0 -1
    outer loop
      vertex -1.603027844960651 0.34918944598124513 -4.35
      vertex -0.3093255306652866 7.013698712411119 -4.35
      vertex 0.130445361333244 7.007582955996216 -4.35
    endloop
  endfacet
  facet normal 0 0 1
    outer loop
      vertex -3.5517966148987568 2.266092936668452 -2.85
      vertex -3.656495346265845 4.547587682753958 -2.85
      vertex -3.711498427931576 4.290870538402165 -2.85
    endloop
  endfacet
  facet normal 0 0 1
    outer loop
      vertex -3.5517966148987568 2.266092936668452 -2.85
      vertex -3.593949366867171 4.719441461573761 -2.85
      vertex -3.656495346265845 4.547587682753958 -2.85
    endloop
  endfacet
  facet normal 0 0 1
    outer loop
      vertex -3.43781969024082 2.0440110910498293 -2.85
      vertex -3.5132649280816914 4.955460442390617 -2.85
      vertex -3.593949366867171 4.719441461573761 -2.85
    endloop
  endfacet
  facet normal 0 0 1
    outer loop
      vertex -3.43781969024082 2.0440110910498293 -2.85
      vertex -3.4192147144883487 5.164078737893351 -2.85
      vertex -3.5132649280816914 4.955460442390617 -2.85
    endloop
  endfacet
  facet normal 0 0 1
    outer loop
      vertex -3.4192147144883487 5.164078737893351 -2.85
      vertex -2.455696331989448 0.8116115065517351 -2.85
      vertex -3.3142100724749763 5.37875207777486 -2.85
    endloop
  endfacet
  facet normal 0 0 1
    outer loop
      vertex -2.2565479195044924 0.6706730925829263 -2.85
      vertex -3.205936373961054 5.542070238164127 -2.85
      vertex -3.3142100724749763 5.37875207777486 -2.85
    endloop
  endfacet
  facet normal 0 0 1
    outer loop
      vertex -2.070493260259084 0.5511211569744738 -2.85
      vertex -3.078000655327571 5.734804020058538 -2.85
      vertex -3.205936373961054 5.542070238164127 -2.85
    endloop
  endfacet
  facet normal 0 0 1
    outer loop
      vertex -1.8598533976012348 0.44114129384882383 -2.85
      vertex -2.9511250017986215 5.879461643198341 -2.85
      vertex -3.078000655327571 5.734804020058538 -2.85
    endloop
  endfacet
  facet normal 0 0 1
    outer loop
      vertex -1.8598533976012348 0.44114129384882383 -2.85
      vertex -2.801651795815676 6.049688420754755 -2.85
      vertex -2.9511250017986215 5.879461643198341 -2.85
    endloop
  endfacet
  facet normal 0 0 1
    outer loop
      vertex -1.8598533976012348 0.44114129384882383 -2.85
      vertex -2.6571862795937338 6.175146061488126 -2.85
      vertex -2.801651795815676 6.049688420754755 -2.85
    endloop
  endfacet
  facet normal 0 0 1
    outer loop
      vertex -1.8598533976012348 0.44114129384882383 -2.85
      vertex -2.487558022430785 6.322281897646762 -2.85
      vertex -2.6571862795937338 6.175146061488126 -2.85
    endloop
  endfacet
  facet normal 0 0 1
    outer loop
      vertex -1.8598533976012348 0.44114129384882383 -2.85
      vertex -2.309832075287167 6.428751007416717 -2.85
      vertex -2.487558022430785 6.322281897646762 -2.85
    endloop
  endfacet
  facet normal 0 0 1
    outer loop
      vertex -1.8598533976012348 0.44114129384882383 -2.85
      vertex -2.121491808537211 6.552239623369778 -2.85
      vertex -2.309832075287167 6.428751007416717 -2.85
    endloop
  endfacet
  facet normal 0 0 1
    outer loop
      vertex -1.8598533976012348 0.44114129384882383 -2.85
      vertex -1.938125916476769 6.637527581388517 -2.85
      vertex -2.121491808537211 6.552239623369778 -2.85
    endloop
  endfacet
  facet normal 0 0 1
    outer loop
      vertex -1.938125916476769 6.637527581388517 -2.85
      vertex -0.2582309153694087 0.19930639855435467 -2.85
      vertex -1.7324532530177095 6.736852362380211 -2.85
    endloop
  endfacet
  facet normal 0 0 1
    outer loop
      vertex 0.035182098718115735 0.24097502720068067 -2.85
      vertex -1.5651683914998258 6.800390712581447 -2.85
      vertex -1.7324532530177095 6.736852362380211 -2.85
    endloop
  endfacet
  facet normal 0 0 1
    outer loop
      vertex 0.035182098718115735 0.24097502720068067 -2.85
      vertex -1.3426614557087742 6.875337915633634 -2.85
      vertex -1.5651683914998258 6.800390712581447 -2.85
    endloop
  endfacet
  facet normal 0 0 1
    outer loop
      vertex 0.035182098718115735 0.24097502720068067 -2.85
      vertex -1.1394973301126519 6.917844549802781 -2.85
      vertex -1.3426614557087742 6.875337915633634 -2.85
    endloop
  endfacet
  facet normal 0 0 1
    outer loop
      vertex 0.035182098718115735 0.24097502720068067 -2.85
      vertex -0.9013063621104349 6.967737182069609 -2.85
      vertex -1.1394973301126519 6.917844549802781 -2.85
    endloop
  endfacet
  facet normal 0 0 1
    outer loop
      vertex 0.035182098718115735 0.24097502720068067 -2.85
      vertex -0.6869498190417138 6.988180837437897 -2.85
      vertex -0.9013063621104349 6.967737182069609 -2.85
    endloop
  endfacet
  facet normal 0 0 -1
    outer loop
      vertex 0.130445361333244 7.007582955996216 -4.35
      vertex -0.4130927976454205 0.1564040396026014 -4.35
      vertex -0.7860222560962743 0.1434951542708615 -4.35
    endloop
  endfacet
  facet normal 0 0 -1
    outer loop
      vertex 0.130445361333244 7.007582955996216 -4.35
      vertex -0.3839454469652162 0.15743446712748912 -4.35
      vertex -0.4130927976454205 0.1564040396026014 -4.35
    endloop
  endfacet
  facet normal 0 0 -1
    outer loop
      vertex -0.3839454469652162 0.15743446712748912 -4.35
      vertex 0.130445361333244 7.007582955996216 -4.35
      vertex 0.040717849029640756 0.23368075740731328 -4.35
    endloop
  endfacet
  facet normal 0 0 -1
    outer loop
      vertex 0.130445361333244 7.007582955996216 -4.35
      vertex 0.10444198726904802 0.24273044956347967 -4.35
      vertex 0.040717849029640756 0.23368075740731328 -4.35
    endloop
  endfacet
  facet normal 0 0 -1
    outer loop
      vertex 0.10444198726904802 0.24273044956347967 -4.35
      vertex 1.391394704618936 6.6587241318273795 -4.35
      vertex 0.503923905684546 0.349983604499882 -4.35
    endloop
  endfacet
  facet normal 0 0 -1
    outer loop
      vertex 0.503923905684546 0.349983604499882 -4.35
      vertex 1.7361496653743942 6.436626281596065 -4.35
      vertex 0.5328367832909185 0.3581717629291282 -4.35
    endloop
  endfacet
  facet normal 0 0 -1
    outer loop
      vertex 0.5328367832909185 0.3581717629291282 -4.35
      vertex 1.7762524121259715 6.401312528325165 -4.35
      vertex 0.9052115326441793 0.49676946195187943 -4.35
    endloop
  endfacet
  facet normal 0 0 -1
    outer loop
      vertex 1.7762524121259715 6.401312528325165 -4.35
      vertex 0.959602466407851 0.5156114116644683 -4.35
      vertex 0.9052115326441793 0.49676946195187943 -4.35
    endloop
  endfacet
  facet normal 0 0 -1
    outer loop
      vertex 1.7762524121259715 6.401312528325165 -4.35
      vertex 1.3031457176001413 0.6858706409460349 -4.35
      vertex 0.959602466407851 0.5156114116644683 -4.35
    endloop
  endfacet
  facet normal 0 0 -1
    outer loop
      vertex 1.7762524121259715 6.401312528325165 -4.35
      vertex 1.3402763791076253 0.7045457539032394 -4.35
      vertex 1.3031457176001413 0.6858706409460349 -4.35
    endloop
  endfacet
  facet normal 0 0 -1
    outer loop
      vertex 1.7762524121259715 6.401312528325165 -4.35
      vertex 1.6531555957410788 0.9068101519468155 -4.35
      vertex 1.3402763791076253 0.7045457539032394 -4.35
    endloop
  endfacet
  facet normal 0 0 -1
    outer loop
      vertex 1.7762524121259715 6.401312528325165 -4.35
      vertex 1.6880907931025042 0.9289745761198308 -4.35
      vertex 1.6531555957410788 0.9068101519468155 -4.35
    endloop
  endfacet
  facet normal 0 0 -1
    outer loop
      vertex 1.6880907931025042 0.9289745761198308 -4.35
      vertex 2.054369503921481 6.155190660720101 -4.35
      vertex 1.9685113970132122 1.1635320148442225 -4.35
    endloop
  endfacet
  facet normal 0 0 -1
    outer loop
      vertex 2.054369503921481 6.155190660720101 -4.35
      vertex 1.9991816610598767 1.1891532848825077 -4.35
      vertex 1.9685113970132122 1.1635320148442225 -4.35
    endloop
  endfacet
  facet normal 0 0 -1
    outer loop
      vertex 1.9991816610598767 1.1891532848825077 -4.35
      vertex 2.9579021544661446 4.021570434387713 -4.35
      vertex 2.245346284437927 1.4563281372324843 -4.35
    endloop
  endfacet
  facet normal 0 0 -1
    outer loop
      vertex 2.269617076420115 1.4853774544865803 -4.35
      vertex 2.245346284437927 1.4563281372324843 -4.35
      vertex 2.9579021544661446 4.021570434387713 -4.35
    endloop
  endfacet
  facet normal 0 0 -1
    outer loop
      vertex 2.269617076420115 1.4853774544865803 -4.35
      vertex 2.9579021544661446 4.021570434387713 -4.35
      vertex 2.4797129242098284 1.7854870337184356 -4.35
    endloop
  endfacet
  facet normal 0 0 -1
    outer loop
      vertex 2.5052634064433748 1.8182141782531902 -4.35
      vertex 2.4797129242098284 1.7854870337184356 -4.35
      vertex 2.9579021544661446 4.021570434387713 -4.35
    endloop
  endfacet
  facet normal 0 0 -1
    outer loop
      vertex 2.5052634064433748 1.8182141782531902 -4.35
      vertex 2.9579021544661446 4.021570434387713 -4.35
      vertex 2.677548674338064 2.1516737080818147 -4.35
    endloop
  endfacet
  facet normal 0 0 -1
    outer loop
      vertex 2.6962697776989075 2.187770263358058 -4.35
      vertex 2.677548674338064 2.1516737080818147 -4.35
      vertex 2.992235528163569 3.473983104502806 -4.35
    endloop
  endfacet
  facet normal 0 0 -1
    outer loop
      vertex 1.9991816610598767 1.1891532848825077 -4.35
      vertex 2.953659236054512 4.075224444270611 -4.35
      vertex 2.9579021544661446 4.021570434387713 -4.35
    endloop
  endfacet
  facet normal 0 0 -1
    outer loop
      vertex 2.6962697776989075 2.187770263358058 -4.35
      vertex 2.992235528163569 3.473983104502806 -4.35
      vertex 2.828910942225181 2.554895911008905 -4.35
    endloop
  endfacet
  facet normal 0 0 -1
    outer loop
      vertex 2.8405296579604236 2.594357803694093 -4.35
      vertex 2.828910942225181 2.554895911008905 -4.35
      vertex 2.992235528163569 3.473983104502806 -4.35
    endloop
  endfacet
  facet normal 0 0 -1
    outer loop
      vertex 2.9974028400897246 3.5206745562965494 -4.35
      vertex 2.992235528163569 3.473983104502806 -4.35
      vertex 2.677548674338064 2.1516737080818147 -4.35
    endloop
  endfacet
  facet normal 0 0 -1
    outer loop
      vertex 2.8405296579604236 2.594357803694093 -4.35
      vertex 2.992235528163569 3.473983104502806 -4.35
      vertex 2.931706565973319 2.9954098394292576 -4.35
    endloop
  endfacet
  facet normal 0 0 -1
    outer loop
      vertex 1.9991816610598767 1.1891532848825077 -4.35
      vertex 2.870982633533993 4.536277909281912 -4.35
      vertex 2.953659236054512 4.075224444270611 -4.35
    endloop
  endfacet
  facet normal 0 0 -1
    outer loop
      vertex 1.9991816610598767 1.1891532848825077 -4.35
      vertex 2.8620937393225474 4.5856897349900345 -4.35
      vertex 2.870982633533993 4.536277909281912 -4.35
    endloop
  endfacet
  facet normal 0 0 -1
    outer loop
      vertex 2.9974028400897246 3.5206745562965494 -4.35
      vertex 2.677548674338064 2.1516737080818147 -4.35
      vertex 2.9579021544661446 4.021570434387713 -4.35
    endloop
  endfacet
  facet normal 0 0 -1
    outer loop
      vertex 2.992235528163569 3.473983104502806 -4.35
      vertex 2.944292382221074 3.038662549444024 -4.35
      vertex 2.931706565973319 2.9954098394292576 -4.35
    endloop
  endfacet
  facet normal 0 0 1
    outer loop
      vertex -0.21071799390471802 7.009203392921066 -2.85
      vertex 0.035182098718115735 0.24097502720068067 -2.85
      vertex 0.2756862043142239 0.3055457196681962 -2.85
    endloop
  endfacet
  facet normal 0 0 1
    outer loop
      vertex -0.21071799390471802 7.009203392921066 -2.85
      vertex 0.2756862043142239 0.3055457196681962 -2.85
      vertex 0.4088133002506654 0.3432474582358161 -2.85
    endloop
  endfacet
  facet normal 0 0 1
    outer loop
      vertex -0.21071799390471802 7.009203392921066 -2.85
      vertex 0.4088133002506654 0.3432474582358161 -2.85
      vertex 0.6332933835106374 0.42679883509556193 -2.85
    endloop
  endfacet
  facet normal 0 0 1
    outer loop
      vertex -0.21071799390471802 7.009203392921066 -2.85
      vertex 0.6332933835106374 0.42679883509556193 -2.85
      vertex 0.8837317556323758 0.5135549704861283 -2.85
    endloop
  endfacet
  facet normal 0 0 1
    outer loop
      vertex -0.21071799390471802 7.009203392921066 -2.85
      vertex 0.8837317556323758 0.5135549704861283 -2.85
      vertex 1.0913432534342424 0.6164467417057946 -2.85
    endloop
  endfacet
  facet normal 0 0 1
    outer loop
      vertex -0.21071799390471802 7.009203392921066 -2.85
      vertex 1.0913432534342424 0.6164467417057946 -2.85
      vertex 1.262307571013005 0.7024343813763472 -2.85
    endloop
  endfacet
  facet normal 0 0 1
    outer loop
      vertex -0.21071799390471802 7.009203392921066 -2.85
      vertex 1.262307571013005 0.7024343813763472 -2.85
      vertex 1.4517068049639508 0.8248737126211648 -2.85
    endloop
  endfacet
  facet normal 0 0 1
    outer loop
      vertex 1.6125621424736511 0.926927406326506 -2.85
      vertex 1.461299372242662 6.5556068742905005 -2.85
      vertex 1.4517068049639508 0.8248737126211648 -2.85
    endloop
  endfacet
  facet normal 0 0 1
    outer loop
      vertex 1.6125621424736511 0.926927406326506 -2.85
      vertex 1.7825819021248144 1.0691402066705635 -2.85
      vertex 1.6513094714055518 6.434164714942844 -2.85
    endloop
  endfacet
  facet normal 0 0 1
    outer loop
      vertex 1.9237992227785512 1.187110078108498 -2.85
      vertex 1.8359480352454542 6.271575336012603 -2.85
      vertex 1.7825819021248144 1.0691402066705635 -2.85
    endloop
  endfacet
  facet normal 0 0 1
    outer loop
      vertex 1.8359480352454542 6.271575336012603 -2.85
      vertex 1.9237992227785512 1.187110078108498 -2.85
      vertex 2.073257493845395 1.3493246601909992 -2.85
    endloop
  endfacet
  facet normal 0 0 1
    outer loop
      vertex 1.8359480352454542 6.271575336012603 -2.85
      vertex 2.073257493845395 1.3493246601909992 -2.85
      vertex 2.185009107714931 1.4830783542334447 -2.85
    endloop
  endfacet
  facet normal 0 0 1
    outer loop
      vertex 1.8359480352454542 6.271575336012603 -2.85
      vertex 2.185009107714931 1.4830783542334447 -2.85
      vertex 2.312709833478412 1.6654913408758067 -2.85
    endloop
  endfacet
  facet normal 0 0 1
    outer loop
      vertex 1.8359480352454542 6.271575336012603 -2.85
      vertex 2.312709833478412 1.6654913408758067 -2.85
      vertex 2.4303530613488302 1.8161783958933142 -2.85
    endloop
  endfacet
  facet normal 0 0 1
    outer loop
      vertex 1.8359480352454542 6.271575336012603 -2.85
      vertex 2.4303530613488302 1.8161783958933142 -2.85
      vertex 2.53542535061733 2.019546661826 -2.85
    endloop
  endfacet
  facet normal 0 0 1
    outer loop
      vertex 1.8359480352454542 6.271575336012603 -2.85
      vertex 2.53542535061733 2.019546661826 -2.85
      vertex 2.6216234334255235 2.185747008078025 -2.85
    endloop
  endfacet
  facet normal 0 0 -1
    outer loop
      vertex 0.10444198726904802 0.24273044956347967 -4.35
      vertex 0.130445361333244 7.007582955996216 -4.35
      vertex 0.17559397402239865 7.001412369079805 -4.35
    endloop
  endfacet
  facet normal 0 0 -1
    outer loop
      vertex 0.10444198726904802 0.24273044956347967 -4.35
      vertex 0.17559397402239865 7.001412369079805 -4.35
      vertex 0.5857501124603521 6.945281402138537 -4.35
    endloop
  endfacet
  facet normal 0 0 -1
    outer loop
      vertex 0.10444198726904802 0.24273044956347967 -4.35
      vertex 0.5857501124603521 6.945281402138537 -4.35
      vertex 0.6273717833676875 6.93375842876413 -4.35
    endloop
  endfacet
  facet normal 0 0 -1
    outer loop
      vertex 0.10444198726904802 0.24273044956347967 -4.35
      vertex 0.6273717833676875 6.93375842876413 -4.35
      vertex 1.0065650286017764 6.828615670706847 -4.35
    endloop
  endfacet
  facet normal 0 0 -1
    outer loop
      vertex 0.10444198726904802 0.24273044956347967 -4.35
      vertex 1.0065650286017764 6.828615670706847 -4.35
      vertex 1.0445389292665972 6.811870490907654 -4.35
    endloop
  endfacet
  facet normal 0 0 -1
    outer loop
      vertex 0.10444198726904802 0.24273044956347967 -4.35
      vertex 1.0445389292665972 6.811870490907654 -4.35
      vertex 1.391394704618936 6.6587241318273795 -4.35
    endloop
  endfacet
  facet normal 0 0 -1
    outer loop
      vertex 0.503923905684546 0.349983604499882 -4.35
      vertex 1.391394704618936 6.6587241318273795 -4.35
      vertex 1.4229963225681295 6.636773633367762 -4.35
    endloop
  endfacet
  facet normal 0 0 -1
    outer loop
      vertex 0.503923905684546 0.349983604499882 -4.35
      vertex 1.4229963225681295 6.636773633367762 -4.35
      vertex 1.7361496653743942 6.436626281596065 -4.35
    endloop
  endfacet
  facet normal 0 0 -1
    outer loop
      vertex 1.7762524121259715 6.401312528325165 -4.35
      vertex 0.5328367832909185 0.3581717629291282 -4.35
      vertex 1.7361496653743942 6.436626281596065 -4.35
    endloop
  endfacet
  facet normal 0 0 -1
    outer loop
      vertex 1.9991816610598767 1.1891532848825077 -4.35
      vertex 2.0734676736682793 6.132277708702794 -4.35
      vertex 2.3152320832147546 5.841147312755245 -4.35
    endloop
  endfacet
  facet normal 0 0 -1
    outer loop
      vertex 1.6880907931025042 0.9289745761198308 -4.35
      vertex 1.7762524121259715 6.401312528325165 -4.35
      vertex 2.054369503921481 6.155190660720101 -4.35
    endloop
  endfacet
  facet normal 0 0 -1
    outer loop
      vertex 1.9991816610598767 1.1891532848825077 -4.35
      vertex 2.054369503921481 6.155190660720101 -4.35
      vertex 2.0734676736682793 6.132277708702794 -4.35
    endloop
  endfacet
  facet normal 0 0 -1
    outer loop
      vertex 1.9991816610598767 1.1891532848825077 -4.35
      vertex 2.737594008277295 5.005819170772193 -4.35
      vertex 2.8620937393225474 4.5856897349900345 -4.35
    endloop
  endfacet
  facet normal 0 0 -1
    outer loop
      vertex 1.9991816610598767 1.1891532848825077 -4.35
      vertex 2.722391867732668 5.050834954801848 -4.35
      vertex 2.737594008277295 5.005819170772193 -4.35
    endloop
  endfacet
  facet normal 0 0 -1
    outer loop
      vertex 1.9991816610598767 1.1891532848825077 -4.35
      vertex 2.55743816309871 5.428999375196477 -4.35
      vertex 2.722391867732668 5.050834954801848 -4.35
    endloop
  endfacet
  facet normal 0 0 -1
    outer loop
      vertex 1.9991816610598767 1.1891532848825077 -4.35
      vertex 2.33734079562146 5.8049653588084045 -4.35
      vertex 2.5414142992020756 5.469782537506257 -4.35
    endloop
  endfacet
  facet normal 0 0 -1
    outer loop
      vertex 1.9991816610598767 1.1891532848825077 -4.35
      vertex 2.3152320832147546 5.841147312755245 -4.35
      vertex 2.33734079562146 5.8049653588084045 -4.35
    endloop
  endfacet
  facet normal 0 0 -1
    outer loop
      vertex 1.9991816610598767 1.1891532848825077 -4.35
      vertex 2.5414142992020756 5.469782537506257 -4.35
      vertex 2.55743816309871 5.428999375196477 -4.35
    endloop
  endfacet
  facet normal 0 0 1
    outer loop
      vertex 0.035182098718115735 0.24097502720068067 -2.85
      vertex -0.4342881043851455 7.0123005009406 -2.85
      vertex -0.6869498190417138 6.988180837437897 -2.85
    endloop
  endfacet
  facet normal 0 0 1
    outer loop
      vertex 0.035182098718115735 0.24097502720068067 -2.85
      vertex -0.21071799390471802 7.009203392921066 -2.85
      vertex -0.4342881043851455 7.0123005009406 -2.85
    endloop
  endfacet
  facet normal 0 0 1
    outer loop
      vertex -0.21071799390471802 7.009203392921066 -2.85
      vertex 1.4517068049639508 0.8248737126211648 -2.85
      vertex 0.05427073800999175 7.005518277406212 -2.85
    endloop
  endfacet
  facet normal 0 0 1
    outer loop
      vertex 1.4517068049639508 0.8248737126211648 -2.85
      vertex 0.2621402150820862 6.977108175763151 -2.85
      vertex 0.05427073800999175 7.005518277406212 -2.85
    endloop
  endfacet
  facet normal 0 0 1
    outer loop
      vertex 1.4517068049639508 0.8248737126211648 -2.85
      vertex 0.5097872434833479 6.943217016125179 -2.85
      vertex 0.2621402150820862 6.977108175763151 -2.85
    endloop
  endfacet
  facet normal 0 0 1
    outer loop
      vertex 1.4517068049639508 0.8248737126211648 -2.85
      vertex 0.9307960894196088 6.82656198800135 -2.85
      vertex 0.7014184542662225 6.890163851958066 -2.85
    endloop
  endfacet
  facet normal 0 0 1
    outer loop
      vertex 1.4517068049639508 0.8248737126211648 -2.85
      vertex 1.1056325241582408 6.74946515349416 -2.85
      vertex 0.9307960894196088 6.82656198800135 -2.85
    endloop
  endfacet
  facet normal 0 0 1
    outer loop
      vertex 1.4517068049639508 0.8248737126211648 -2.85
      vertex 1.3158014609475441 6.656669790844198 -2.85
      vertex 1.1056325241582408 6.74946515349416 -2.85
    endloop
  endfacet
  facet normal 0 0 1
    outer loop
      vertex 1.4517068049639508 0.8248737126211648 -2.85
      vertex 0.7014184542662225 6.890163851958066 -2.85
      vertex 0.5097872434833479 6.943217016125179 -2.85
    endloop
  endfacet
  facet normal 0 0 1
    outer loop
      vertex 1.4517068049639508 0.8248737126211648 -2.85
      vertex 1.461299372242662 6.5556068742905005 -2.85
      vertex 1.3158014609475441 6.656669790844198 -2.85
    endloop
  endfacet
  facet normal 0 0 1
    outer loop
      vertex 1.6125621424736511 0.926927406326506 -2.85
      vertex 1.6513094714055518 6.434164714942844 -2.85
      vertex 1.461299372242662 6.5556068742905005 -2.85
    endloop
  endfacet
  facet normal 0 0 1
    outer loop
      vertex 1.7825819021248144 1.0691402066705635 -2.85
      vertex 1.8359480352454542 6.271575336012603 -2.85
      vertex 1.6513094714055518 6.434164714942844 -2.85
    endloop
  endfacet
  facet normal 0 0 1
    outer loop
      vertex 1.8359480352454542 6.271575336012603 -2.85
      vertex 2.6216234334255235 2.185747008078025 -2.85
      vertex 2.702719820484781 2.4102064639913237 -2.85
    endloop
  endfacet
  facet normal 0 0 1
    outer loop
      vertex 2.75621598510882 2.591901236078706 -2.85
      vertex 2.0049928266648505 6.121977842724986 -2.85
      vertex 2.702719820484781 2.4102064639913237 -2.85
    endloop
  endfacet
  facet normal 0 0 1
    outer loop
      vertex 2.8120504107319655 2.837495329454839 -2.85
      vertex 2.0929236478086968 6.01648319520521 -2.85
      vertex 2.75621598510882 2.591901236078706 -2.85
    endloop
  endfacet
  facet normal 0 0 1
    outer loop
      vertex 2.869999213906285 3.0366435396353832 -2.85
      vertex 2.240221391547167 5.839108657169586 -2.85
      vertex 2.8120504107319655 2.837495329454839 -2.85
    endloop
  endfacet
  facet normal 0 0 1
    outer loop
      vertex 2.869999213906285 3.0366435396353832 -2.85
      vertex 2.8994090858009223 3.30368320726039 -2.85
      vertex 2.240221391547167 5.839108657169586 -2.85
    endloop
  endfacet
  facet normal 0 0 1
    outer loop
      vertex 2.923200778538465 3.51866319887336 -2.85
      vertex 2.240221391547167 5.839108657169586 -2.85
      vertex 2.8994090858009223 3.30368320726039 -2.85
    endloop
  endfacet
  facet normal 0 0 1
    outer loop
      vertex 2.923200778538465 3.51866319887336 -2.85
      vertex 2.8989502752892307 3.826176269277553 -2.85
      vertex 2.3420135374099083 5.672520994079869 -2.85
    endloop
  endfacet
  facet normal 0 0 1
    outer loop
      vertex 1.8359480352454542 6.271575336012603 -2.85
      vertex 2.702719820484781 2.4102064639913237 -2.85
      vertex 2.0049928266648505 6.121977842724986 -2.85
    endloop
  endfacet
  facet normal 0 0 1
    outer loop
      vertex 2.75621598510882 2.591901236078706 -2.85
      vertex 2.0929236478086968 6.01648319520521 -2.85
      vertex 2.0049928266648505 6.121977842724986 -2.85
    endloop
  endfacet
  facet normal 0 0 1
    outer loop
      vertex 2.0929236478086968 6.01648319520521 -2.85
      vertex 2.8120504107319655 2.837495329454839 -2.85
      vertex 2.240221391547167 5.839108657169586 -2.85
    endloop
  endfacet
  facet normal 0 0 1
    outer loop
      vertex 2.923200778538465 3.51866319887336 -2.85
      vertex 2.3420135374099083 5.672520994079869 -2.85
      vertex 2.240221391547167 5.839108657169586 -2.85
    endloop
  endfacet
  facet normal 0 0 1
    outer loop
      vertex 2.8989502752892307 3.826176269277553 -2.85
      vertex 2.466682552847552 5.467756967441578 -2.85
      vertex 2.3420135374099083 5.672520994079869 -2.85
    endloop
  endfacet
  facet normal 0 0 1
    outer loop
      vertex 2.8794148703723597 4.073212084437838 -2.85
      vertex 2.466682552847552 5.467756967441578 -2.85
      vertex 2.8989502752892307 3.826176269277553 -2.85
    endloop
  endfacet
  facet normal 0 0 1
    outer loop
      vertex 2.8794148703723597 4.073212084437838 -2.85
      vertex 2.8286751854828087 4.356166473209474 -2.85
      vertex 2.5404592910416204 5.279983986600998 -2.85
    endloop
  endfacet
  facet normal 0 0 1
    outer loop
      vertex 2.787748773900381 4.583669317530189 -2.85
      vertex 2.7114138885897408 4.841264510923805 -2.85
      vertex 2.8286751854828087 4.356166473209474 -2.85
    endloop
  endfacet
  facet normal 0 0 1
    outer loop
      vertex 2.7114138885897408 4.841264510923805 -2.85
      vertex 2.641420183673651 5.04852621164869 -2.85
      vertex 2.8286751854828087 4.356166473209474 -2.85
    endloop
  endfacet
  facet normal 0 0 1
    outer loop
      vertex 2.8286751854828087 4.356166473209474 -2.85
      vertex 2.641420183673651 5.04852621164869 -2.85
      vertex 2.5404592910416204 5.279983986600998 -2.85
    endloop
  endfacet
  facet normal 0 0 1
    outer loop
      vertex 2.8794148703723597 4.073212084437838 -2.85
      vertex 2.5404592910416204 5.279983986600998 -2.85
      vertex 2.466682552847552 5.467756967441578 -2.85
    endloop
  endfacet
  facet normal -0.8273410346913519 -0.5600600238423266 -0.042890348676313556
    outer loop
      vertex -3.031266871670757 1.5131508243610057 -4.35
      vertex -3.0054221594228983 1.4749720755444977 -4.35
      vertex -3.0817792362644107 1.4728969764391677 -2.85
    endloop
  endfacet
  facet normal -0.8270314219187062 -0.5605229960030396 -0.042813527195263414
    outer loop
      vertex -3.2656619794690895 1.8589923343000416 -4.35
      vertex -3.031266871670757 1.5131508243610057 -4.35
      vertex -3.200778271156306 1.6486866783702074 -2.85
    endloop
  endfacet
  facet normal -0.6735442957094352 -0.7381825628305816 -0.037743683579577934
    outer loop
      vertex -2.703377359492666 1.1239734329359226 -4.35
      vertex -2.397610588789845 0.8449808441179633 -4.35
      vertex -2.6012059212791714 0.9540527099625693 -2.85
    endloop
  endfacet
  facet normal -0.6988867860886734 -0.7139418003263054 -0.042946082213381115
    outer loop
      vertex -2.366008350661996 0.8140450078519165 -4.35
      vertex -2.455696331989448 0.8116115065517351 -2.85
      vertex -2.397610588789845 0.8449808441179633 -4.35
    endloop
  endfacet
  facet normal -0.5773048307780938 -0.815741694062183 -0.03584160890412393
    outer loop
      vertex -2.366008350661996 0.8140450078519165 -4.35
      vertex -2.0341213974670995 0.5791668071343354 -4.35
      vertex -2.2565479195044924 0.6706730925829263 -2.85
    endloop
  endfacet
  facet normal -0.7558093487105 -0.6536065829226543 -0.03937846063498781
    outer loop
      vertex -3.0054221594228983 1.4749720755444977 -4.35
      vertex -2.732151984466705 1.1589713522468774 -4.35
      vertex -2.917405322439415 1.2828203401275544 -2.85
    endloop
  endfacet
  facet normal -0.7717292356007465 -0.6345011295846501 -0.04292206279864101
    outer loop
      vertex -2.703377359492666 1.1239734329359226 -4.35
      vertex -2.7849152910082116 1.1216757401990194 -2.85
      vertex -2.732151984466705 1.1589713522468774 -4.35
    endloop
  endfacet
  facet normal -0.8887411753673874 -0.4561200655690186 -0.045755972199365114
    outer loop
      vertex -3.4756301008497346 2.2681573954602583 -4.35
      vertex -3.2864915417019995 1.899624550595058 -4.35
      vertex -3.43781969024082 2.0440110910498293 -2.85
    endloop
  endfacet
  facet normal -0.9405362843101205 -0.3362532226966332 -0.04822103402292744
    outer loop
      vertex -3.4756301008497346 2.2681573954602583 -4.35
      vertex -3.5517966148987568 2.266092936668452 -2.85
      vertex -3.4907557956325386 2.3104655840763786 -4.35
    endloop
  endfacet
  facet normal -0.9682747527851642 -0.24494399101112516 -0.04946154452067761
    outer loop
      vertex -3.628230543302952 2.6945341841487442 -4.35
      vertex -3.704331914378198 2.6924713431113516 -2.85
      vertex -3.639135653011659 2.7376425795158057 -4.35
    endloop
  endfacet
  facet normal -0.9404098787617022 -0.3366133309652746 -0.04817390729288004
    outer loop
      vertex -3.628230543302952 2.6945341841487442 -4.35
      vertex -3.4907557956325386 2.3104655840763786 -4.35
      vertex -3.621440661551077 2.4608947956287444 -2.85
    endloop
  endfacet
  facet normal -0.8889493999145968 -0.4557080202809459 -0.04581664155194225
    outer loop
      vertex -3.341912810442291 1.8569255901362762 -2.85
      vertex -3.2864915417019995 1.899624550595058 -4.35
      vertex -3.2656619794690895 1.8589923343000416 -4.35
    endloop
  endfacet
  facet normal -0.9786376210193081 -0.19808610835361945 -0.05504816439253114
    outer loop
      vertex -3.718571231752866 3.130091330464102 -4.35
      vertex -3.639135653011659 2.7376425795158057 -4.35
      vertex -3.7545426946814673 2.890956844570707 -2.85
    endloop
  endfacet
  facet normal -0.9974512929097827 -0.04439962319765899 -0.05585330547522371
    outer loop
      vertex -3.718571231752866 3.130091330464102 -4.35
      vertex -3.802457954537297 3.1276805416818707 -2.85
      vertex -3.720499602996719 3.1734127879870244 -4.35
    endloop
  endfacet
  facet normal -0.9976742168880288 -0.03811377621346316 -0.0565110344942325
    outer loop
      vertex -3.7355373949733233 3.567045191398267 -4.35
      vertex -3.720499602996719 3.1734127879870244 -4.35
      vertex -3.8113367773449753 3.32714604726978 -2.85
    endloop
  endfacet
  facet normal -0.5403581499480655 -0.8409412273201126 -0.028825717303244094
    outer loop
      vertex -1.9937136059852028 0.5532022346537745 -4.35
      vertex -2.070493260259084 0.5511211569744738 -2.85
      vertex -2.0341213974670995 0.5791668071343354 -4.35
    endloop
  endfacet
  facet normal -0.4626896266109037 -0.8861702190989726 -0.024912892420216166
    outer loop
      vertex -1.9937136059852028 0.5532022346537745 -4.35
      vertex -1.6420944121435352 0.3696138562570752 -4.35
      vertex -1.8598533976012348 0.44114129384882383 -2.85
    endloop
  endfacet
  facet normal -0.46316737231085336 -0.8859183214075215 -0.02499425976377134
    outer loop
      vertex -1.6799737748143846 0.34709834405850276 -2.85
      vertex -1.6420944121435352 0.3696138562570752 -4.35
      vertex -1.603027844960651 0.34918944598124513 -4.35
    endloop
  endfacet
  facet normal -0.324488459012732 -0.945719061237299 -0.01796377410191147
    outer loop
      vertex -1.603027844960651 0.34918944598124513 -4.35
      vertex -1.2380537429823466 0.22396210439044326 -4.35
      vertex -1.4616857419404672 0.2722008926784835 -2.85
    endloop
  endfacet
  facet normal -0.3243372810884715 -0.9457713785801116 -0.017939552804161724
    outer loop
      vertex -1.1973421877076655 0.21000072276511147 -4.35
      vertex -1.274232139925686 0.20791665551009844 -2.85
      vertex -1.2380537429823466 0.22396210439044326 -4.35
    endloop
  endfacet
  facet normal -0.1585402860113364 -0.9873068195706571 -0.009498512552907465
    outer loop
      vertex -1.1973421877076655 0.21000072276511147 -4.35
      vertex -0.8252541023314366 0.1502513618697711 -4.35
      vertex -1.0515684078626935 0.17216163886697472 -2.85
    endloop
  endfacet
  facet normal -0.16970343886853206 -0.985431415746173 -0.011210160422035122
    outer loop
      vertex -0.7860222560962743 0.1434951542708615 -4.35
      vertex -0.8709277818521632 0.14105309600593863 -2.85
      vertex -0.8252541023314366 0.1502513618697711 -4.35
    endloop
  endfacet
  facet normal 0.03459409723383094 -0.9994013902414842 0.00033108905911607555
    outer loop
      vertex -0.7860222560962743 0.1434951542708615 -4.35
      vertex -0.4130927976454205 0.1564040396026014 -4.35
      vertex -0.6473598930942154 0.14879185778631393 -2.85
    endloop
  endfacet
  facet normal 0.0353302819206439 -0.9993755911010843 0.00044619588314345494
    outer loop
      vertex -0.3839454469652162 0.15743446712748912 -4.35
      vertex -0.5131526800998711 0.15353639899093754 -2.85
      vertex -0.4130927976454205 0.1564040396026014 -4.35
    endloop
  endfacet
  facet normal -0.7558093487104998 -0.6536065829226545 -0.03937846063498784
    outer loop
      vertex -3.0054221594228983 1.4749720755444977 -4.35
      vertex -2.917405322439415 1.2828203401275544 -2.85
      vertex -3.0817792362644107 1.4728969764391677 -2.85
    endloop
  endfacet
  facet normal -0.8270314219187059 -0.5605229960030398 -0.04281352719526344
    outer loop
      vertex -3.341912810442291 1.8569255901362762 -2.85
      vertex -3.2656619794690895 1.8589923343000416 -4.35
      vertex -3.200778271156306 1.6486866783702074 -2.85
    endloop
  endfacet
  facet normal -0.8273410346913539 -0.5600600238423239 -0.04289034867631355
    outer loop
      vertex -3.0817792362644107 1.4728969764391677 -2.85
      vertex -3.200778271156306 1.6486866783702074 -2.85
      vertex -3.031266871670757 1.5131508243610057 -4.35
    endloop
  endfacet
  facet normal -0.5773048307780938 -0.815741694062183 -0.03584160890412394
    outer loop
      vertex -2.366008350661996 0.8140450078519165 -4.35
      vertex -2.2565479195044924 0.6706730925829263 -2.85
      vertex -2.455696331989448 0.8116115065517351 -2.85
    endloop
  endfacet
  facet normal -0.6988867860886695 -0.7139418003263095 -0.042946082213381045
    outer loop
      vertex -2.455696331989448 0.8116115065517351 -2.85
      vertex -2.6012059212791714 0.9540527099625693 -2.85
      vertex -2.397610588789845 0.8449808441179633 -4.35
    endloop
  endfacet
  facet normal -0.5403581499480672 -0.8409412273201116 -0.028825717303244115
    outer loop
      vertex -2.070493260259084 0.5511211569744738 -2.85
      vertex -2.2565479195044924 0.6706730925829263 -2.85
      vertex -2.0341213974670995 0.5791668071343354 -4.35
    endloop
  endfacet
  facet normal -0.7717292356007475 -0.6345011295846489 -0.04292206279864102
    outer loop
      vertex -2.7849152910082116 1.1216757401990194 -2.85
      vertex -2.917405322439415 1.2828203401275544 -2.85
      vertex -2.732151984466705 1.1589713522468774 -4.35
    endloop
  endfacet
  facet normal -0.6735442957094359 -0.738182562830581 -0.03774368357957784
    outer loop
      vertex -2.703377359492666 1.1239734329359226 -4.35
      vertex -2.6012059212791714 0.9540527099625693 -2.85
      vertex -2.7849152910082116 1.1216757401990194 -2.85
    endloop
  endfacet
  facet normal -0.8887411753673872 -0.456120065569019 -0.045755972199365176
    outer loop
      vertex -3.43781969024082 2.0440110910498293 -2.85
      vertex -3.5517966148987568 2.266092936668452 -2.85
      vertex -3.4756301008497346 2.2681573954602583 -4.35
    endloop
  endfacet
  facet normal -0.9404098787617021 -0.33661333096527474 -0.04817390729288005
    outer loop
      vertex -3.628230543302952 2.6945341841487442 -4.35
      vertex -3.621440661551077 2.4608947956287444 -2.85
      vertex -3.704331914378198 2.6924713431113516 -2.85
    endloop
  endfacet
  facet normal -0.9405362843101198 -0.3362532226966356 -0.048221034022927496
    outer loop
      vertex -3.5517966148987568 2.266092936668452 -2.85
      vertex -3.621440661551077 2.4608947956287444 -2.85
      vertex -3.4907557956325386 2.3104655840763786 -4.35
    endloop
  endfacet
  facet normal -0.8889493999145983 -0.4557080202809431 -0.04581664155194223
    outer loop
      vertex -3.341912810442291 1.8569255901362762 -2.85
      vertex -3.43781969024082 2.0440110910498293 -2.85
      vertex -3.2864915417019995 1.899624550595058 -4.35
    endloop
  endfacet
  facet normal -0.968274752785165 -0.24494399101112246 -0.04946154452067757
    outer loop
      vertex -3.704331914378198 2.6924713431113516 -2.85
      vertex -3.7545426946814673 2.890956844570707 -2.85
      vertex -3.639135653011659 2.7376425795158057 -4.35
    endloop
  endfacet
  facet normal -0.9786376210193083 -0.19808610835361917 -0.055048164392531095
    outer loop
      vertex -3.718571231752866 3.130091330464102 -4.35
      vertex -3.7545426946814673 2.890956844570707 -2.85
      vertex -3.802457954537297 3.1276805416818707 -2.85
    endloop
  endfacet
  facet normal -0.9974512929097824 -0.04439962319766763 -0.05585330547522396
    outer loop
      vertex -3.802457954537297 3.1276805416818707 -2.85
      vertex -3.8113367773449753 3.32714604726978 -2.85
      vertex -3.720499602996719 3.1734127879870244 -4.35
    endloop
  endfacet
  facet normal -0.997674216888029 -0.03811377621346206 -0.05651103449423233
    outer loop
      vertex -3.7355373949733233 3.567045191398267 -4.35
      vertex -3.8113367773449753 3.32714604726978 -2.85
      vertex -3.82040779343671 3.5645908710262777 -2.85
    endloop
  endfacet
  facet normal -0.4626896266109038 -0.8861702190989728 -0.02491289242021617
    outer loop
      vertex -1.8598533976012348 0.44114129384882383 -2.85
      vertex -2.070493260259084 0.5511211569744738 -2.85
      vertex -1.9937136059852028 0.5532022346537745 -4.35
    endloop
  endfacet
  facet normal -0.463167372310854 -0.8859183214075211 -0.024994259763771353
    outer loop
      vertex -1.6799737748143846 0.34709834405850276 -2.85
      vertex -1.8598533976012348 0.44114129384882383 -2.85
      vertex -1.6420944121435352 0.3696138562570752 -4.35
    endloop
  endfacet
  facet normal -0.324488459012732 -0.945719061237299 -0.01796377410191148
    outer loop
      vertex -1.6799737748143846 0.34709834405850276 -2.85
      vertex -1.603027844960651 0.34918944598124513 -4.35
      vertex -1.4616857419404672 0.2722008926784835 -2.85
    endloop
  endfacet
  facet normal -0.3243372810884707 -0.9457713785801118 -0.017939552804161707
    outer loop
      vertex -1.274232139925686 0.20791665551009844 -2.85
      vertex -1.4616857419404672 0.2722008926784835 -2.85
      vertex -1.2380537429823466 0.22396210439044326 -4.35
    endloop
  endfacet
  facet normal -0.15854028601133635 -0.987306819570657 -0.009498512552907476
    outer loop
      vertex -1.1973421877076655 0.21000072276511147 -4.35
      vertex -1.0515684078626935 0.17216163886697472 -2.85
      vertex -1.274232139925686 0.20791665551009844 -2.85
    endloop
  endfacet
  facet normal -0.16970343886853162 -0.9854314157461729 -0.011210160422035107
    outer loop
      vertex -0.8709277818521632 0.14105309600593863 -2.85
      vertex -1.0515684078626935 0.17216163886697472 -2.85
      vertex -0.8252541023314366 0.1502513618697711 -4.35
    endloop
  endfacet
  facet normal 0.0345940972338309 -0.999401390241484 0.0003310890591160786
    outer loop
      vertex -0.7860222560962743 0.1434951542708615 -4.35
      vertex -0.6473598930942154 0.14879185778631393 -2.85
      vertex -0.8709277818521632 0.14105309600593863 -2.85
    endloop
  endfacet
  facet normal 0.03533028192064458 -0.9993755911010844 0.0004461958831435004
    outer loop
      vertex -0.5131526800998711 0.15353639899093754 -2.85
      vertex -0.6473598930942154 0.14879185778631393 -2.85
      vertex -0.4130927976454205 0.1564040396026014 -4.35
    endloop
  endfacet
  facet normal -0.9875781538252447 0.14694868114509915 -0.05563699485807536
    outer loop
      vertex -3.7355373949733233 3.567045191398267 -4.35
      vertex -3.82040779343671 3.5645908710262777 -2.85
      vertex -3.727997531677691 3.6177173322815372 -4.35
    endloop
  endfacet
  facet normal -0.9936837767960298 0.10032613524191844 -0.050271446366683285
    outer loop
      vertex -3.681650123168964 4.076766889215111 -4.35
      vertex -3.727997531677691 3.6177173322815372 -4.35
      vertex -3.785692062504961 3.7979001950372777 -2.85
    endloop
  endfacet
  facet normal -0.9766846612360641 0.20895107839143637 -0.04925971320714753
    outer loop
      vertex -3.681650123168964 4.076766889215111 -4.35
      vertex -3.757744862914943 4.074704227929778 -2.85
      vertex -3.6716058675606136 4.123716014635907 -4.35
    endloop
  endfacet
  facet normal -0.976619889886841 0.2092462647769715 -0.049290885103637744
    outer loop
      vertex -3.5803467781939964 4.549651655128199 -4.35
      vertex -3.6716058675606136 4.123716014635907 -4.35
      vertex -3.711498427931576 4.290870538402165 -2.85
    endloop
  endfacet
  facet normal -0.9386525859264596 0.3416214976769689 -0.04718130200105721
    outer loop
      vertex -3.5803467781939964 4.549651655128199 -4.35
      vertex -3.656495346265845 4.547587682753958 -2.85
      vertex -3.5667623870547027 4.586976659432207 -4.35
    endloop
  endfacet
  facet normal -0.9452490152093838 0.3231387833331821 -0.04566865392849724
    outer loop
      vertex -3.4328133855084246 4.97880570729165 -4.35
      vertex -3.5667623870547027 4.586976659432207 -4.35
      vertex -3.593949366867171 4.719441461573761 -2.85
    endloop
  endfacet
  facet normal -0.9108178858875315 0.4106189081160277 -0.042460464493088136
    outer loop
      vertex -3.5132649280816914 4.955460442390617 -2.85
      vertex -3.4123864570942914 5.024115875395451 -4.35
      vertex -3.4328133855084246 4.97880570729165 -4.35
    endloop
  endfacet
  facet normal -0.8973847541227942 0.4389439550664894 -0.04504228433993896
    outer loop
      vertex -3.2379065250169634 5.380825722152214 -4.35
      vertex -3.4123864570942914 5.024115875395451 -4.35
      vertex -3.4192147144883487 5.164078737893351 -2.85
    endloop
  endfacet
  facet normal -0.8327513108538147 0.5520822923400033 -0.041598037884739196
    outer loop
      vertex -3.2379065250169634 5.380825722152214 -4.35
      vertex -3.3142100724749763 5.37875207777486 -2.85
      vertex -3.2143902754205205 5.416297223320636 -4.35
    endloop
  endfacet
  facet normal -0.8324302814774609 0.5525630495407186 -0.04164015804024225
    outer loop
      vertex -3.0015923317777333 5.7368750329871085 -4.35
      vertex -3.2143902754205205 5.416297223320636 -4.35
      vertex -3.205936373961054 5.542070238164127 -2.85
    endloop
  endfacet
  facet normal -0.7512780649780304 0.6589275657041141 -0.037359499971448655
    outer loop
      vertex -3.0015923317777333 5.7368750329871085 -4.35
      vertex -3.078000655327571 5.734804020058538 -2.85
      vertex -2.9740357524418704 5.768293742232848 -4.35
    endloop
  endfacet
  facet normal -0.7509019207077662 0.6593540633155899 -0.03739685369932684
    outer loop
      vertex -2.725121686461588 6.051768222235123 -4.35
      vertex -2.9740357524418704 5.768293742232848 -4.35
      vertex -2.9511250017986215 5.879461643198341 -2.85
    endloop
  endfacet
  facet normal -0.6553448519287463 0.754635044815537 -0.032389414732933976
    outer loop
      vertex -2.725121686461588 6.051768222235123 -4.35
      vertex -2.801651795815676 6.049688420754755 -2.85
      vertex -2.6937446076817992 6.079016899841824 -4.35
    endloop
  endfacet
  facet normal -0.6549030208274332 0.7550170028866081 -0.032424661343279176
    outer loop
      vertex -2.4108900192654703 6.32436544656399 -4.35
      vertex -2.6937446076817992 6.079016899841824 -4.35
      vertex -2.6571862795937338 6.175146061488126 -2.85
    endloop
  endfacet
  facet normal -0.5137433669582562 0.8575776267753945 -0.025067248765605545
    outer loop
      vertex -2.4108900192654703 6.32436544656399 -4.35
      vertex -2.487558022430785 6.322281897646762 -2.85
      vertex -2.3722888343909734 6.347490003533333 -4.35
    endloop
  endfacet
  facet normal -0.5481775670680765 0.8360601372938469 -0.022467794540597438
    outer loop
      vertex -2.0577182653667982 6.553743742357728 -4.35
      vertex -2.3722888343909734 6.347490003533333 -4.35
      vertex -2.309832075287167 6.428751007416717 -2.85
    endloop
  endfacet
  facet normal -0.42167575395554924 0.906586962339177 -0.017018761489678992
    outer loop
      vertex -2.017892069144428 6.572267879607527 -4.35
      vertex -2.0577182653667982 6.553743742357728 -4.35
      vertex -2.121491808537211 6.552239623369778 -2.85
    endloop
  endfacet
  facet normal -0.4348156538465162 0.900376449335278 -0.016049817831491713
    outer loop
      vertex -1.6737924329872715 6.7384427150271815 -4.35
      vertex -2.017892069144428 6.572267879607527 -4.35
      vertex -1.938125916476769 6.637527581388517 -2.85
    endloop
  endfacet
  facet normal -0.3550422472526827 0.9347613366817747 -0.012893646135476224
    outer loop
      vertex -1.6737924329872715 6.7384427150271815 -4.35
      vertex -1.7324532530177095 6.736852362380211 -2.85
      vertex -1.637458861385482 6.7522429786944915 -4.35
    endloop
  endfacet
  facet normal -0.3191732259297544 0.9475771422547155 -0.015033673070172995
    outer loop
      vertex -1.2658256450793903 6.877420515405461 -4.35
      vertex -1.637458861385482 6.7522429786944915 -4.35
      vertex -1.5651683914998258 6.800390712581447 -2.85
    endloop
  endfacet
  facet normal -0.20478035247781412 0.9787653636575249 -0.009130725240385352
    outer loop
      vertex -1.2658256450793903 6.877420515405461 -4.35
      vertex -1.3426614557087742 6.875337915633634 -2.85
      vertex -1.2216991716830732 6.886652794265364 -4.35
    endloop
  endfacet
  facet normal -0.20500701428525897 0.9787180383408268 -0.009117319788589887
    outer loop
      vertex -0.8246813461211983 6.969814068348393 -4.35
      vertex -1.2216991716830732 6.886652794265364 -4.35
      vertex -1.1394973301126519 6.917844549802781 -2.85
    endloop
  endfacet
  facet normal -0.09494081993362619 0.9954768650938328 -0.003471566402323151
    outer loop
      vertex -0.8246813461211983 6.969814068348393 -4.35
      vertex -0.9013063621104349 6.967737182069609 -2.85
      vertex -0.7781239164960186 6.974254352897045 -4.35
    endloop
  endfacet
  facet normal -0.09502968421207739 0.9954684050050638 -0.0034660864425369426
    outer loop
      vertex -0.3578842079708143 7.014371393873672 -4.35
      vertex -0.7781239164960186 6.974254352897045 -4.35
      vertex -0.6869498190417138 6.988180837437897 -2.85
    endloop
  endfacet
  facet normal -0.9875781538252447 0.14694868114509801 -0.05563699485807539
    outer loop
      vertex -3.82040779343671 3.5645908710262777 -2.85
      vertex -3.785692062504961 3.7979001950372777 -2.85
      vertex -3.727997531677691 3.6177173322815372 -4.35
    endloop
  endfacet
  facet normal -0.9936837767960297 0.10032613524191893 -0.050271446366683174
    outer loop
      vertex -3.681650123168964 4.076766889215111 -4.35
      vertex -3.785692062504961 3.7979001950372777 -2.85
      vertex -3.757744862914943 4.074704227929778 -2.85
    endloop
  endfacet
  facet normal -0.9766846612360623 0.20895107839144472 -0.04925971320714715
    outer loop
      vertex -3.757744862914943 4.074704227929778 -2.85
      vertex -3.711498427931576 4.290870538402165 -2.85
      vertex -3.6716058675606136 4.123716014635907 -4.35
    endloop
  endfacet
  facet normal -0.9766198898868411 0.20924626477697109 -0.04929088510363782
    outer loop
      vertex -3.5803467781939964 4.549651655128199 -4.35
      vertex -3.711498427931576 4.290870538402165 -2.85
      vertex -3.656495346265845 4.547587682753958 -2.85
    endloop
  endfacet
  facet normal -0.9386525859264585 0.341621497676972 -0.04718130200105706
    outer loop
      vertex -3.656495346265845 4.547587682753958 -2.85
      vertex -3.593949366867171 4.719441461573761 -2.85
      vertex -3.5667623870547027 4.586976659432207 -4.35
    endloop
  endfacet
  facet normal -0.9452490152093838 0.3231387833331824 -0.04566865392849717
    outer loop
      vertex -3.593949366867171 4.719441461573761 -2.85
      vertex -3.5132649280816914 4.955460442390617 -2.85
      vertex -3.4328133855084246 4.97880570729165 -4.35
    endloop
  endfacet
  facet normal -0.9108178858875318 0.41061890811602714 -0.04246046449308818
    outer loop
      vertex -3.5132649280816914 4.955460442390617 -2.85
      vertex -3.4192147144883487 5.164078737893351 -2.85
      vertex -3.4123864570942914 5.024115875395451 -4.35
    endloop
  endfacet
  facet normal -0.8973847541227944 0.4389439550664888 -0.045042284339939086
    outer loop
      vertex -3.4192147144883487 5.164078737893351 -2.85
      vertex -3.3142100724749763 5.37875207777486 -2.85
      vertex -3.2379065250169634 5.380825722152214 -4.35
    endloop
  endfacet
  facet normal -0.8327513108538137 0.5520822923400052 -0.04159803788473909
    outer loop
      vertex -3.3142100724749763 5.37875207777486 -2.85
      vertex -3.205936373961054 5.542070238164127 -2.85
      vertex -3.2143902754205205 5.416297223320636 -4.35
    endloop
  endfacet
  facet normal -0.8324302814774613 0.5525630495407182 -0.041640158040242334
    outer loop
      vertex -3.0015923317777333 5.7368750329871085 -4.35
      vertex -3.205936373961054 5.542070238164127 -2.85
      vertex -3.078000655327571 5.734804020058538 -2.85
    endloop
  endfacet
  facet normal -0.7512780649780332 0.6589275657041108 -0.037359499971448926
    outer loop
      vertex -3.078000655327571 5.734804020058538 -2.85
      vertex -2.9511250017986215 5.879461643198341 -2.85
      vertex -2.9740357524418704 5.768293742232848 -4.35
    endloop
  endfacet
  facet normal -0.7509019207077652 0.659354063315591 -0.03739685369932656
    outer loop
      vertex -2.725121686461588 6.051768222235123 -4.35
      vertex -2.9511250017986215 5.879461643198341 -2.85
      vertex -2.801651795815676 6.049688420754755 -2.85
    endloop
  endfacet
  facet normal -0.6553448519287478 0.7546350448155357 -0.032389414732934114
    outer loop
      vertex -2.801651795815676 6.049688420754755 -2.85
      vertex -2.6571862795937338 6.175146061488126 -2.85
      vertex -2.6937446076817992 6.079016899841824 -4.35
    endloop
  endfacet
  facet normal -0.6549030208274335 0.7550170028866078 -0.03242466134327924
    outer loop
      vertex -2.4108900192654703 6.32436544656399 -4.35
      vertex -2.6571862795937338 6.175146061488126 -2.85
      vertex -2.487558022430785 6.322281897646762 -2.85
    endloop
  endfacet
  facet normal -0.5137433669582554 0.8575776267753948 -0.02506724876560549
    outer loop
      vertex -2.487558022430785 6.322281897646762 -2.85
      vertex -2.309832075287167 6.428751007416717 -2.85
      vertex -2.3722888343909734 6.347490003533333 -4.35
    endloop
  endfacet
  facet normal -0.548177567068077 0.8360601372938465 -0.022467794540597528
    outer loop
      vertex -2.0577182653667982 6.553743742357728 -4.35
      vertex -2.309832075287167 6.428751007416717 -2.85
      vertex -2.121491808537211 6.552239623369778 -2.85
    endloop
  endfacet
  facet normal -0.42167575395555434 0.9065869623391747 -0.017018761489679377
    outer loop
      vertex -2.121491808537211 6.552239623369778 -2.85
      vertex -1.938125916476769 6.637527581388517 -2.85
      vertex -2.017892069144428 6.572267879607527 -4.35
    endloop
  endfacet
  facet normal -0.43481565384651566 0.9003764493352783 -0.01604981783149161
    outer loop
      vertex -1.938125916476769 6.637527581388517 -2.85
      vertex -1.7324532530177095 6.736852362380211 -2.85
      vertex -1.6737924329872715 6.7384427150271815 -4.35
    endloop
  endfacet
  facet normal -0.3550422472526781 0.9347613366817763 -0.012893646135475913
    outer loop
      vertex -1.7324532530177095 6.736852362380211 -2.85
      vertex -1.5651683914998258 6.800390712581447 -2.85
      vertex -1.637458861385482 6.7522429786944915 -4.35
    endloop
  endfacet
  facet normal -0.3191732259297548 0.9475771422547153 -0.015033673070173068
    outer loop
      vertex -1.2658256450793903 6.877420515405461 -4.35
      vertex -1.5651683914998258 6.800390712581447 -2.85
      vertex -1.3426614557087742 6.875337915633634 -2.85
    endloop
  endfacet
  facet normal -0.20478035247782178 0.9787653636575232 -0.009130725240385978
    outer loop
      vertex -1.3426614557087742 6.875337915633634 -2.85
      vertex -1.1394973301126519 6.917844549802781 -2.85
      vertex -1.2216991716830732 6.886652794265364 -4.35
    endloop
  endfacet
  facet normal -0.20500701428525908 0.9787180383408267 -0.009117319788589914
    outer loop
      vertex -0.8246813461211983 6.969814068348393 -4.35
      vertex -1.1394973301126519 6.917844549802781 -2.85
      vertex -0.9013063621104349 6.967737182069609 -2.85
    endloop
  endfacet
  facet normal -0.09494081993362555 0.9954768650938329 -0.0034715664023230977
    outer loop
      vertex -0.9013063621104349 6.967737182069609 -2.85
      vertex -0.6869498190417138 6.988180837437897 -2.85
      vertex -0.7781239164960186 6.974254352897045 -4.35
    endloop
  endfacet
  facet normal -0.095029684212074 0.9954684050050641 -0.0034660864425361967
    outer loop
      vertex -0.3578842079708143 7.014371393873672 -4.35
      vertex -0.6869498190417138 6.988180837437897 -2.85
      vertex -0.4342881043851455 7.0123005009406 -2.85
    endloop
  endfacet
  facet normal 0.1767052933504716 -0.9841823388200444 0.01266346147903384
    outer loop
      vertex -0.3839454469652162 0.15743446712748912 -4.35
      vertex 0.040717849029640756 0.23368075740731328 -4.35
      vertex -0.2582309153694087 0.19930639855435467 -2.85
    endloop
  endfacet
  facet normal 0.1406008159619179 -0.9900520015839074 0.005333358279852188
    outer loop
      vertex 0.040717849029640756 0.23368075740731328 -4.35
      vertex 0.10444198726904802 0.24273044956347967 -4.35
      vertex 0.035182098718115735 0.24097502720068067 -2.85
    endloop
  endfacet
  facet normal 0.2592826475922862 -0.9657406305057867 0.010841736383985964
    outer loop
      vertex 0.10444198726904802 0.24273044956347967 -4.35
      vertex 0.503923905684546 0.349983604499882 -4.35
      vertex 0.2756862043142239 0.3055457196681962 -2.85
    endloop
  endfacet
  facet normal 0.2724619171389508 -0.9620793406364585 0.012955540493732121
    outer loop
      vertex 0.503923905684546 0.349983604499882 -4.35
      vertex 0.5328367832909185 0.3581717629291282 -4.35
      vertex 0.4088133002506654 0.3432474582358161 -2.85
    endloop
  endfacet
  facet normal 0.34875495649237925 -0.9370107904045288 0.01951304659654555
    outer loop
      vertex 0.5328367832909185 0.3581717629291282 -4.35
      vertex 0.9052115326441793 0.49676946195187943 -4.35
      vertex 0.6332933835106374 0.42679883509556193 -2.85
    endloop
  endfacet
  facet normal 0.3272945798262254 -0.9447991361872167 0.015259432370307153
    outer loop
      vertex 0.959602466407851 0.5156114116644683 -4.35
      vertex 0.8837317556323758 0.5135549704861283 -2.85
      vertex 0.9052115326441793 0.49676946195187943 -4.35
    endloop
  endfacet
  facet normal 0.44395515541362807 -0.8957975324917611 0.021227358840264762
    outer loop
      vertex 0.959602466407851 0.5156114116644683 -4.35
      vertex 1.3031457176001413 0.6858706409460349 -4.35
      vertex 1.0913432534342424 0.6164467417057946 -2.85
    endloop
  endfacet
  facet normal 0.4492157773704939 -0.8931500982932703 0.02209269743929885
    outer loop
      vertex 1.3402763791076253 0.7045457539032394 -4.35
      vertex 1.262307571013005 0.7024343813763472 -2.85
      vertex 1.3031457176001413 0.6858706409460349 -4.35
    endloop
  endfacet
  facet normal 0.5426993735938979 -0.8394920535691255 0.0270274285695754
    outer loop
      vertex 1.3402763791076253 0.7045457539032394 -4.35
      vertex 1.6531555957410788 0.9068101519468155 -4.35
      vertex 1.4517068049639508 0.8248737126211648 -2.85
    endloop
  endfacet
  facet normal 0.5355427110589178 -0.8441135289719914 0.02581384973449973
    outer loop
      vertex 1.6880907931025042 0.9289745761198308 -4.35
      vertex 1.6125621424736511 0.926927406326506 -2.85
      vertex 1.6531555957410788 0.9068101519468155 -4.35
    endloop
  endfacet
  facet normal 0.6412803462735162 -0.7666703002729666 0.031243689965789558
    outer loop
      vertex 1.6880907931025042 0.9289745761198308 -4.35
      vertex 1.9685113970132122 1.1635320148442225 -4.35
      vertex 1.7825819021248144 1.0691402066705635 -2.85
    endloop
  endfacet
  facet normal 0.6407988115704693 -0.7670762894379339 0.031158454262130555
    outer loop
      vertex 1.9237992227785512 1.187110078108498 -2.85
      vertex 1.9685113970132122 1.1635320148442225 -4.35
      vertex 1.9991816610598767 1.1891532848825077 -4.35
    endloop
  endfacet
  facet normal 0.7349548491342149 -0.6771591040312656 0.03601274165732109
    outer loop
      vertex 1.9991816610598767 1.1891532848825077 -4.35
      vertex 2.245346284437927 1.4563281372324843 -4.35
      vertex 2.073257493845395 1.3493246601909992 -2.85
    endloop
  endfacet
  facet normal 0.7667160693314176 -0.6405935831596763 0.04226500022036973
    outer loop
      vertex 2.185009107714931 1.4830783542334447 -2.85
      vertex 2.245346284437927 1.4563281372324843 -4.35
      vertex 2.269617076420115 1.4853774544865803 -4.35
    endloop
  endfacet
  facet normal 0.818367059839638 -0.5729091409886382 0.04528213269146302
    outer loop
      vertex 2.269617076420115 1.4853774544865803 -4.35
      vertex 2.4797129242098284 1.7854870337184356 -4.35
      vertex 2.312709833478412 1.6654913408758067 -2.85
    endloop
  endfacet
  facet normal 0.7876455594897558 -0.6149245270299486 0.03850063211252037
    outer loop
      vertex 2.4303530613488302 1.8161783958933142 -2.85
      vertex 2.4797129242098284 1.7854870337184356 -4.35
      vertex 2.5052634064433748 1.8182141782531902 -4.35
    endloop
  endfacet
  facet normal 0.8875793948001598 -0.45857694902149126 0.04370354393321551
    outer loop
      vertex 2.5052634064433748 1.8182141782531902 -4.35
      vertex 2.677548674338064 2.1516737080818147 -4.35
      vertex 2.53542535061733 2.019546661826 -2.85
    endloop
  endfacet
  facet normal 0.886869776919114 -0.45996579546853156 0.04351397231283145
    outer loop
      vertex 2.6216234334255235 2.185747008078025 -2.85
      vertex 2.677548674338064 2.1516737080818147 -4.35
      vertex 2.6962697776989075 2.187770263358058 -4.35
    endloop
  endfacet
  facet normal 0.9394898286630571 -0.3394342665292935 0.04629514601316371
    outer loop
      vertex 2.6962697776989075 2.187770263358058 -4.35
      vertex 2.828910942225181 2.554895911008905 -4.35
      vertex 2.702719820484781 2.4102064639913237 -2.85
    endloop
  endfacet
  facet normal 0.9579169053371567 -0.28203827702550005 0.05338176431865145
    outer loop
      vertex 2.75621598510882 2.591901236078706 -2.85
      vertex 2.828910942225181 2.554895911008905 -4.35
      vertex 2.8405296579604236 2.594357803694093 -4.35
    endloop
  endfacet
  facet normal 0.9736755891373622 -0.22135962846427978 0.05436692012765368
    outer loop
      vertex 2.8405296579604236 2.594357803694093 -4.35
      vertex 2.931706565973319 2.9954098394292576 -4.35
      vertex 2.8120504107319655 2.837495329454839 -2.85
    endloop
  endfacet
  facet normal 0.9591092982040622 -0.2790847876257535 0.047127862400062975
    outer loop
      vertex 2.944292382221074 3.038662549444024 -4.35
      vertex 2.869999213906285 3.0366435396353832 -2.85
      vertex 2.931706565973319 2.9954098394292576 -4.35
    endloop
  endfacet
  facet normal 0.9927947734107647 -0.1093394377073497 0.049024741203897396
    outer loop
      vertex 2.992235528163569 3.473983104502806 -4.35
      vertex 2.869999213906285 3.0366435396353832 -2.85
      vertex 2.944292382221074 3.038662549444024 -4.35
    endloop
  endfacet
  facet normal 0.992739774201159 -0.10986585076556075 0.04896157222344386
    outer loop
      vertex 2.9974028400897246 3.5206745562965494 -4.35
      vertex 2.923200778538465 3.51866319887336 -2.85
      vertex 2.992235528163569 3.473983104502806 -4.35
    endloop
  endfacet
  facet normal 0.17670529335047164 -0.9841823388200445 0.012663461479033834
    outer loop
      vertex -0.3839454469652162 0.15743446712748912 -4.35
      vertex -0.2582309153694087 0.19930639855435467 -2.85
      vertex -0.5131526800998711 0.15353639899093754 -2.85
    endloop
  endfacet
  facet normal 0.1406008159619178 -0.9900520015839076 0.005333358279852188
    outer loop
      vertex 0.035182098718115735 0.24097502720068067 -2.85
      vertex -0.2582309153694087 0.19930639855435467 -2.85
      vertex 0.040717849029640756 0.23368075740731328 -4.35
    endloop
  endfacet
  facet normal 0.2592826475922862 -0.9657406305057867 0.010841736383985962
    outer loop
      vertex 0.035182098718115735 0.24097502720068067 -2.85
      vertex 0.10444198726904802 0.24273044956347967 -4.35
      vertex 0.2756862043142239 0.3055457196681962 -2.85
    endloop
  endfacet
  facet normal 0.27246191713895074 -0.9620793406364585 0.012955540493732123
    outer loop
      vertex 0.2756862043142239 0.3055457196681962 -2.85
      vertex 0.503923905684546 0.349983604499882 -4.35
      vertex 0.4088133002506654 0.3432474582358161 -2.85
    endloop
  endfacet
  facet normal 0.34875495649237903 -0.937010790404529 0.019513046596545583
    outer loop
      vertex 0.4088133002506654 0.3432474582358161 -2.85
      vertex 0.5328367832909185 0.3581717629291282 -4.35
      vertex 0.6332933835106374 0.42679883509556193 -2.85
    endloop
  endfacet
  facet normal 0.32729457982622556 -0.9447991361872164 0.015259432370307153
    outer loop
      vertex 0.8837317556323758 0.5135549704861283 -2.85
      vertex 0.6332933835106374 0.42679883509556193 -2.85
      vertex 0.9052115326441793 0.49676946195187943 -4.35
    endloop
  endfacet
  facet normal 0.44395515541362846 -0.8957975324917611 0.02122735884026472
    outer loop
      vertex 0.959602466407851 0.5156114116644683 -4.35
      vertex 1.0913432534342424 0.6164467417057946 -2.85
      vertex 0.8837317556323758 0.5135549704861283 -2.85
    endloop
  endfacet
  facet normal 0.44921577737049645 -0.8931500982932692 0.022092697439298908
    outer loop
      vertex 1.262307571013005 0.7024343813763472 -2.85
      vertex 1.0913432534342424 0.6164467417057946 -2.85
      vertex 1.3031457176001413 0.6858706409460349 -4.35
    endloop
  endfacet
  facet normal 0.5426993735938976 -0.8394920535691255 0.027027428569575428
    outer loop
      vertex 1.4517068049639508 0.8248737126211648 -2.85
      vertex 1.262307571013005 0.7024343813763472 -2.85
      vertex 1.3402763791076253 0.7045457539032394 -4.35
    endloop
  endfacet
  facet normal 0.5355427110589184 -0.8441135289719912 0.025813849734499746
    outer loop
      vertex 1.6125621424736511 0.926927406326506 -2.85
      vertex 1.4517068049639508 0.8248737126211648 -2.85
      vertex 1.6531555957410788 0.9068101519468155 -4.35
    endloop
  endfacet
  facet normal 0.6412803462735165 -0.7666703002729666 0.03124368996578954
    outer loop
      vertex 1.6880907931025042 0.9289745761198308 -4.35
      vertex 1.7825819021248144 1.0691402066705635 -2.85
      vertex 1.6125621424736511 0.926927406326506 -2.85
    endloop
  endfacet
  facet normal 0.640798811570471 -0.7670762894379324 0.031158454262130587
    outer loop
      vertex 1.9237992227785512 1.187110078108498 -2.85
      vertex 1.7825819021248144 1.0691402066705635 -2.85
      vertex 1.9685113970132122 1.1635320148442225 -4.35
    endloop
  endfacet
  facet normal 0.7349548491342143 -0.6771591040312663 0.036012741657321205
    outer loop
      vertex 1.9237992227785512 1.187110078108498 -2.85
      vertex 1.9991816610598767 1.1891532848825077 -4.35
      vertex 2.073257493845395 1.3493246601909992 -2.85
    endloop
  endfacet
  facet normal 0.7667160693314184 -0.6405935831596752 0.04226500022036976
    outer loop
      vertex 2.185009107714931 1.4830783542334447 -2.85
      vertex 2.073257493845395 1.3493246601909992 -2.85
      vertex 2.245346284437927 1.4563281372324843 -4.35
    endloop
  endfacet
  facet normal 0.8183670598396376 -0.5729091409886385 0.04528213269146307
    outer loop
      vertex 2.185009107714931 1.4830783542334447 -2.85
      vertex 2.269617076420115 1.4853774544865803 -4.35
      vertex 2.312709833478412 1.6654913408758067 -2.85
    endloop
  endfacet
  facet normal 0.7876455594897565 -0.6149245270299478 0.03850063211252038
    outer loop
      vertex 2.4303530613488302 1.8161783958933142 -2.85
      vertex 2.312709833478412 1.6654913408758067 -2.85
      vertex 2.4797129242098284 1.7854870337184356 -4.35
    endloop
  endfacet
  facet normal 0.8875793948001599 -0.45857694902149126 0.043703543933215516
    outer loop
      vertex 2.4303530613488302 1.8161783958933142 -2.85
      vertex 2.5052634064433748 1.8182141782531902 -4.35
      vertex 2.53542535061733 2.019546661826 -2.85
    endloop
  endfacet
  facet normal 0.8868697769191143 -0.45996579546853095 0.04351397231283147
    outer loop
      vertex 2.6216234334255235 2.185747008078025 -2.85
      vertex 2.53542535061733 2.019546661826 -2.85
      vertex 2.677548674338064 2.1516737080818147 -4.35
    endloop
  endfacet
  facet normal 0.939489828663057 -0.33943426652929376 0.04629514601316374
    outer loop
      vertex 2.6216234334255235 2.185747008078025 -2.85
      vertex 2.6962697776989075 2.187770263358058 -4.35
      vertex 2.702719820484781 2.4102064639913237 -2.85
    endloop
  endfacet
  facet normal 0.9579169053371565 -0.2820382770255007 0.05338176431865146
    outer loop
      vertex 2.75621598510882 2.591901236078706 -2.85
      vertex 2.702719820484781 2.4102064639913237 -2.85
      vertex 2.828910942225181 2.554895911008905 -4.35
    endloop
  endfacet
  facet normal 0.9736755891373623 -0.22135962846427987 0.05436692012765369
    outer loop
      vertex 2.8120504107319655 2.837495329454839 -2.85
      vertex 2.75621598510882 2.591901236078706 -2.85
      vertex 2.8405296579604236 2.594357803694093 -4.35
    endloop
  endfacet
  facet normal 0.9591092982040611 -0.2790847876257578 0.04712786240006305
    outer loop
      vertex 2.869999213906285 3.0366435396353832 -2.85
      vertex 2.8120504107319655 2.837495329454839 -2.85
      vertex 2.931706565973319 2.9954098394292576 -4.35
    endloop
  endfacet
  facet normal 0.9927947734107645 -0.10933943770735012 0.04902474120389726
    outer loop
      vertex 2.992235528163569 3.473983104502806 -4.35
      vertex 2.8994090858009223 3.30368320726039 -2.85
      vertex 2.869999213906285 3.0366435396353832 -2.85
    endloop
  endfacet
  facet normal 0.9927397742011593 -0.10986585076555748 0.04896157222344379
    outer loop
      vertex 2.923200778538465 3.51866319887336 -2.85
      vertex 2.8994090858009223 3.30368320726039 -2.85
      vertex 2.992235528163569 3.473983104502806 -4.35
    endloop
  endfacet
  facet normal 0.013851601823526584 0.9999018860438034 0.002086004066980619
    outer loop
      vertex -0.3578842079708143 7.014371393873672 -4.35
      vertex -0.4342881043851455 7.0123005009406 -2.85
      vertex -0.3093255306652866 7.013698712411119 -4.35
    endloop
  endfacet
  facet normal 0.013905312904629175 0.9999011479079598 0.002082470976604687
    outer loop
      vertex 0.130445361333244 7.007582955996216 -4.35
      vertex -0.3093255306652866 7.013698712411119 -4.35
      vertex -0.21071799390471802 7.009203392921066 -2.85
    endloop
  endfacet
  facet normal 0.13540931649652604 0.9907554772052444 0.008240230200197585
    outer loop
      vertex 0.05427073800999175 7.005518277406212 -2.85
      vertex 0.17559397402239865 7.001412369079805 -4.35
      vertex 0.130445361333244 7.007582955996216 -4.35
    endloop
  endfacet
  facet normal 0.13558427995493091 0.9907316358435903 0.008229748950389323
    outer loop
      vertex 0.5857501124603521 6.945281402138537 -4.35
      vertex 0.17559397402239865 7.001412369079805 -4.35
      vertex 0.2621402150820862 6.977108175763151 -2.85
    endloop
  endfacet
  facet normal 0.2667845990448897 0.9636419718936607 0.014836701700661047
    outer loop
      vertex 0.5857501124603521 6.945281402138537 -4.35
      vertex 0.5097872434833479 6.943217016125179 -2.85
      vertex 0.6273717833676875 6.93375842876413 -4.35
    endloop
  endfacet
  facet normal 0.2671693236363837 0.9635357178045705 0.014814621915819868
    outer loop
      vertex 1.0065650286017764 6.828615670706847 -4.35
      vertex 0.6273717833676875 6.93375842876413 -4.35
      vertex 0.7014184542662225 6.890163851958066 -2.85
    endloop
  endfacet
  facet normal 0.4033842264862873 0.9147750415366918 0.0216284350706061
    outer loop
      vertex 1.0065650286017764 6.828615670706847 -4.35
      vertex 0.9307960894196088 6.82656198800135 -2.85
      vertex 1.0445389292665972 6.811870490907654 -4.35
    endloop
  endfacet
  facet normal 0.40381472103487465 0.914585687863608 0.0216030236443293
    outer loop
      vertex 1.391394704618936 6.6587241318273795 -4.35
      vertex 1.0445389292665972 6.811870490907654 -4.35
      vertex 1.1056325241582408 6.74946515349416 -2.85
    endloop
  endfacet
  facet normal 0.995689792204445 0.07852016992105751 0.04936011158250395
    outer loop
      vertex 2.9974028400897246 3.5206745562965494 -4.35
      vertex 2.9579021544661446 4.021570434387713 -4.35
      vertex 2.8989502752892307 3.826176269277553 -2.85
    endloop
  endfacet
  facet normal 0.9956713104147672 0.07873693213449347 0.04938762127283003
    outer loop
      vertex 2.953659236054512 4.075224444270611 -4.35
      vertex 2.8794148703723597 4.073212084437838 -2.85
      vertex 2.9579021544661446 4.021570434387713 -4.35
    endloop
  endfacet
  facet normal 0.9831222129676008 0.1762945311095819 0.0488973687486373
    outer loop
      vertex 2.953659236054512 4.075224444270611 -4.35
      vertex 2.870982633533993 4.536277909281912 -4.35
      vertex 2.8286751854828087 4.356166473209474 -2.85
    endloop
  endfacet
  facet normal 0.9576893931507077 0.2837984242884075 0.04784851740698258
    outer loop
      vertex 2.8620937393225474 4.5856897349900345 -4.35
      vertex 2.737594008277295 5.005819170772193 -4.35
      vertex 2.7114138885897408 4.841264510923805 -2.85
    endloop
  endfacet
  facet normal 0.9830211844774529 0.1768396773688455 0.048959977293988634
    outer loop
      vertex 2.8620937393225474 4.5856897349900345 -4.35
      vertex 2.787748773900381 4.583669317530189 -2.85
      vertex 2.870982633533993 4.536277909281912 -4.35
    endloop
  endfacet
  facet normal 0.9461723354028699 0.31952891929543037 0.051567251741521755
    outer loop
      vertex 2.737594008277295 5.005819170772193 -4.35
      vertex 2.722391867732668 5.050834954801848 -4.35
      vertex 2.641420183673651 5.04852621164869 -2.85
    endloop
  endfacet
  facet normal 0.9154478768471515 0.39931445302984386 0.05003151384397026
    outer loop
      vertex 2.722391867732668 5.050834954801848 -4.35
      vertex 2.55743816309871 5.428999375196477 -4.35
      vertex 2.5404592910416204 5.279983986600998 -2.85
    endloop
  endfacet
  facet normal 0.7675571899210918 0.6397664295904107 0.0394319130854072
    outer loop
      vertex 2.0049928266648505 6.121977842724986 -2.85
      vertex 2.0734676736682793 6.132277708702794 -4.35
      vertex 2.054369503921481 6.155190660720101 -4.35
    endloop
  endfacet
  facet normal 0.538263889621682 0.8421752016944175 0.0318263221297255
    outer loop
      vertex 1.7361496653743942 6.436626281596065 -4.35
      vertex 1.4229963225681295 6.636773633367762 -4.35
      vertex 1.461299372242662 6.5556068742905005 -2.85
    endloop
  endfacet
  facet normal 0.5702278509872991 0.8209436666798973 0.029861247404827256
    outer loop
      vertex 1.391394704618936 6.6587241318273795 -4.35
      vertex 1.3158014609475441 6.656669790844198 -2.85
      vertex 1.4229963225681295 6.636773633367762 -4.35
    endloop
  endfacet
  facet normal 0.6603819211007786 0.7499380974337738 0.03858196859488682
    outer loop
      vertex 1.7762524121259715 6.401312528325165 -4.35
      vertex 1.7361496653743942 6.436626281596065 -4.35
      vertex 1.8359480352454542 6.271575336012603 -2.85
    endloop
  endfacet
  facet normal 0.6622297078685284 0.7483179054553685 0.03836829930103455
    outer loop
      vertex 2.054369503921481 6.155190660720101 -4.35
      vertex 1.7762524121259715 6.401312528325165 -4.35
      vertex 1.8359480352454542 6.271575336012603 -2.85
    endloop
  endfacet
  facet normal 0.9297162925486272 0.365289165688609 0.04681282730358842
    outer loop
      vertex 2.5414142992020756 5.469782537506257 -4.35
      vertex 2.466682552847552 5.467756967441578 -2.85
      vertex 2.55743816309871 5.428999375196477 -4.35
    endloop
  endfacet
  facet normal 0.8533449023776256 0.5195525334929942 0.04321622990418785
    outer loop
      vertex 2.5414142992020756 5.469782537506257 -4.35
      vertex 2.33734079562146 5.8049653588084045 -4.35
      vertex 2.3420135374099083 5.672520994079869 -2.85
    endloop
  endfacet
  facet normal 0.8525061130063847 0.5209174856921245 0.04333936301955283
    outer loop
      vertex 2.3152320832147546 5.841147312755245 -4.35
      vertex 2.240221391547167 5.839108657169586 -2.85
      vertex 2.33734079562146 5.8049653588084045 -4.35
    endloop
  endfacet
  facet normal 0.7687227323230935 0.6383730454532441 0.03930923108466697
    outer loop
      vertex 2.3152320832147546 5.841147312755245 -4.35
      vertex 2.0734676736682793 6.132277708702794 -4.35
      vertex 2.0929236478086968 6.01648319520521 -2.85
    endloop
  endfacet
  facet normal 0.013851601823512352 0.9999018860438035 0.002086004066979434
    outer loop
      vertex -0.4342881043851455 7.0123005009406 -2.85
      vertex -0.21071799390471802 7.009203392921066 -2.85
      vertex -0.3093255306652866 7.013698712411119 -4.35
    endloop
  endfacet
  facet normal 0.013905312904631565 0.9999011479079599 0.00208247097660523
    outer loop
      vertex -0.21071799390471802 7.009203392921066 -2.85
      vertex 0.05427073800999175 7.005518277406212 -2.85
      vertex 0.130445361333244 7.007582955996216 -4.35
    endloop
  endfacet
  facet normal 0.13540931649651622 0.9907554772052457 0.008240230200196789
    outer loop
      vertex 0.05427073800999175 7.005518277406212 -2.85
      vertex 0.2621402150820862 6.977108175763151 -2.85
      vertex 0.17559397402239865 7.001412369079805 -4.35
    endloop
  endfacet
  facet normal 0.13558427995493372 0.9907316358435899 0.008229748950389934
    outer loop
      vertex 0.5857501124603521 6.945281402138537 -4.35
      vertex 0.2621402150820862 6.977108175763151 -2.85
      vertex 0.5097872434833479 6.943217016125179 -2.85
    endloop
  endfacet
  facet normal 0.2667845990448847 0.9636419718936622 0.014836701700660654
    outer loop
      vertex 0.5097872434833479 6.943217016125179 -2.85
      vertex 0.7014184542662225 6.890163851958066 -2.85
      vertex 0.6273717833676875 6.93375842876413 -4.35
    endloop
  endfacet
  facet normal 0.40338422648628036 0.9147750415366951 0.02162843507060554
    outer loop
      vertex 0.9307960894196088 6.82656198800135 -2.85
      vertex 1.1056325241582408 6.74946515349416 -2.85
      vertex 1.0445389292665972 6.811870490907654 -4.35
    endloop
  endfacet
  facet normal 0.26716932363638274 0.9635357178045705 0.014814621915819674
    outer loop
      vertex 1.0065650286017764 6.828615670706847 -4.35
      vertex 0.7014184542662225 6.890163851958066 -2.85
      vertex 0.9307960894196088 6.82656198800135 -2.85
    endloop
  endfacet
  facet normal 0.4038147210348744 0.9145856878636082 0.021603023644329245
    outer loop
      vertex 1.391394704618936 6.6587241318273795 -4.35
      vertex 1.1056325241582408 6.74946515349416 -2.85
      vertex 1.3158014609475441 6.656669790844198 -2.85
    endloop
  endfacet
  facet normal 0.9956897922044452 0.07852016992105697 0.04936011158250406
    outer loop
      vertex 2.9974028400897246 3.5206745562965494 -4.35
      vertex 2.8989502752892307 3.826176269277553 -2.85
      vertex 2.923200778538465 3.51866319887336 -2.85
    endloop
  endfacet
  facet normal 0.9956713104147674 0.07873693213449108 0.049387621272830105
    outer loop
      vertex 2.8794148703723597 4.073212084437838 -2.85
      vertex 2.8989502752892307 3.826176269277553 -2.85
      vertex 2.9579021544661446 4.021570434387713 -4.35
    endloop
  endfacet
  facet normal 0.9831222129676007 0.17629453110958213 0.04889736874863725
    outer loop
      vertex 2.953659236054512 4.075224444270611 -4.35
      vertex 2.8286751854828087 4.356166473209474 -2.85
      vertex 2.8794148703723597 4.073212084437838 -2.85
    endloop
  endfacet
  facet normal 0.9830211844774529 0.1768396773688461 0.04895997729398862
    outer loop
      vertex 2.787748773900381 4.583669317530189 -2.85
      vertex 2.8286751854828087 4.356166473209474 -2.85
      vertex 2.870982633533993 4.536277909281912 -4.35
    endloop
  endfacet
  facet normal 0.9576893931507078 0.2837984242884071 0.04784851740698266
    outer loop
      vertex 2.8620937393225474 4.5856897349900345 -4.35
      vertex 2.7114138885897408 4.841264510923805 -2.85
      vertex 2.787748773900381 4.583669317530189 -2.85
    endloop
  endfacet
  facet normal 0.9461723354028693 0.3195289192954323 0.05156725174152166
    outer loop
      vertex 2.737594008277295 5.005819170772193 -4.35
      vertex 2.641420183673651 5.04852621164869 -2.85
      vertex 2.7114138885897408 4.841264510923805 -2.85
    endloop
  endfacet
  facet normal 0.9154478768471508 0.3993144530298452 0.05003151384396998
    outer loop
      vertex 2.722391867732668 5.050834954801848 -4.35
      vertex 2.5404592910416204 5.279983986600998 -2.85
      vertex 2.641420183673651 5.04852621164869 -2.85
    endloop
  endfacet
  facet normal 0.7675571899210966 0.6397664295904051 0.03943191308540738
    outer loop
      vertex 2.0049928266648505 6.121977842724986 -2.85
      vertex 2.0929236478086968 6.01648319520521 -2.85
      vertex 2.0734676736682793 6.132277708702794 -4.35
    endloop
  endfacet
  facet normal 0.5382638896216817 0.8421752016944177 0.03182632212972541
    outer loop
      vertex 1.7361496653743942 6.436626281596065 -4.35
      vertex 1.461299372242662 6.5556068742905005 -2.85
      vertex 1.6513094714055518 6.434164714942844 -2.85
    endloop
  endfacet
  facet normal 0.5702278509873051 0.8209436666798932 0.029861247404827745
    outer loop
      vertex 1.3158014609475441 6.656669790844198 -2.85
      vertex 1.461299372242662 6.5556068742905005 -2.85
      vertex 1.4229963225681295 6.636773633367762 -4.35
    endloop
  endfacet
  facet normal 0.6603819211007788 0.7499380974337736 0.038581968594886794
    outer loop
      vertex 1.7361496653743942 6.436626281596065 -4.35
      vertex 1.6513094714055518 6.434164714942844 -2.85
      vertex 1.8359480352454542 6.271575336012603 -2.85
    endloop
  endfacet
  facet normal 0.6622297078685284 0.7483179054553684 0.03836829930103454
    outer loop
      vertex 2.054369503921481 6.155190660720101 -4.35
      vertex 1.8359480352454542 6.271575336012603 -2.85
      vertex 2.0049928266648505 6.121977842724986 -2.85
    endloop
  endfacet
  facet normal 0.9297162925486245 0.36528916568861586 0.046812827303588087
    outer loop
      vertex 2.466682552847552 5.467756967441578 -2.85
      vertex 2.5404592910416204 5.279983986600998 -2.85
      vertex 2.55743816309871 5.428999375196477 -4.35
    endloop
  endfacet
  facet normal 0.8533449023776262 0.5195525334929934 0.04321622990418807
    outer loop
      vertex 2.5414142992020756 5.469782537506257 -4.35
      vertex 2.3420135374099083 5.672520994079869 -2.85
      vertex 2.466682552847552 5.467756967441578 -2.85
    endloop
  endfacet
  facet normal 0.7687227323230937 0.6383730454532439 0.03930923108466702
    outer loop
      vertex 2.0929236478086968 6.01648319520521 -2.85
      vertex 2.240221391547167 5.839108657169586 -2.85
      vertex 2.3152320832147546 5.841147312755245 -4.35
    endloop
  endfacet
  facet normal 0.8525061130063789 0.5209174856921339 0.04333936301955224
    outer loop
      vertex 2.240221391547167 5.839108657169586 -2.85
      vertex 2.3420135374099083 5.672520994079869 -2.85
      vertex 2.33734079562146 5.8049653588084045 -4.35
    endloop
  endfacet
endsolid OpenSCAD_Model
