solid OpenSCAD_Model
  facet normal 0 0 -1
    outer loop
      vertex -1.8370149239455824 6.537468087595613 -4.35
      vertex -2.606841532204893 1.6592404264843794 -4.35
      vertex -2.800234264977226 1.980928629096504 -4.35
    endloop
  endfacet
  facet normal 0 0 -1
    outer loop
      vertex -1.8370149239455824 6.537468087595613 -4.35
      vertex -2.800234264977226 1.980928629096504 -4.35
      vertex -2.821239483466498 2.015745525758389 -4.35
    endloop
  endfacet
  facet normal 0 0 -1
    outer loop
      vertex -1.697838161717701 0.8045849485195042 -4.35
      vertex -1.7341257249472537 0.8244537373737791 -4.35
      vertex -1.8068903826402944 6.561409773120927 -4.35
    endloop
  endfacet
  facet normal 0 0 -1
    outer loop
      vertex -1.8370149239455824 6.537468087595613 -4.35
      vertex -2.350261831476649 1.3422637979758756 -4.35
      vertex -2.5792389772136723 1.6282274566982697 -4.35
    endloop
  endfacet
  facet normal 0 0 -1
    outer loop
      vertex -1.8370149239455824 6.537468087595613 -4.35
      vertex -2.3241712668416485 1.31483728553218 -4.35
      vertex -2.350261831476649 1.3422637979758756 -4.35
    endloop
  endfacet
  facet normal 0 0 -1
    outer loop
      vertex -1.8370149239455824 6.537468087595613 -4.35
      vertex -2.0290740505650087 1.0404686446639484 -4.35
      vertex -2.061329827508625 1.0640624887774883 -4.35
    endloop
  endfacet
  facet normal 0 0 -1
    outer loop
      vertex -1.8370149239455824 6.537468087595613 -4.35
      vertex -2.061329827508625 1.0640624887774883 -4.35
      vertex -2.3241712668416485 1.31483728553218 -4.35
    endloop
  endfacet
  facet normal 0 0 -1
    outer loop
      vertex -1.8370149239455824 6.537468087595613 -4.35
      vertex -2.5792389772136723 1.6282274566982697 -4.35
      vertex -2.606841532204893 1.6592404264843794 -4.35
    endloop
  endfacet
  facet normal 0 0 -1
    outer loop
      vertex -2.0290740505650087 1.0404686446639484 -4.35
      vertex -1.8068903826402944 6.561409773120927 -4.35
      vertex -1.7341257249472537 0.8244537373737791 -4.35
    endloop
  endfacet
  facet normal 0 0 -1
    outer loop
      vertex -1.697838161717701 0.8045849485195042 -4.35
      vertex -1.4337946601631355 6.755730776829678 -4.35
      vertex -1.3725800580310636 0.6228804269057244 -4.35
    endloop
  endfacet
  facet normal 0 0 -1
    outer loop
      vertex -1.3725800580310636 0.6228804269057244 -4.35
      vertex -0.084131119936412 7.028945993871258 -4.35
      vertex -1.334326582889176 0.6066347907119898 -4.35
    endloop
  endfacet
  facet normal 0 0 -1
    outer loop
      vertex 0.33780944024436127 7.015949254525902 -4.35
      vertex -0.9805383396762886 0.4588414357422795 -4.35
      vertex -1.334326582889176 0.6066347907119898 -4.35
    endloop
  endfacet
  facet normal 0 0 -1
    outer loop
      vertex 0.33780944024436127 7.015949254525902 -4.35
      vertex -0.9250487778337055 0.4435425506464314 -4.35
      vertex -0.9805383396762886 0.4588414357422795 -4.35
    endloop
  endfacet
  facet normal 0 0 -1
    outer loop
      vertex 0.33780944024436127 7.015949254525902 -4.35
      vertex -0.5445356155761802 0.32921677686390566 -4.35
      vertex -0.9250487778337055 0.4435425506464314 -4.35
    endloop
  endfacet
  facet normal 0 0 -1
    outer loop
      vertex 0.33780944024436127 7.015949254525902 -4.35
      vertex -0.515157882250548 0.3229051149620585 -4.35
      vertex -0.5445356155761802 0.32921677686390566 -4.35
    endloop
  endfacet
  facet normal 0 0 -1
    outer loop
      vertex 0.33780944024436127 7.015949254525902 -4.35
      vertex -0.10960032821017714 0.24158195931149554 -4.35
      vertex -0.515157882250548 0.3229051149620585 -4.35
    endloop
  endfacet
  facet normal 0 0 -1
    outer loop
      vertex 0.33780944024436127 7.015949254525902 -4.35
      vertex -0.04542840744724714 0.23665459458243673 -4.35
      vertex -0.10960032821017714 0.24158195931149554 -4.35
    endloop
  endfacet
  facet normal 0 0 1
    outer loop
      vertex -2.978619613152027 2.656669435618632 -2.85
      vertex -2.907084344763231 2.4151751953694522 -2.85
      vertex -3.0958159608925664 3.116278357664413 -2.85
    endloop
  endfacet
  facet normal 0 0 1
    outer loop
      vertex -2.8419988449809366 2.237312204046641 -2.85
      vertex -2.746619873933058 2.0185448985283476 -2.85
      vertex -3.1253975205160773 3.8854927569270425 -2.85
    endloop
  endfacet
  facet normal 0 0 1
    outer loop
      vertex -3.1253975205160773 3.8854927569270425 -2.85
      vertex -2.746619873933058 2.0185448985283476 -2.85
      vertex -2.6499033859698686 1.8582338801671419 -2.85
    endloop
  endfacet
  facet normal 0 0 1
    outer loop
      vertex -2.4048636936598538 1.5192469521856649 -2.85
      vertex -3.0667665482267172 4.400786885356807 -2.85
      vertex -2.5319580175155068 1.6620443282609993 -2.85
    endloop
  endfacet
  facet normal 0 0 1
    outer loop
      vertex -2.6499033859698686 1.8582338801671419 -2.85
      vertex -2.5319580175155068 1.6620443282609993 -2.85
      vertex -3.092969391406461 4.171119254365843 -2.85
    endloop
  endfacet
  facet normal 0 0 1
    outer loop
      vertex -2.4048636936598538 1.5192469521856649 -2.85
      vertex -2.265686233448695 1.345431807422778 -2.85
      vertex -3.007177306756013 4.662766081219596 -2.85
    endloop
  endfacet
  facet normal 0 0 1
    outer loop
      vertex -2.1455529012336476 1.2191471379649705 -2.85
      vertex -1.98596897958684 1.066889466504005 -2.85
      vertex -2.9506671320634816 4.874104210005536 -2.85
    endloop
  endfacet
  facet normal 0 0 1
    outer loop
      vertex -2.1455529012336476 1.2191471379649705 -2.85
      vertex -2.9506671320634816 4.874104210005536 -2.85
      vertex -2.265686233448695 1.345431807422778 -2.85
    endloop
  endfacet
  facet normal 0 0 1
    outer loop
      vertex -2.978619613152027 2.656669435618632 -2.85
      vertex -3.0958159608925664 3.116278357664413 -2.85
      vertex -3.049270750083243 2.851681590889697 -2.85
    endloop
  endfacet
  facet normal 0 0 1
    outer loop
      vertex -3.0958159608925664 3.116278357664413 -2.85
      vertex -2.907084344763231 2.4151751953694522 -2.85
      vertex -3.128979529171773 3.637712756575021 -2.85
    endloop
  endfacet
  facet normal 0 0 1
    outer loop
      vertex -2.8419988449809366 2.237312204046641 -2.85
      vertex -3.128979529171773 3.637712756575021 -2.85
      vertex -2.907084344763231 2.4151751953694522 -2.85
    endloop
  endfacet
  facet normal 0 0 1
    outer loop
      vertex -3.0958159608925664 3.116278357664413 -2.85
      vertex -3.128979529171773 3.637712756575021 -2.85
      vertex -3.133388104589142 3.329277597494109 -2.85
    endloop
  endfacet
  facet normal 0 0 1
    outer loop
      vertex -2.8419988449809366 2.237312204046641 -2.85
      vertex -3.1253975205160773 3.8854927569270425 -2.85
      vertex -3.128979529171773 3.637712756575021 -2.85
    endloop
  endfacet
  facet normal 0 0 1
    outer loop
      vertex -3.1253975205160773 3.8854927569270425 -2.85
      vertex -2.6499033859698686 1.8582338801671419 -2.85
      vertex -3.092969391406461 4.171119254365843 -2.85
    endloop
  endfacet
  facet normal 0 0 1
    outer loop
      vertex -3.092969391406461 4.171119254365843 -2.85
      vertex -2.5319580175155068 1.6620443282609993 -2.85
      vertex -3.0667665482267172 4.400786885356807 -2.85
    endloop
  endfacet
  facet normal 0 0 1
    outer loop
      vertex -2.4048636936598538 1.5192469521856649 -2.85
      vertex -3.007177306756013 4.662766081219596 -2.85
      vertex -3.0667665482267172 4.400786885356807 -2.85
    endloop
  endfacet
  facet normal 0 0 1
    outer loop
      vertex -1.8700161314797428 6.4540183128063635 -2.85
      vertex -1.8374471521596416 0.958251536315536 -2.85
      vertex -1.658618731063648 0.8272807816147232 -2.85
    endloop
  endfacet
  facet normal 0 0 1
    outer loop
      vertex -1.8700161314797428 6.4540183128063635 -2.85
      vertex -1.658618731063648 0.8272807816147232 -2.85
      vertex -1.4915316622621742 0.735794404607393 -2.85
    endloop
  endfacet
  facet normal 0 0 1
    outer loop
      vertex -1.8700161314797428 6.4540183128063635 -2.85
      vertex -1.4915316622621742 0.735794404607393 -2.85
      vertex -1.2946383763103377 0.625800526123395 -2.85
    endloop
  endfacet
  facet normal 0 0 1
    outer loop
      vertex -1.8374471521596416 0.958251536315536 -2.85
      vertex -2.051818912884471 6.320606723514061 -2.85
      vertex -1.98596897958684 1.066889466504005 -2.85
    endloop
  endfacet
  facet normal 0 0 1
    outer loop
      vertex -1.8700161314797428 6.4540183128063635 -2.85
      vertex -1.118498274235639 0.5509966551856811 -2.85
      vertex -0.9046948284258985 0.46168128316159684 -2.85
    endloop
  endfacet
  facet normal 0 0 1
    outer loop
      vertex -1.8700161314797428 6.4540183128063635 -2.85
      vertex -1.2946383763103377 0.625800526123395 -2.85
      vertex -1.118498274235639 0.5509966551856811 -2.85
    endloop
  endfacet
  facet normal 0 0 1
    outer loop
      vertex -1.8700161314797428 6.4540183128063635 -2.85
      vertex -0.9046948284258985 0.46168128316159684 -2.85
      vertex -0.6491893828123516 0.3912365305990462 -2.85
    endloop
  endfacet
  facet normal 0 0 1
    outer loop
      vertex -0.4198024832365928 0.32231687842726503 -2.85
      vertex -1.8700161314797428 6.4540183128063635 -2.85
      vertex -0.6491893828123516 0.3912365305990462 -2.85
    endloop
  endfacet
  facet normal 0 0 1
    outer loop
      vertex -0.2845304383966704 0.29325434312757376 -2.85
      vertex -0.0077546091585389935 7.031805798664749 -2.85
      vertex -0.4198024832365928 0.32231687842726503 -2.85
    endloop
  endfacet
  facet normal 0 0 1
    outer loop
      vertex -0.0077546091585389935 7.031805798664749 -2.85
      vertex -0.2845304383966704 0.29325434312757376 -2.85
      vertex -0.04036776066267322 0.2442943884981908 -2.85
    endloop
  endfacet
  facet normal 0 0 1
    outer loop
      vertex 0.25511811120842703 0.22160585672786068 -2.85
      vertex -0.0077546091585389935 7.031805798664749 -2.85
      vertex -0.04036776066267322 0.2442943884981908 -2.85
    endloop
  endfacet
  facet normal 0 0 -1
    outer loop
      vertex -3.1081927518901256 2.8065466205786422 -4.35
      vertex -3.123537284093602 2.8489007910365007 -4.35
      vertex -2.1743904101804303 6.2797689599648905 -4.35
    endloop
  endfacet
  facet normal 0 0 -1
    outer loop
      vertex -3.1994139423089343 3.2802387974254543 -4.35
      vertex -2.1743904101804303 6.2797689599648905 -4.35
      vertex -3.123537284093602 2.8489007910365007 -4.35
    endloop
  endfacet
  facet normal 0 0 -1
    outer loop
      vertex -3.1994139423089343 3.2802387974254543 -4.35
      vertex -3.2075742195689863 3.326500008050738 -4.35
      vertex -2.1743904101804303 6.2797689599648905 -4.35
    endloop
  endfacet
  facet normal 0 0 -1
    outer loop
      vertex -2.9772410434590797 2.3735606768475725 -4.35
      vertex -2.991376667248728 2.412189931287509 -4.35
      vertex -2.1743904101804303 6.2797689599648905 -4.35
    endloop
  endfacet
  facet normal 0 0 -1
    outer loop
      vertex -3.1081927518901256 2.8065466205786422 -4.35
      vertex -2.1743904101804303 6.2797689599648905 -4.35
      vertex -2.991376667248728 2.412189931287509 -4.35
    endloop
  endfacet
  facet normal 0 0 -1
    outer loop
      vertex -2.9772410434590797 2.3735606768475725 -4.35
      vertex -1.8370149239455824 6.537468087595613 -4.35
      vertex -2.821239483466498 2.015745525758389 -4.35
    endloop
  endfacet
  facet normal 0 0 -1
    outer loop
      vertex -3.2003932648786932 3.828897878693317 -4.35
      vertex -2.1743904101804303 6.2797689599648905 -4.35
      vertex -3.2075742195689863 3.326500008050738 -4.35
    endloop
  endfacet
  facet normal 0 0 -1
    outer loop
      vertex -3.2003932648786932 3.828897878693317 -4.35
      vertex -3.1996152802308706 3.8827137833547654 -4.35
      vertex -2.1743904101804303 6.2797689599648905 -4.35
    endloop
  endfacet
  facet normal 0 0 -1
    outer loop
      vertex -3.146775988909251 4.348121505654332 -4.35
      vertex -2.1743904101804303 6.2797689599648905 -4.35
      vertex -3.1996152802308706 3.8827137833547654 -4.35
    endloop
  endfacet
  facet normal 0 0 -1
    outer loop
      vertex -3.146775988909251 4.348121505654332 -4.35
      vertex -3.141084864687236 4.39800414658682 -4.35
      vertex -2.1743904101804303 6.2797689599648905 -4.35
    endloop
  endfacet
  facet normal 0 0 -1
    outer loop
      vertex -3.043896624456244 4.825284246058336 -4.35
      vertex -2.1743904101804303 6.2797689599648905 -4.35
      vertex -3.141084864687236 4.39800414658682 -4.35
    endloop
  endfacet
  facet normal 0 0 -1
    outer loop
      vertex -3.043896624456244 4.825284246058336 -4.35
      vertex -3.0316227944276117 4.871186214781689 -4.35
      vertex -2.436075204168605 6.016254096752226 -4.35
    endloop
  endfacet
  facet normal 0 0 -1
    outer loop
      vertex -2.9772410434590797 2.3735606768475725 -4.35
      vertex -2.1743904101804303 6.2797689599648905 -4.35
      vertex -2.1366428810269684 6.317593332975419 -4.35
    endloop
  endfacet
  facet normal 0 0 -1
    outer loop
      vertex -2.9772410434590797 2.3735606768475725 -4.35
      vertex -2.1366428810269684 6.317593332975419 -4.35
      vertex -1.8370149239455824 6.537468087595613 -4.35
    endloop
  endfacet
  facet normal 0 0 -1
    outer loop
      vertex -2.0290740505650087 1.0404686446639484 -4.35
      vertex -1.8370149239455824 6.537468087595613 -4.35
      vertex -1.8068903826402944 6.561409773120927 -4.35
    endloop
  endfacet
  facet normal 0 0 -1
    outer loop
      vertex -1.697838161717701 0.8045849485195042 -4.35
      vertex -1.8068903826402944 6.561409773120927 -4.35
      vertex -1.4706139442232218 6.736576627691985 -4.35
    endloop
  endfacet
  facet normal 0 0 -1
    outer loop
      vertex -1.697838161717701 0.8045849485195042 -4.35
      vertex -1.4706139442232218 6.736576627691985 -4.35
      vertex -1.4337946601631355 6.755730776829678 -4.35
    endloop
  endfacet
  facet normal 0 0 -1
    outer loop
      vertex -3.0316227944276117 4.871186214781689 -4.35
      vertex -2.8913559451040594 5.2591854944657666 -4.35
      vertex -2.4536596279826832 5.99215963678909 -4.35
    endloop
  endfacet
  facet normal 0 0 -1
    outer loop
      vertex -2.6959250937825745 5.648534143115148 -4.35
      vertex -2.8913559451040594 5.2591854944657666 -4.35
      vertex -2.8779903774228335 5.300916507104624 -4.35
    endloop
  endfacet
  facet normal 0 0 -1
    outer loop
      vertex -2.6959250937825745 5.648534143115148 -4.35
      vertex -2.4536596279826832 5.99215963678909 -4.35
      vertex -2.8913559451040594 5.2591854944657666 -4.35
    endloop
  endfacet
  facet normal 0 0 -1
    outer loop
      vertex -3.0316227944276117 4.871186214781689 -4.35
      vertex -2.4536596279826832 5.99215963678909 -4.35
      vertex -2.436075204168605 6.016254096752226 -4.35
    endloop
  endfacet
  facet normal 0 0 -1
    outer loop
      vertex -3.043896624456244 4.825284246058336 -4.35
      vertex -2.436075204168605 6.016254096752226 -4.35
      vertex -2.1743904101804303 6.2797689599648905 -4.35
    endloop
  endfacet
  facet normal 0 0 -1
    outer loop
      vertex -2.6959250937825745 5.648534143115148 -4.35
      vertex -2.6761916018621874 5.686066562526605 -4.35
      vertex -2.4536596279826832 5.99215963678909 -4.35
    endloop
  endfacet
  facet normal 0 0 -1
    outer loop
      vertex -1.3725800580310636 0.6228804269057244 -4.35
      vertex -1.4337946601631355 6.755730776829678 -4.35
      vertex -1.0621668701392566 6.88506135225445 -4.35
    endloop
  endfacet
  facet normal 0 0 -1
    outer loop
      vertex -1.3725800580310636 0.6228804269057244 -4.35
      vertex -1.0621668701392566 6.88506135225445 -4.35
      vertex -1.021370513218784 6.899241704712716 -4.35
    endloop
  endfacet
  facet normal 0 0 -1
    outer loop
      vertex -1.3725800580310636 0.6228804269057244 -4.35
      vertex -1.021370513218784 6.899241704712716 -4.35
      vertex -0.6156710725997617 6.981671093700136 -4.35
    endloop
  endfacet
  facet normal 0 0 -1
    outer loop
      vertex -1.3725800580310636 0.6228804269057244 -4.35
      vertex -0.6156710725997617 6.981671093700136 -4.35
      vertex -0.5710111297187518 6.990735604519135 -4.35
    endloop
  endfacet
  facet normal 0 0 -1
    outer loop
      vertex -1.3725800580310636 0.6228804269057244 -4.35
      vertex -0.5710111297187518 6.990735604519135 -4.35
      vertex -0.13254864069053104 7.025148532675075 -4.35
    endloop
  endfacet
  facet normal 0 0 -1
    outer loop
      vertex -0.084131119936412 7.028945993871258 -4.35
      vertex -1.3725800580310636 0.6228804269057244 -4.35
      vertex -0.13254864069053104 7.025148532675075 -4.35
    endloop
  endfacet
  facet normal 0 0 -1
    outer loop
      vertex 0.33780944024436127 7.015949254525902 -4.35
      vertex -1.334326582889176 0.6066347907119898 -4.35
      vertex -0.084131119936412 7.028945993871258 -4.35
    endloop
  endfacet
  facet normal 0 0 1
    outer loop
      vertex -3.007177306756013 4.662766081219596 -2.85
      vertex -2.265686233448695 1.345431807422778 -2.85
      vertex -2.9506671320634816 4.874104210005536 -2.85
    endloop
  endfacet
  facet normal 0 0 1
    outer loop
      vertex -2.9506671320634816 4.874104210005536 -2.85
      vertex -1.98596897958684 1.066889466504005 -2.85
      vertex -2.8648161164741546 5.111581079055107 -2.85
    endloop
  endfacet
  facet normal 0 0 1
    outer loop
      vertex -1.98596897958684 1.066889466504005 -2.85
      vertex -2.803280062241981 5.3037137230366564 -2.85
      vertex -2.8648161164741546 5.111581079055107 -2.85
    endloop
  endfacet
  facet normal 0 0 1
    outer loop
      vertex -1.98596897958684 1.066889466504005 -2.85
      vertex -2.6920561514161396 5.516073774201154 -2.85
      vertex -2.803280062241981 5.3037137230366564 -2.85
    endloop
  endfacet
  facet normal 0 0 1
    outer loop
      vertex -1.98596897958684 1.066889466504005 -2.85
      vertex -2.6012024251112047 5.68887442066189 -2.85
      vertex -2.6920561514161396 5.516073774201154 -2.85
    endloop
  endfacet
  facet normal 0 0 1
    outer loop
      vertex -1.98596897958684 1.066889466504005 -2.85
      vertex -2.4656225985484093 5.875364681800956 -2.85
      vertex -2.6012024251112047 5.68887442066189 -2.85
    endloop
  endfacet
  facet normal 0 0 1
    outer loop
      vertex -1.98596897958684 1.066889466504005 -2.85
      vertex -2.384663869001938 5.98629563344022 -2.85
      vertex -2.4656225985484093 5.875364681800956 -2.85
    endloop
  endfacet
  facet normal 0 0 1
    outer loop
      vertex -1.98596897958684 1.066889466504005 -2.85
      vertex -2.225607410194585 6.146464439380105 -2.85
      vertex -2.384663869001938 5.98629563344022 -2.85
    endloop
  endfacet
  facet normal 0 0 1
    outer loop
      vertex -1.98596897958684 1.066889466504005 -2.85
      vertex -2.051818912884471 6.320606723514061 -2.85
      vertex -2.225607410194585 6.146464439380105 -2.85
    endloop
  endfacet
  facet normal 0 0 1
    outer loop
      vertex -1.8374471521596416 0.958251536315536 -2.85
      vertex -1.8700161314797428 6.4540183128063635 -2.85
      vertex -2.051818912884471 6.320606723514061 -2.85
    endloop
  endfacet
  facet normal 0 0 1
    outer loop
      vertex -0.4198024832365928 0.32231687842726503 -2.85
      vertex -1.7313242243513876 6.5642446558972765 -2.85
      vertex -1.8700161314797428 6.4540183128063635 -2.85
    endloop
  endfacet
  facet normal 0 0 1
    outer loop
      vertex -0.4198024832365928 0.32231687842726503 -2.85
      vertex -1.5275663300469386 6.670382420432136 -2.85
      vertex -1.7313242243513876 6.5642446558972765 -2.85
    endloop
  endfacet
  facet normal 0 0 1
    outer loop
      vertex -0.4198024832365928 0.32231687842726503 -2.85
      vertex -1.3580528590073075 6.758566815865855 -2.85
      vertex -1.5275663300469386 6.670382420432136 -2.85
    endloop
  endfacet
  facet normal 0 0 1
    outer loop
      vertex -0.4198024832365928 0.32231687842726503 -2.85
      vertex -1.1332525439612189 6.836799808341236 -2.85
      vertex -1.3580528590073075 6.758566815865855 -2.85
    endloop
  endfacet
  facet normal 0 0 1
    outer loop
      vertex -0.4198024832365928 0.32231687842726503 -2.85
      vertex -0.9454294228298661 6.902085001885504 -2.85
      vertex -1.1332525439612189 6.836799808341236 -2.85
    endloop
  endfacet
  facet normal 0 0 1
    outer loop
      vertex -0.4198024832365928 0.32231687842726503 -2.85
      vertex -0.7004743038565027 6.951854606584753 -2.85
      vertex -0.9454294228298661 6.902085001885504 -2.85
    endloop
  endfacet
  facet normal 0 0 1
    outer loop
      vertex -0.4198024832365928 0.32231687842726503 -2.85
      vertex -0.49486380181180767 6.993586827901061 -2.85
      vertex -0.7004743038565027 6.951854606584753 -2.85
    endloop
  endfacet
  facet normal 0 0 1
    outer loop
      vertex -0.4198024832365928 0.32231687842726503 -2.85
      vertex -0.2306645851907773 7.014322623751205 -2.85
      vertex -0.49486380181180767 6.993586827901061 -2.85
    endloop
  endfacet
  facet normal 0 0 1
    outer loop
      vertex -0.4198024832365928 0.32231687842726503 -2.85
      vertex -0.0077546091585389935 7.031805798664749 -2.85
      vertex -0.2306645851907773 7.014322623751205 -2.85
    endloop
  endfacet
  facet normal 0 0 -1
    outer loop
      vertex 1.969009210836954 6.493114294618043 -4.35
      vertex 0.41242759086481995 0.1887542503068827 -4.35
      vertex 0.38327548338597467 0.18790670460309042 -4.35
    endloop
  endfacet
  facet normal 0 0 -1
    outer loop
      vertex -0.04542840744724714 0.23665459458243673 -4.35
      vertex 1.641822587592788 6.678689418390055 -4.35
      vertex 0.38327548338597467 0.18790670460309042 -4.35
    endloop
  endfacet
  facet normal 0 0 -1
    outer loop
      vertex 0.41242759086481995 0.1887542503068827 -4.35
      vertex 1.969009210836954 6.493114294618043 -4.35
      vertex 0.7854138593550667 0.1998779202390479 -4.35
    endloop
  endfacet
  facet normal 0 0 -1
    outer loop
      vertex 1.969009210836954 6.493114294618043 -4.35
      vertex 0.8241269029112247 0.20914593797178888 -4.35
      vertex 0.7854138593550667 0.1998779202390479 -4.35
    endloop
  endfacet
  facet normal 0 0 -1
    outer loop
      vertex 1.969009210836954 6.493114294618043 -4.35
      vertex 1.191590181542334 0.2927158481179745 -4.35
      vertex 0.8241269029112247 0.20914593797178888 -4.35
    endloop
  endfacet
  facet normal 0 0 -1
    outer loop
      vertex 1.969009210836954 6.493114294618043 -4.35
      vertex 1.231315702561661 0.3092674924640697 -4.35
      vertex 1.191590181542334 0.2927158481179745 -4.35
    endloop
  endfacet
  facet normal 0 0 -1
    outer loop
      vertex 1.969009210836954 6.493114294618043 -4.35
      vertex 1.5874782372214742 0.45772344617814026 -4.35
      vertex 1.231315702561661 0.3092674924640697 -4.35
    endloop
  endfacet
  facet normal 0 0 -1
    outer loop
      vertex 1.969009210836954 6.493114294618043 -4.35
      vertex 1.6251487629517405 0.48061989676230926 -4.35
      vertex 1.5874782372214742 0.45772344617814026 -4.35
    endloop
  endfacet
  facet normal 0 0 -1
    outer loop
      vertex 1.6251487629517405 0.48061989676230926 -4.35
      vertex 2.895072887405239 5.584181732625366 -4.35
      vertex 1.9642190756318891 0.6864814906267905 -4.35
    endloop
  endfacet
  facet normal 0 0 -1
    outer loop
      vertex 2.0028712770748567 0.714991619174694 -4.35
      vertex 1.9642190756318891 0.6864814906267905 -4.35
      vertex 2.895072887405239 5.584181732625366 -4.35
    endloop
  endfacet
  facet normal 0 0 -1
    outer loop
      vertex 2.0028712770748567 0.714991619174694 -4.35
      vertex 3.0921417943845975 5.239441380191994 -4.35
      vertex 2.318964647438582 0.9707477420956615 -4.35
    endloop
  endfacet
  facet normal 0 0 -1
    outer loop
      vertex 2.3485074442974194 1.0036529424373017 -4.35
      vertex 2.318964647438582 0.9707477420956615 -4.35
      vertex 3.2743491696630658 4.813151515107403 -4.35
    endloop
  endfacet
  facet normal 0 0 -1
    outer loop
      vertex 2.3485074442974194 1.0036529424373017 -4.35
      vertex 3.29030835143334 4.776776540628737 -4.35
      vertex 2.6356750610363937 1.3017553740008174 -4.35
    endloop
  endfacet
  facet normal 0 0 -1
    outer loop
      vertex 2.6621370639234123 1.3385334114994756 -4.35
      vertex 2.6356750610363937 1.3017553740008174 -4.35
      vertex 3.29030835143334 4.776776540628737 -4.35
    endloop
  endfacet
  facet normal 0 0 -1
    outer loop
      vertex 2.6621370639234123 1.3385334114994756 -4.35
      vertex 3.29030835143334 4.776776540628737 -4.35
      vertex 2.9144961295587115 1.671462475734135 -4.35
    endloop
  endfacet
  facet normal 0 0 -1
    outer loop
      vertex 2.9378298653198196 1.7112236725792564 -4.35
      vertex 2.9144961295587115 1.671462475734135 -4.35
      vertex 3.29030835143334 4.776776540628737 -4.35
    endloop
  endfacet
  facet normal 0 0 -1
    outer loop
      vertex 2.9378298653198196 1.7112236725792564 -4.35
      vertex 3.4087798365578768 4.35760374918716 -4.35
      vertex 3.149482796819671 2.0714262782073214 -4.35
    endloop
  endfacet
  facet normal 0 0 -1
    outer loop
      vertex 2.3485074442974194 1.0036529424373017 -4.35
      vertex 3.2743491696630658 4.813151515107403 -4.35
      vertex 3.29030835143334 4.776776540628737 -4.35
    endloop
  endfacet
  facet normal 0 0 -1
    outer loop
      vertex 3.167651324859689 2.1133140324404542 -4.35
      vertex 3.149482796819671 2.0714262782073214 -4.35
      vertex 3.4218269409555857 4.311398220552117 -4.35
    endloop
  endfacet
  facet normal 0 0 -1
    outer loop
      vertex 3.167651324859689 2.1133140324404542 -4.35
      vertex 3.4218269409555857 4.311398220552117 -4.35
      vertex 3.3326703748774142 2.493268375580465 -4.35
    endloop
  endfacet
  facet normal 0 0 -1
    outer loop
      vertex 3.345041891806659 2.536462396038482 -4.35
      vertex 3.465608590139167 2.972306218553177 -4.35
      vertex 3.457501484161714 2.928585758309502 -4.35
    endloop
  endfacet
  facet normal 0 0 -1
    outer loop
      vertex 3.345041891806659 2.536462396038482 -4.35
      vertex 3.3326703748774142 2.493268375580465 -4.35
      vertex 3.497643014613523 3.8562802884255776 -4.35
    endloop
  endfacet
  facet normal 0 0 -1
    outer loop
      vertex 3.345041891806659 2.536462396038482 -4.35
      vertex 3.508428942999284 3.8061972140458735 -4.35
      vertex 3.465608590139167 2.972306218553177 -4.35
    endloop
  endfacet
  facet normal 0 0 -1
    outer loop
      vertex 3.4087798365578768 4.35760374918716 -4.35
      vertex 3.4218269409555857 4.311398220552117 -4.35
      vertex 3.149482796819671 2.0714262782073214 -4.35
    endloop
  endfacet
  facet normal 0 0 -1
    outer loop
      vertex 3.465608590139167 2.972306218553177 -4.35
      vertex 3.518765358266349 3.412413840687816 -4.35
      vertex 3.519628826235449 3.3690573964390786 -4.35
    endloop
  endfacet
  facet normal 0 0 -1
    outer loop
      vertex 3.345041891806659 2.536462396038482 -4.35
      vertex 3.497643014613523 3.8562802884255776 -4.35
      vertex 3.508428942999284 3.8061972140458735 -4.35
    endloop
  endfacet
  facet normal 0 0 -1
    outer loop
      vertex 3.497643014613523 3.8562802884255776 -4.35
      vertex 3.3326703748774142 2.493268375580465 -4.35
      vertex 3.4218269409555857 4.311398220552117 -4.35
    endloop
  endfacet
  facet normal 0 0 -1
    outer loop
      vertex 3.465608590139167 2.972306218553177 -4.35
      vertex 3.508428942999284 3.8061972140458735 -4.35
      vertex 3.518765358266349 3.412413840687816 -4.35
    endloop
  endfacet
  facet normal 0 0 1
    outer loop
      vertex -0.0077546091585389935 7.031805798664749 -2.85
      vertex 0.25511811120842703 0.22160585672786068 -2.85
      vertex 0.5124662598063134 0.19234281642781667 -2.85
    endloop
  endfacet
  facet normal 0 0 1
    outer loop
      vertex -0.0077546091585389935 7.031805798664749 -2.85
      vertex 0.5124662598063134 0.19234281642781667 -2.85
      vertex 0.6467001850267011 0.19624542918767535 -2.85
    endloop
  endfacet
  facet normal 0 0 1
    outer loop
      vertex -0.0077546091585389935 7.031805798664749 -2.85
      vertex 0.6467001850267011 0.19624542918767535 -2.85
      vertex 0.8703028916680333 0.2029139929251149 -2.85
    endloop
  endfacet
  facet normal 0 0 1
    outer loop
      vertex -0.0077546091585389935 7.031805798664749 -2.85
      vertex 0.8703028916680333 0.2029139929251149 -2.85
      vertex 1.0485612326217169 0.2455895697645113 -2.85
    endloop
  endfacet
  facet normal 0 0 1
    outer loop
      vertex -0.0077546091585389935 7.031805798664749 -2.85
      vertex 1.0485612326217169 0.2455895697645113 -2.85
      vertex 1.2684581000134472 0.2955993599068421 -2.85
    endloop
  endfacet
  facet normal 0 0 1
    outer loop
      vertex 1.4513780141086192 0.3718129698038294 -2.85
      vertex -0.0077546091585389935 7.031805798664749 -2.85
      vertex 1.2684581000134472 0.2955993599068421 -2.85
    endloop
  endfacet
  facet normal 0 0 1
    outer loop
      vertex 1.4513780141086192 0.3718129698038294 -2.85
      vertex 1.664396578842523 0.4606035390212783 -2.85
      vertex 1.5170891425625308 6.754615089706131 -2.85
    endloop
  endfacet
  facet normal 0 0 1
    outer loop
      vertex 1.8378537951625664 0.5660322397083104 -2.85
      vertex 1.705557573338812 6.681306475636716 -2.85
      vertex 1.664396578842523 0.4606035390212783 -2.85
    endloop
  endfacet
  facet normal 0 0 1
    outer loop
      vertex 2.0409767199332047 0.6893553602527615 -2.85
      vertex 1.9014505432451987 6.570199053896811 -2.85
      vertex 1.8378537951625664 0.5660322397083104 -2.85
    endloop
  endfacet
  facet normal 0 0 1
    outer loop
      vertex 1.9014505432451987 6.570199053896811 -2.85
      vertex 2.0409767199332047 0.6893553602527615 -2.85
      vertex 2.2189532222253376 0.8206320474640194 -2.85
    endloop
  endfacet
  facet normal 0 0 1
    outer loop
      vertex 1.9014505432451987 6.570199053896811 -2.85
      vertex 2.2189532222253376 0.8206320474640194 -2.85
      vertex 2.408625178294923 0.9740986135466092 -2.85
    endloop
  endfacet
  facet normal 0 0 1
    outer loop
      vertex 1.9014505432451987 6.570199053896811 -2.85
      vertex 2.408625178294923 0.9740986135466092 -2.85
      vertex 2.5446559852338786 1.1256117210004946 -2.85
    endloop
  endfacet
  facet normal 0 0 1
    outer loop
      vertex 1.9014505432451987 6.570199053896811 -2.85
      vertex 2.5446559852338786 1.1256117210004946 -2.85
      vertex 2.7171910468595764 1.3047166005292077 -2.85
    endloop
  endfacet
  facet normal 0 0 1
    outer loop
      vertex 1.9014505432451987 6.570199053896811 -2.85
      vertex 2.7171910468595764 1.3047166005292077 -2.85
      vertex 2.83903532688717 1.474061057144401 -2.85
    endloop
  endfacet
  facet normal 0 0 1
    outer loop
      vertex 1.9014505432451987 6.570199053896811 -2.85
      vertex 2.83903532688717 1.474061057144401 -2.85
      vertex 2.9908313048322928 1.6743205277706297 -2.85
    endloop
  endfacet
  facet normal 0 0 1
    outer loop
      vertex 3.0982706566928395 1.8573995367203993 -2.85
      vertex 1.9014505432451987 6.570199053896811 -2.85
      vertex 2.9908313048322928 1.6743205277706297 -2.85
    endloop
  endfacet
  facet normal 0 0 1
    outer loop
      vertex 3.0982706566928395 1.8573995367203993 -2.85
      vertex 3.225711761211694 2.0742858211980706 -2.85
      vertex 3.292951083487493 4.947102781753806 -2.85
    endloop
  endfacet
  facet normal 0 0 1
    outer loop
      vertex 3.309367279485797 2.2671545985691814 -2.85
      vertex 3.292951083487493 4.947102781753806 -2.85
      vertex 3.225711761211694 2.0742858211980706 -2.85
    endloop
  endfacet
  facet normal 0 0 1
    outer loop
      vertex 3.309367279485797 2.2671545985691814 -2.85
      vertex 3.408809587197306 2.49611929508631 -2.85
      vertex 3.4378338344118404 4.526986208767653 -2.85
    endloop
  endfacet
  facet normal 0 0 1
    outer loop
      vertex 3.4378338344118404 4.526986208767653 -2.85
      vertex 3.408809587197306 2.49611929508631 -2.85
      vertex 3.465772817843563 2.6950012077863503 -2.85
    endloop
  endfacet
  facet normal 0 0 1
    outer loop
      vertex 3.465772817843563 2.6950012077863503 -2.85
      vertex 3.5335810330647357 2.9314344438074844 -2.85
      vertex 3.4979053281780184 4.314246658231797 -2.85
    endloop
  endfacet
  facet normal 0 0 1
    outer loop
      vertex 3.570908926278239 3.132738420314012 -2.85
      vertex 3.603493730617915 3.3720572466868903 -2.85
      vertex 3.599518069462278 3.571683101281057 -2.85
    endloop
  endfacet
  facet normal 0 0 1
    outer loop
      vertex 3.4979053281780184 4.314246658231797 -2.85
      vertex 3.5335810330647357 2.9314344438074844 -2.85
      vertex 3.570908926278239 3.132738420314012 -2.85
    endloop
  endfacet
  facet normal 0 0 1
    outer loop
      vertex 3.570908926278239 3.132738420314012 -2.85
      vertex 3.599518069462278 3.571683101281057 -2.85
      vertex 3.543621881524631 4.0398137811490775 -2.85
    endloop
  endfacet
  facet normal 0 0 -1
    outer loop
      vertex -0.04542840744724714 0.23665459458243673 -4.35
      vertex 0.33780944024436127 7.015949254525902 -4.35
      vertex 0.3845581002280084 7.014514998913937 -4.35
    endloop
  endfacet
  facet normal 0 0 -1
    outer loop
      vertex -0.04542840744724714 0.23665459458243673 -4.35
      vertex 0.3845581002280084 7.014514998913937 -4.35
      vertex 0.7861056521666228 6.957092194401646 -4.35
    endloop
  endfacet
  facet normal 0 0 -1
    outer loop
      vertex -0.04542840744724714 0.23665459458243673 -4.35
      vertex 0.7861056521666228 6.957092194401646 -4.35
      vertex 0.8307377358675725 6.950718664721725 -4.35
    endloop
  endfacet
  facet normal 0 0 -1
    outer loop
      vertex -0.04542840744724714 0.23665459458243673 -4.35
      vertex 0.8307377358675725 6.950718664721725 -4.35
      vertex 1.2096455173289322 6.849720510855695 -4.35
    endloop
  endfacet
  facet normal 0 0 -1
    outer loop
      vertex -0.04542840744724714 0.23665459458243673 -4.35
      vertex 1.2096455173289322 6.849720510855695 -4.35
      vertex 1.2467959663427721 6.838288361563505 -4.35
    endloop
  endfacet
  facet normal 0 0 -1
    outer loop
      vertex -0.04542840744724714 0.23665459458243673 -4.35
      vertex 1.2467959663427721 6.838288361563505 -4.35
      vertex 1.6008864309275799 6.69461236579347 -4.35
    endloop
  endfacet
  facet normal 0 0 -1
    outer loop
      vertex 1.969009210836954 6.493114294618043 -4.35
      vertex 0.38327548338597467 0.18790670460309042 -4.35
      vertex 1.641822587592788 6.678689418390055 -4.35
    endloop
  endfacet
  facet normal 0 0 -1
    outer loop
      vertex -0.04542840744724714 0.23665459458243673 -4.35
      vertex 1.6008864309275799 6.69461236579347 -4.35
      vertex 1.641822587592788 6.678689418390055 -4.35
    endloop
  endfacet
  facet normal 0 0 -1
    outer loop
      vertex 1.6251487629517405 0.48061989676230926 -4.35
      vertex 1.969009210836954 6.493114294618043 -4.35
      vertex 2.0090203878910438 6.472521721345944 -4.35
    endloop
  endfacet
  facet normal 0 0 -1
    outer loop
      vertex 1.6251487629517405 0.48061989676230926 -4.35
      vertex 2.0090203878910438 6.472521721345944 -4.35
      vertex 2.3070762803843587 6.245893085486127 -4.35
    endloop
  endfacet
  facet normal 0 0 -1
    outer loop
      vertex 1.6251487629517405 0.48061989676230926 -4.35
      vertex 2.3070762803843587 6.245893085486127 -4.35
      vertex 2.340144975249327 6.220719745121185 -4.35
    endloop
  endfacet
  facet normal 0 0 -1
    outer loop
      vertex 1.6251487629517405 0.48061989676230926 -4.35
      vertex 2.340144975249327 6.220719745121185 -4.35
      vertex 2.6068048977887117 5.953867327747084 -4.35
    endloop
  endfacet
  facet normal 0 0 -1
    outer loop
      vertex 1.6251487629517405 0.48061989676230926 -4.35
      vertex 2.6068048977887117 5.953867327747084 -4.35
      vertex 2.636328350576461 5.92428597789428 -4.35
    endloop
  endfacet
  facet normal 0 0 -1
    outer loop
      vertex 1.6251487629517405 0.48061989676230926 -4.35
      vertex 2.636328350576461 5.92428597789428 -4.35
      vertex 2.8693210610684847 5.618066352140252 -4.35
    endloop
  endfacet
  facet normal 0 0 -1
    outer loop
      vertex 1.6251487629517405 0.48061989676230926 -4.35
      vertex 2.8693210610684847 5.618066352140252 -4.35
      vertex 2.895072887405239 5.584181732625366 -4.35
    endloop
  endfacet
  facet normal 0 0 -1
    outer loop
      vertex 2.0028712770748567 0.714991619174694 -4.35
      vertex 2.895072887405239 5.584181732625366 -4.35
      vertex 3.0921417943845975 5.239441380191994 -4.35
    endloop
  endfacet
  facet normal 0 0 -1
    outer loop
      vertex 2.318964647438582 0.9707477420956615 -4.35
      vertex 3.0921417943845975 5.239441380191994 -4.35
      vertex 3.1154442250868213 5.19553819559442 -4.35
    endloop
  endfacet
  facet normal 0 0 -1
    outer loop
      vertex 2.318964647438582 0.9707477420956615 -4.35
      vertex 3.1154442250868213 5.19553819559442 -4.35
      vertex 3.2743491696630658 4.813151515107403 -4.35
    endloop
  endfacet
  facet normal 0 0 -1
    outer loop
      vertex 2.9378298653198196 1.7112236725792564 -4.35
      vertex 3.29030835143334 4.776776540628737 -4.35
      vertex 3.4087798365578768 4.35760374918716 -4.35
    endloop
  endfacet
  facet normal 0 0 1
    outer loop
      vertex -0.0077546091585389935 7.031805798664749 -2.85
      vertex 1.4513780141086192 0.3718129698038294 -2.85
      vertex 0.24592860345097883 7.023991772468343 -2.85
    endloop
  endfacet
  facet normal 0 0 1
    outer loop
      vertex 1.4513780141086192 0.3718129698038294 -2.85
      vertex 0.46115566661103646 7.017388575215373 -2.85
      vertex 0.24592860345097883 7.023991772468343 -2.85
    endloop
  endfacet
  facet normal 0 0 1
    outer loop
      vertex 1.4513780141086192 0.3718129698038294 -2.85
      vertex 0.7020631421977912 6.982937903534321 -2.85
      vertex 0.46115566661103646 7.017388575215373 -2.85
    endloop
  endfacet
  facet normal 0 0 1
    outer loop
      vertex 1.4513780141086192 0.3718129698038294 -2.85
      vertex 0.9075460105931538 6.953594636273748 -2.85
      vertex 0.7020631421977912 6.982937903534321 -2.85
    endloop
  endfacet
  facet normal 0 0 1
    outer loop
      vertex 1.4513780141086192 0.3718129698038294 -2.85
      vertex 1.1344074376615512 6.89312455242128 -2.85
      vertex 0.9075460105931538 6.953594636273748 -2.85
    endloop
  endfacet
  facet normal 0 0 1
    outer loop
      vertex 1.4513780141086192 0.3718129698038294 -2.85
      vertex 1.5170891425625308 6.754615089706131 -2.85
      vertex 1.3054457466189986 6.840491662790339 -2.85
    endloop
  endfacet
  facet normal 0 0 1
    outer loop
      vertex 1.4513780141086192 0.3718129698038294 -2.85
      vertex 1.3054457466189986 6.840491662790339 -2.85
      vertex 1.1344074376615512 6.89312455242128 -2.85
    endloop
  endfacet
  facet normal 0 0 1
    outer loop
      vertex 1.664396578842523 0.4606035390212783 -2.85
      vertex 1.705557573338812 6.681306475636716 -2.85
      vertex 1.5170891425625308 6.754615089706131 -2.85
    endloop
  endfacet
  facet normal 0 0 1
    outer loop
      vertex 1.8378537951625664 0.5660322397083104 -2.85
      vertex 1.9014505432451987 6.570199053896811 -2.85
      vertex 1.705557573338812 6.681306475636716 -2.85
    endloop
  endfacet
  facet normal 0 0 1
    outer loop
      vertex 3.0982706566928395 1.8573995367203993 -2.85
      vertex 2.264404720171433 6.339482449189405 -2.85
      vertex 2.0856609047989485 6.475391411456117 -2.85
    endloop
  endfacet
  facet normal 0 0 1
    outer loop
      vertex 3.0982706566928395 1.8573995367203993 -2.85
      vertex 2.416653143691393 6.223584274164849 -2.85
      vertex 2.264404720171433 6.339482449189405 -2.85
    endloop
  endfacet
  facet normal 0 0 1
    outer loop
      vertex 3.0982706566928395 1.8573995367203993 -2.85
      vertex 2.5767821903701225 6.063339634508816 -2.85
      vertex 2.416653143691393 6.223584274164849 -2.85
    endloop
  endfacet
  facet normal 0 0 1
    outer loop
      vertex 3.0982706566928395 1.8573995367203993 -2.85
      vertex 2.0856609047989485 6.475391411456117 -2.85
      vertex 1.9014505432451987 6.570199053896811 -2.85
    endloop
  endfacet
  facet normal 0 0 1
    outer loop
      vertex 3.0982706566928395 1.8573995367203993 -2.85
      vertex 3.1972346080576597 5.177433596223644 -2.85
      vertex 3.0899477778880313 5.379568453742019 -2.85
    endloop
  endfacet
  facet normal 0 0 1
    outer loop
      vertex 3.0982706566928395 1.8573995367203993 -2.85
      vertex 3.0899477778880313 5.379568453742019 -2.85
      vertex 2.9713490894379455 5.587037781507158 -2.85
    endloop
  endfacet
  facet normal 0 0 1
    outer loop
      vertex 3.0982706566928395 1.8573995367203993 -2.85
      vertex 2.9713490894379455 5.587037781507158 -2.85
      vertex 2.8527858077415975 5.743045034592081 -2.85
    endloop
  endfacet
  facet normal 0 0 1
    outer loop
      vertex 3.0982706566928395 1.8573995367203993 -2.85
      vertex 3.292951083487493 4.947102781753806 -2.85
      vertex 3.1972346080576597 5.177433596223644 -2.85
    endloop
  endfacet
  facet normal 0 0 1
    outer loop
      vertex 3.309367279485797 2.2671545985691814 -2.85
      vertex 3.4378338344118404 4.526986208767653 -2.85
      vertex 3.366429618160626 4.779626788188572 -2.85
    endloop
  endfacet
  facet normal 0 0 1
    outer loop
      vertex 3.309367279485797 2.2671545985691814 -2.85
      vertex 3.366429618160626 4.779626788188572 -2.85
      vertex 3.292951083487493 4.947102781753806 -2.85
    endloop
  endfacet
  facet normal 0 0 1
    outer loop
      vertex 3.599518069462278 3.571683101281057 -2.85
      vertex 3.593282998780907 3.8092187558187893 -2.85
      vertex 3.543621881524631 4.0398137811490775 -2.85
    endloop
  endfacet
  facet normal 0 0 1
    outer loop
      vertex 3.4378338344118404 4.526986208767653 -2.85
      vertex 3.465772817843563 2.6950012077863503 -2.85
      vertex 3.4979053281780184 4.314246658231797 -2.85
    endloop
  endfacet
  facet normal 0 0 1
    outer loop
      vertex 3.4979053281780184 4.314246658231797 -2.85
      vertex 3.570908926278239 3.132738420314012 -2.85
      vertex 3.543621881524631 4.0398137811490775 -2.85
    endloop
  endfacet
  facet normal 0 0 1
    outer loop
      vertex 3.0982706566928395 1.8573995367203993 -2.85
      vertex 2.7127093150887434 5.927145949451228 -2.85
      vertex 2.5767821903701225 6.063339634508816 -2.85
    endloop
  endfacet
  facet normal 0 0 1
    outer loop
      vertex 3.0982706566928395 1.8573995367203993 -2.85
      vertex 2.8527858077415975 5.743045034592081 -2.85
      vertex 2.7127093150887434 5.927145949451228 -2.85
    endloop
  endfacet
  facet normal -0.7464309638255114 -0.6643479121232485 0.038505426890224265
    outer loop
      vertex -2.5792389772136723 1.6282274566982697 -4.35
      vertex -2.5319580175155068 1.6620443282609993 -2.85
      vertex -2.606841532204893 1.6592404264843794 -4.35
    endloop
  endfacet
  facet normal -0.8562271749037229 -0.5147472362492054 0.04370706727972249
    outer loop
      vertex -2.800234264977226 1.980928629096504 -4.35
      vertex -2.606841532204893 1.6592404264843794 -4.35
      vertex -2.6499033859698686 1.8582338801671419 -2.85
    endloop
  endfacet
  facet normal -0.7797932872477552 -0.6243969670013838 0.04528638606482703
    outer loop
      vertex -2.5792389772136723 1.6282274566982697 -4.35
      vertex -2.350261831476649 1.3422637979758756 -4.35
      vertex -2.4048636936598538 1.5192469521856649 -2.85
    endloop
  endfacet
  facet normal -0.5905760148373412 -0.8063767862663963 0.03124818825984855
    outer loop
      vertex -2.0290740505650087 1.0404686446639484 -4.35
      vertex -1.7341257249472537 0.8244537373737791 -4.35
      vertex -1.8374471521596416 0.958251536315536 -2.85
    endloop
  endfacet
  facet normal -0.4800992458901742 -0.8768341074776637 0.025819799757840767
    outer loop
      vertex -1.697838161717701 0.8045849485195042 -4.35
      vertex -1.658618731063648 0.8272807816147232 -2.85
      vertex -1.7341257249472537 0.8244537373737791 -4.35
    endloop
  endfacet
  facet normal -0.4875258207135649 -0.8726900273875196 0.02703128254329041
    outer loop
      vertex -1.4915316622621742 0.735794404607393 -2.85
      vertex -1.697838161717701 0.8045849485195042 -4.35
      vertex -1.3725800580310636 0.6228804269057244 -4.35
    endloop
  endfacet
  facet normal -0.6898558947802783 -0.7230499980976537 0.036021447609508955
    outer loop
      vertex -2.3241712668416485 1.31483728553218 -4.35
      vertex -2.061329827508625 1.0640624887774883 -4.35
      vertex -2.1455529012336476 1.2191471379649705 -2.85
    endloop
  endfacet
  facet normal -0.7238850281122146 -0.6886245253764374 0.04226971877188936
    outer loop
      vertex -2.3241712668416485 1.31483728553218 -4.35
      vertex -2.265686233448695 1.345431807422778 -2.85
      vertex -2.350261831476649 1.3422637979758756 -4.35
    endloop
  endfacet
  facet normal -0.59009371044374 -0.8067329345869947 0.031167052273118206
    outer loop
      vertex -2.0290740505650087 1.0404686446639484 -4.35
      vertex -1.98596897958684 1.066889466504005 -2.85
      vertex -2.061329827508625 1.0640624887774883 -4.35
    endloop
  endfacet
  facet normal -0.915684083340415 -0.3992233001499638 0.04629704239361387
    outer loop
      vertex -2.9772410434590797 2.3735606768475725 -4.35
      vertex -2.821239483466498 2.015745525758389 -4.35
      vertex -2.746619873933058 2.0185448985283476 -2.85
    endloop
  endfacet
  facet normal -0.9574002155950151 -0.2836004755534246 0.054365406689273865
    outer loop
      vertex -2.978619613152027 2.656669435618632 -2.85
      vertex -3.1081927518901256 2.8065466205786422 -4.35
      vertex -2.991376667248728 2.412189931287509 -4.35
    endloop
  endfacet
  facet normal -0.9377606394141862 -0.34315525359440124 0.05338028752319464
    outer loop
      vertex -2.9772410434590797 2.3735606768475725 -4.35
      vertex -2.907084344763231 2.4151751953694522 -2.85
      vertex -2.991376667248728 2.412189931287509 -4.35
    endloop
  endfacet
  facet normal -0.8554306518809556 -0.5160858510646797 0.043517745269815875
    outer loop
      vertex -2.6499033859698686 1.8582338801671419 -2.85
      vertex -2.821239483466498 2.015745525758389 -4.35
      vertex -2.800234264977226 1.980928629096504 -4.35
    endloop
  endfacet
  facet normal -0.9391542759084864 -0.34024708487795985 0.047129261344273955
    outer loop
      vertex -3.1081927518901256 2.8065466205786422 -4.35
      vertex -3.049270750083243 2.851681590889697 -2.85
      vertex -3.123537284093602 2.8489007910365007 -4.35
    endloop
  endfacet
  facet normal -0.9836936667771303 -0.17304152900296466 0.049024475345284604
    outer loop
      vertex -3.0958159608925664 3.116278357664413 -2.85
      vertex -3.1994139423089343 3.2802387974254543 -4.35
      vertex -3.123537284093602 2.8489007910365007 -4.35
    endloop
  endfacet
  facet normal -0.983614754415769 -0.17350538398413065 0.04896832265992134
    outer loop
      vertex -3.1994139423089343 3.2802387974254543 -4.35
      vertex -3.133388104589142 3.329277597494109 -2.85
      vertex -3.2075742195689863 3.326500008050738 -4.35
    endloop
  endfacet
  facet normal -0.9986787639744243 0.014274477208841823 0.049365632649953875
    outer loop
      vertex -3.128979529171773 3.637712756575021 -2.85
      vertex -3.2003932648786932 3.828897878693317 -4.35
      vertex -3.2075742195689863 3.326500008050738 -4.35
    endloop
  endfacet
  facet normal -0.3853763319491047 -0.9225151934878466 0.021232064372882373
    outer loop
      vertex -1.334326582889176 0.6066347907119898 -4.35
      vertex -0.9805383396762886 0.4588414357422795 -4.35
      vertex -1.118498274235639 0.5509966551856811 -2.85
    endloop
  endfacet
  facet normal -0.3907987628926438 -0.9202108543806775 0.022097746526800566
    outer loop
      vertex -1.3725800580310636 0.6228804269057244 -4.35
      vertex -1.334326582889176 0.6066347907119898 -4.35
      vertex -1.2946383763103377 0.625800526123395 -2.85
    endloop
  endfacet
  facet normal -0.2657595126105066 -0.9639185351001511 0.015262344099272981
    outer loop
      vertex -0.9250487778337055 0.4435425506464314 -4.35
      vertex -0.9046948284258985 0.46168128316159684 -2.85
      vertex -0.9805383396762886 0.4588414357422795 -4.35
    endloop
  endfacet
  facet normal -0.2876898005602761 -0.9575247307633746 0.019518417715463688
    outer loop
      vertex -0.9250487778337055 0.4435425506464314 -4.35
      vertex -0.5445356155761802 0.32921677686390566 -4.35
      vertex -0.6491893828123516 0.3912365305990462 -2.85
    endloop
  endfacet
  facet normal -0.21003428498618915 -0.9776080071333172 0.012968558869977616
    outer loop
      vertex -0.515157882250548 0.3229051149620585 -4.35
      vertex -0.4198024832365928 0.32231687842726503 -2.85
      vertex -0.5445356155761802 0.32921677686390566 -4.35
    endloop
  endfacet
  facet normal -0.19659654029054394 -0.9804244728971029 0.010846810140604712
    outer loop
      vertex -0.515157882250548 0.3229051149620585 -4.35
      vertex -0.10960032821017714 0.24158195931149554 -4.35
      vertex -0.2845304383966704 0.29325434312757376 -2.85
    endloop
  endfacet
  facet normal -0.07655736909604786 -0.9970508971006071 0.005336462120745135
    outer loop
      vertex -0.04542840744724714 0.23665459458243673 -4.35
      vertex -0.04036776066267322 0.2442943884981908 -2.85
      vertex -0.10960032821017714 0.24158195931149554 -4.35
    endloop
  endfacet
  facet normal -0.11297278618647767 -0.9935173197636334 0.012668263928049183
    outer loop
      vertex -0.04542840744724714 0.23665459458243673 -4.35
      vertex 0.38327548338597467 0.18790670460309042 -4.35
      vertex 0.25511811120842703 0.22160585672786068 -2.85
    endloop
  endfacet
  facet normal -0.8562271749037227 -0.5147472362492057 0.04370706727972253
    outer loop
      vertex -2.6499033859698686 1.8582338801671419 -2.85
      vertex -2.606841532204893 1.6592404264843794 -4.35
      vertex -2.5319580175155068 1.6620443282609993 -2.85
    endloop
  endfacet
  facet normal -0.7464309638255114 -0.6643479121232484 0.038505426890224265
    outer loop
      vertex -2.5792389772136723 1.6282274566982697 -4.35
      vertex -2.4048636936598538 1.5192469521856649 -2.85
      vertex -2.5319580175155068 1.6620443282609993 -2.85
    endloop
  endfacet
  facet normal -0.5900937104437413 -0.8067329345869937 0.031167052273118223
    outer loop
      vertex -1.8374471521596416 0.958251536315536 -2.85
      vertex -1.98596897958684 1.066889466504005 -2.85
      vertex -2.0290740505650087 1.0404686446639484 -4.35
    endloop
  endfacet
  facet normal -0.5905760148373416 -0.8063767862663962 0.031248188259848517
    outer loop
      vertex -1.8374471521596416 0.958251536315536 -2.85
      vertex -1.7341257249472537 0.8244537373737791 -4.35
      vertex -1.658618731063648 0.8272807816147232 -2.85
    endloop
  endfacet
  facet normal -0.480099245890175 -0.8768341074776631 0.025819799757840774
    outer loop
      vertex -1.4915316622621742 0.735794404607393 -2.85
      vertex -1.658618731063648 0.8272807816147232 -2.85
      vertex -1.697838161717701 0.8045849485195042 -4.35
    endloop
  endfacet
  facet normal -0.7797932872477552 -0.6243969670013839 0.04528638606482704
    outer loop
      vertex -2.4048636936598538 1.5192469521856649 -2.85
      vertex -2.350261831476649 1.3422637979758756 -4.35
      vertex -2.265686233448695 1.345431807422778 -2.85
    endloop
  endfacet
  facet normal -0.7238850281122117 -0.6886245253764406 0.04226971877188931
    outer loop
      vertex -2.3241712668416485 1.31483728553218 -4.35
      vertex -2.1455529012336476 1.2191471379649705 -2.85
      vertex -2.265686233448695 1.345431807422778 -2.85
    endloop
  endfacet
  facet normal -0.6898558947802785 -0.7230499980976534 0.03602144760950892
    outer loop
      vertex -2.1455529012336476 1.2191471379649705 -2.85
      vertex -2.061329827508625 1.0640624887774883 -4.35
      vertex -1.98596897958684 1.066889466504005 -2.85
    endloop
  endfacet
  facet normal -0.9156840833404144 -0.3992233001499649 0.046297042393613534
    outer loop
      vertex -2.9772410434590797 2.3735606768475725 -4.35
      vertex -2.746619873933058 2.0185448985283476 -2.85
      vertex -2.8419988449809366 2.237312204046641 -2.85
    endloop
  endfacet
  facet normal -0.9377606394141894 -0.3431552535943929 0.053380287523194556
    outer loop
      vertex -2.8419988449809366 2.237312204046641 -2.85
      vertex -2.907084344763231 2.4151751953694522 -2.85
      vertex -2.9772410434590797 2.3735606768475725 -4.35
    endloop
  endfacet
  facet normal -0.9574002155950146 -0.28360047555342555 0.05436540668927401
    outer loop
      vertex -2.978619613152027 2.656669435618632 -2.85
      vertex -2.991376667248728 2.412189931287509 -4.35
      vertex -2.907084344763231 2.4151751953694522 -2.85
    endloop
  endfacet
  facet normal -0.8554306518809578 -0.5160858510646759 0.0435177452698165
    outer loop
      vertex -2.6499033859698686 1.8582338801671419 -2.85
      vertex -2.746619873933058 2.0185448985283476 -2.85
      vertex -2.821239483466498 2.015745525758389 -4.35
    endloop
  endfacet
  facet normal -0.9391542759084873 -0.34024708487795746 0.04712926134427393
    outer loop
      vertex -2.978619613152027 2.656669435618632 -2.85
      vertex -3.049270750083243 2.851681590889697 -2.85
      vertex -3.1081927518901256 2.8065466205786422 -4.35
    endloop
  endfacet
  facet normal -0.9836936667771302 -0.1730415290029651 0.04902447534528466
    outer loop
      vertex -3.0958159608925664 3.116278357664413 -2.85
      vertex -3.123537284093602 2.8489007910365007 -4.35
      vertex -3.049270750083243 2.851681590889697 -2.85
    endloop
  endfacet
  facet normal -0.9836147544157675 -0.17350538398413845 0.04896832265992153
    outer loop
      vertex -3.0958159608925664 3.116278357664413 -2.85
      vertex -3.133388104589142 3.329277597494109 -2.85
      vertex -3.1994139423089343 3.2802387974254543 -4.35
    endloop
  endfacet
  facet normal -0.9986787639744243 0.014274477208842411 0.04936563264995375
    outer loop
      vertex -3.128979529171773 3.637712756575021 -2.85
      vertex -3.2075742195689863 3.326500008050738 -4.35
      vertex -3.133388104589142 3.329277597494109 -2.85
    endloop
  endfacet
  facet normal -0.390798762892641 -0.9202108543806787 0.022097746526800514
    outer loop
      vertex -1.334326582889176 0.6066347907119898 -4.35
      vertex -1.118498274235639 0.5509966551856811 -2.85
      vertex -1.2946383763103377 0.625800526123395 -2.85
    endloop
  endfacet
  facet normal -0.4875258207135651 -0.8726900273875194 0.02703128254329039
    outer loop
      vertex -1.4915316622621742 0.735794404607393 -2.85
      vertex -1.3725800580310636 0.6228804269057244 -4.35
      vertex -1.2946383763103377 0.625800526123395 -2.85
    endloop
  endfacet
  facet normal -0.38537633194910514 -0.9225151934878466 0.021232064372882345
    outer loop
      vertex -1.118498274235639 0.5509966551856811 -2.85
      vertex -0.9805383396762886 0.4588414357422795 -4.35
      vertex -0.9046948284258985 0.46168128316159684 -2.85
    endloop
  endfacet
  facet normal -0.26575951261050634 -0.9639185351001512 0.01526234409927298
    outer loop
      vertex -0.9250487778337055 0.4435425506464314 -4.35
      vertex -0.6491893828123516 0.3912365305990462 -2.85
      vertex -0.9046948284258985 0.46168128316159684 -2.85
    endloop
  endfacet
  facet normal -0.28768980056027627 -0.9575247307633746 0.019518417715463674
    outer loop
      vertex -0.4198024832365928 0.32231687842726503 -2.85
      vertex -0.6491893828123516 0.3912365305990462 -2.85
      vertex -0.5445356155761802 0.32921677686390566 -4.35
    endloop
  endfacet
  facet normal -0.2100342849861895 -0.9776080071333173 0.012968558869977638
    outer loop
      vertex -0.515157882250548 0.3229051149620585 -4.35
      vertex -0.2845304383966704 0.29325434312757376 -2.85
      vertex -0.4198024832365928 0.32231687842726503 -2.85
    endloop
  endfacet
  facet normal -0.19659654029054388 -0.980424472897103 0.010846810140604719
    outer loop
      vertex -0.2845304383966704 0.29325434312757376 -2.85
      vertex -0.10960032821017714 0.24158195931149554 -4.35
      vertex -0.04036776066267322 0.2442943884981908 -2.85
    endloop
  endfacet
  facet normal -0.07655736909604766 -0.997050897100607 0.005336462120745133
    outer loop
      vertex 0.25511811120842703 0.22160585672786068 -2.85
      vertex -0.04036776066267322 0.2442943884981908 -2.85
      vertex -0.04542840744724714 0.23665459458243673 -4.35
    endloop
  endfacet
  facet normal -0.9986754061255905 0.01443725863221121 0.049386220376471765
    outer loop
      vertex -3.2003932648786932 3.828897878693317 -4.35
      vertex -3.1253975205160773 3.8854927569270425 -2.85
      vertex -3.1996152802308706 3.8827137833547654 -4.35
    endloop
  endfacet
  facet normal -0.9924282872930218 0.11267369421588352 0.048895124627973824
    outer loop
      vertex -3.146775988909251 4.348121505654332 -4.35
      vertex -3.1996152802308706 3.8827137833547654 -4.35
      vertex -3.092969391406461 4.171119254365843 -2.85
    endloop
  endfacet
  facet normal -0.9923631694200329 0.11321898690499375 0.04895713413624141
    outer loop
      vertex -3.146775988909251 4.348121505654332 -4.35
      vertex -3.0667665482267172 4.400786885356807 -2.85
      vertex -3.141084864687236 4.39800414658682 -4.35
    endloop
  endfacet
  facet normal -0.9739771011250811 0.22153879995981296 0.047845235879338456
    outer loop
      vertex -3.043896624456244 4.825284246058336 -4.35
      vertex -3.141084864687236 4.39800414658682 -4.35
      vertex -3.007177306756013 4.662766081219596 -2.85
    endloop
  endfacet
  facet normal -0.964774878059001 0.25797331135312257 0.051567482930087345
    outer loop
      vertex -3.043896624456244 4.825284246058336 -4.35
      vertex -2.9506671320634816 4.874104210005536 -2.85
      vertex -3.0316227944276117 4.871186214781689 -4.35
    endloop
  endfacet
  facet normal -0.9392552923348687 0.33955315760780974 0.050031479885228665
    outer loop
      vertex -3.0316227944276117 4.871186214781689 -4.35
      vertex -2.8648161164741546 5.111581079055107 -2.85
      vertex -2.8913559451040594 5.2591854944657666 -4.35
    endloop
  endfacet
  facet normal -0.9513028872569558 0.30468235302632557 0.04681325080488526
    outer loop
      vertex -2.8779903774228335 5.300916507104624 -4.35
      vertex -2.8913559451040594 5.2591854944657666 -4.35
      vertex -2.803280062241981 5.3037137230366564 -2.85
    endloop
  endfacet
  facet normal -0.8850250319024494 0.4635332525452493 0.043215930984886575
    outer loop
      vertex -2.6959250937825745 5.648534143115148 -4.35
      vertex -2.8779903774228335 5.300916507104624 -4.35
      vertex -2.6920561514161396 5.516073774201154 -2.85
    endloop
  endfacet
  facet normal -0.8842849689664206 0.4649321989909281 0.043337558785844964
    outer loop
      vertex -2.6959250937825745 5.648534143115148 -4.35
      vertex -2.6012024251112047 5.68887442066189 -2.85
      vertex -2.6761916018621874 5.686066562526605 -4.35
    endloop
  endfacet
  facet normal -0.808213080807727 0.5875770061793318 0.039304933794826497
    outer loop
      vertex -2.4536596279826832 5.99215963678909 -4.35
      vertex -2.6761916018621874 5.686066562526605 -4.35
      vertex -2.4656225985484093 5.875364681800956 -2.85
    endloop
  endfacet
  facet normal -0.8071312180496605 0.5890539747922743 0.03942856364482424
    outer loop
      vertex -2.4536596279826832 5.99215963678909 -4.35
      vertex -2.384663869001938 5.98629563344022 -2.85
      vertex -2.436075204168605 6.016254096752226 -4.35
    endloop
  endfacet
  facet normal -0.709044018276437 0.7041198192356818 0.03836483162890534
    outer loop
      vertex -2.1743904101804303 6.2797689599648905 -4.35
      vertex -2.436075204168605 6.016254096752226 -4.35
      vertex -2.225607410194585 6.146464439380105 -2.85
    endloop
  endfacet
  facet normal -0.7072984791187387 0.7058615341304404 0.03857921812764336
    outer loop
      vertex -2.1743904101804303 6.2797689599648905 -4.35
      vertex -2.051818912884471 6.320606723514061 -2.85
      vertex -2.1366428810269684 6.317593332975419 -4.35
    endloop
  endfacet
  facet normal -0.5913222824116686 0.8058073231816054 0.03182006018772845
    outer loop
      vertex -1.8370149239455824 6.537468087595613 -4.35
      vertex -2.1366428810269684 6.317593332975419 -4.35
      vertex -2.051818912884471 6.320606723514061 -2.85
    endloop
  endfacet
  facet normal -0.6219116983324967 0.7825181992659093 0.029851420315090915
    outer loop
      vertex -1.8700161314797428 6.4540183128063635 -2.85
      vertex -1.8068903826402944 6.561409773120927 -4.35
      vertex -1.8370149239455824 6.537468087595613 -4.35
    endloop
  endfacet
  facet normal -0.4618741707547685 0.8866825948241609 0.02159227698710407
    outer loop
      vertex -1.4706139442232218 6.736576627691985 -4.35
      vertex -1.8068903826402944 6.561409773120927 -4.35
      vertex -1.5275663300469386 6.670382420432136 -2.85
    endloop
  endfacet
  facet normal -0.4613988758497183 0.8869293098216746 0.021621210508765275
    outer loop
      vertex -1.4706139442232218 6.736576627691985 -4.35
      vertex -1.3580528590073075 6.758566815865855 -2.85
      vertex -1.4337946601631355 6.755730776829678 -4.35
    endloop
  endfacet
  facet normal -0.32864040685092466 0.94433901426193 0.014809089359761116
    outer loop
      vertex -1.0621668701392566 6.88506135225445 -4.35
      vertex -1.4337946601631355 6.755730776829678 -4.35
      vertex -1.1332525439612189 6.836799808341236 -2.85
    endloop
  endfacet
  facet normal -0.32828448026063106 0.9444624784596118 0.014829929262628598
    outer loop
      vertex -1.0621668701392566 6.88506135225445 -4.35
      vertex -0.9454294228298661 6.902085001885504 -2.85
      vertex -1.021370513218784 6.899241704712716 -4.35
    endloop
  endfacet
  facet normal -0.1991035098546477 0.9799439685964664 0.008222577148814214
    outer loop
      vertex -0.6156710725997617 6.981671093700136 -4.35
      vertex -1.021370513218784 6.899241704712716 -4.35
      vertex -0.7004743038565027 6.951854606584753 -2.85
    endloop
  endfacet
  facet normal -0.19890481202481072 0.9799842176995681 0.008234610685399248
    outer loop
      vertex -0.6156710725997617 6.981671093700136 -4.35
      vertex -0.49486380181180767 6.993586827901061 -2.85
      vertex -0.5710111297187518 6.990735604519135 -4.35
    endloop
  endfacet
  facet normal -0.07824466388378544 0.9969320228781258 0.002077097455937462
    outer loop
      vertex -0.13254864069053104 7.025148532675075 -4.35
      vertex -0.5710111297187518 6.990735604519135 -4.35
      vertex -0.2306645851907773 7.014322623751205 -2.85
    endloop
  endfacet
  facet normal -0.07819125182367063 0.9969362061601462 0.0020806213643099875
    outer loop
      vertex -0.084131119936412 7.028945993871258 -4.35
      vertex -0.13254864069053104 7.025148532675075 -4.35
      vertex -0.0077546091585389935 7.031805798664749 -2.85
    endloop
  endfacet
  facet normal 0.030787511477772263 0.9995199175971983 -0.0034732497024930822
    outer loop
      vertex 0.33780944024436127 7.015949254525902 -4.35
      vertex -0.084131119936412 7.028945993871258 -4.35
      vertex -0.0077546091585389935 7.031805798664749 -2.85
    endloop
  endfacet
  facet normal -0.9986754061255905 0.01443725863221335 0.049386220376471675
    outer loop
      vertex -3.128979529171773 3.637712756575021 -2.85
      vertex -3.1253975205160773 3.8854927569270425 -2.85
      vertex -3.2003932648786932 3.828897878693317 -4.35
    endloop
  endfacet
  facet normal -0.9924282872930217 0.11267369421588411 0.04889512462797369
    outer loop
      vertex -3.1253975205160773 3.8854927569270425 -2.85
      vertex -3.092969391406461 4.171119254365843 -2.85
      vertex -3.1996152802308706 3.8827137833547654 -4.35
    endloop
  endfacet
  facet normal -0.9923631694200329 0.1132189869049932 0.048957134136241434
    outer loop
      vertex -3.146775988909251 4.348121505654332 -4.35
      vertex -3.092969391406461 4.171119254365843 -2.85
      vertex -3.0667665482267172 4.400786885356807 -2.85
    endloop
  endfacet
  facet normal -0.9739771011250813 0.2215387999598123 0.04784523587933859
    outer loop
      vertex -3.007177306756013 4.662766081219596 -2.85
      vertex -3.141084864687236 4.39800414658682 -4.35
      vertex -3.0667665482267172 4.400786885356807 -2.85
    endloop
  endfacet
  facet normal -0.9647748780590029 0.25797331135311496 0.05156748293008771
    outer loop
      vertex -3.043896624456244 4.825284246058336 -4.35
      vertex -3.007177306756013 4.662766081219596 -2.85
      vertex -2.9506671320634816 4.874104210005536 -2.85
    endloop
  endfacet
  facet normal -0.939255292334868 0.3395531576078121 0.050031479885228214
    outer loop
      vertex -3.0316227944276117 4.871186214781689 -4.35
      vertex -2.9506671320634816 4.874104210005536 -2.85
      vertex -2.8648161164741546 5.111581079055107 -2.85
    endloop
  endfacet
  facet normal -0.9513028872569566 0.30468235302632346 0.046813250804885374
    outer loop
      vertex -2.803280062241981 5.3037137230366564 -2.85
      vertex -2.8913559451040594 5.2591854944657666 -4.35
      vertex -2.8648161164741546 5.111581079055107 -2.85
    endloop
  endfacet
  facet normal -0.8850250319024492 0.46353325254524974 0.04321593098488649
    outer loop
      vertex -2.6920561514161396 5.516073774201154 -2.85
      vertex -2.8779903774228335 5.300916507104624 -4.35
      vertex -2.803280062241981 5.3037137230366564 -2.85
    endloop
  endfacet
  facet normal -0.8842849689664228 0.46493219899092386 0.043337558785845214
    outer loop
      vertex -2.6959250937825745 5.648534143115148 -4.35
      vertex -2.6920561514161396 5.516073774201154 -2.85
      vertex -2.6012024251112047 5.68887442066189 -2.85
    endloop
  endfacet
  facet normal -0.8082130808077271 0.5875770061793321 0.039304933794826476
    outer loop
      vertex -2.4656225985484093 5.875364681800956 -2.85
      vertex -2.6761916018621874 5.686066562526605 -4.35
      vertex -2.6012024251112047 5.68887442066189 -2.85
    endloop
  endfacet
  facet normal -0.8071312180496681 0.589053974792264 0.039428563644824555
    outer loop
      vertex -2.4536596279826832 5.99215963678909 -4.35
      vertex -2.4656225985484093 5.875364681800956 -2.85
      vertex -2.384663869001938 5.98629563344022 -2.85
    endloop
  endfacet
  facet normal -0.7090440182764374 0.7041198192356816 0.03836483162890541
    outer loop
      vertex -2.225607410194585 6.146464439380105 -2.85
      vertex -2.436075204168605 6.016254096752226 -4.35
      vertex -2.384663869001938 5.98629563344022 -2.85
    endloop
  endfacet
  facet normal -0.7072984791187349 0.7058615341304441 0.03857921812764296
    outer loop
      vertex -2.1743904101804303 6.2797689599648905 -4.35
      vertex -2.225607410194585 6.146464439380105 -2.85
      vertex -2.051818912884471 6.320606723514061 -2.85
    endloop
  endfacet
  facet normal -0.5913222824116706 0.8058073231816039 0.03182006018772796
    outer loop
      vertex -1.8370149239455824 6.537468087595613 -4.35
      vertex -2.051818912884471 6.320606723514061 -2.85
      vertex -1.8700161314797428 6.4540183128063635 -2.85
    endloop
  endfacet
  facet normal -0.6219116983324932 0.7825181992659122 0.029851420315091273
    outer loop
      vertex -1.8700161314797428 6.4540183128063635 -2.85
      vertex -1.7313242243513876 6.5642446558972765 -2.85
      vertex -1.8068903826402944 6.561409773120927 -4.35
    endloop
  endfacet
  facet normal -0.46187417075476916 0.8866825948241606 0.021592276987104236
    outer loop
      vertex -1.5275663300469386 6.670382420432136 -2.85
      vertex -1.8068903826402944 6.561409773120927 -4.35
      vertex -1.7313242243513876 6.5642446558972765 -2.85
    endloop
  endfacet
  facet normal -0.4613988758497192 0.886929309821674 0.021621210508765348
    outer loop
      vertex -1.4706139442232218 6.736576627691985 -4.35
      vertex -1.5275663300469386 6.670382420432136 -2.85
      vertex -1.3580528590073075 6.758566815865855 -2.85
    endloop
  endfacet
  facet normal -0.3286404068509227 0.9443390142619306 0.014809089359760679
    outer loop
      vertex -1.1332525439612189 6.836799808341236 -2.85
      vertex -1.4337946601631355 6.755730776829678 -4.35
      vertex -1.3580528590073075 6.758566815865855 -2.85
    endloop
  endfacet
  facet normal -0.3282844802606268 0.9444624784596134 0.014829929262628246
    outer loop
      vertex -1.0621668701392566 6.88506135225445 -4.35
      vertex -1.1332525439612189 6.836799808341236 -2.85
      vertex -0.9454294228298661 6.902085001885504 -2.85
    endloop
  endfacet
  facet normal -0.19910350985464856 0.979943968596466 0.008222577148814409
    outer loop
      vertex -0.7004743038565027 6.951854606584753 -2.85
      vertex -1.021370513218784 6.899241704712716 -4.35
      vertex -0.9454294228298661 6.902085001885504 -2.85
    endloop
  endfacet
  facet normal -0.19890481202481244 0.9799842176995679 0.00823461068539939
    outer loop
      vertex -0.6156710725997617 6.981671093700136 -4.35
      vertex -0.7004743038565027 6.951854606584753 -2.85
      vertex -0.49486380181180767 6.993586827901061 -2.85
    endloop
  endfacet
  facet normal -0.07824466388378595 0.9969320228781257 0.0020770974559375824
    outer loop
      vertex -0.2306645851907773 7.014322623751205 -2.85
      vertex -0.5710111297187518 6.990735604519135 -4.35
      vertex -0.49486380181180767 6.993586827901061 -2.85
    endloop
  endfacet
  facet normal -0.0781912518236583 0.9969362061601472 0.002080621364308957
    outer loop
      vertex -0.13254864069053104 7.025148532675075 -4.35
      vertex -0.2306645851907773 7.014322623751205 -2.85
      vertex -0.0077546091585389935 7.031805798664749 -2.85
    endloop
  endfacet
  facet normal 0.030787511477772665 0.9995199175971983 -0.00347324970249299
    outer loop
      vertex -0.0077546091585389935 7.031805798664749 -2.85
      vertex 0.24592860345097883 7.023991772468343 -2.85
      vertex 0.33780944024436127 7.015949254525902 -4.35
    endloop
  endfacet
  facet normal 0.029060940082974884 -0.9995775389391854 0.0004532215515962779
    outer loop
      vertex 0.41242759086481995 0.1887542503068827 -4.35
      vertex 0.5124662598063134 0.19234281642781667 -2.85
      vertex 0.38327548338597467 0.18790670460309042 -4.35
    endloop
  endfacet
  facet normal 0.029810013645212147 -0.9995555262764589 0.0003361200133045757
    outer loop
      vertex 0.41242759086481995 0.1887542503068827 -4.35
      vertex 0.7854138593550667 0.1998779202390479 -4.35
      vertex 0.6467001850267011 0.19624542918767535 -2.85
    endloop
  endfacet
  facet normal 0.23280929634075165 -0.9724578318056951 -0.011207002145554602
    outer loop
      vertex 0.8241269029112247 0.20914593797178888 -4.35
      vertex 0.8703028916680333 0.2029139929251149 -2.85
      vertex 0.7854138593550667 0.1998779202390479 -4.35
    endloop
  endfacet
  facet normal 0.22175123019907075 -0.9750570982653091 -0.009489311230762802
    outer loop
      vertex 0.8241269029112247 0.20914593797178888 -4.35
      vertex 1.191590181542334 0.2927158481179745 -4.35
      vertex 1.0485612326217169 0.2455895697645113 -2.85
    endloop
  endfacet
  facet normal 0.38454055618963817 -0.9229339169131593 -0.017931694194837866
    outer loop
      vertex 1.231315702561661 0.3092674924640697 -4.35
      vertex 1.2684581000134472 0.2955993599068421 -2.85
      vertex 1.191590181542334 0.2927158481179745 -4.35
    endloop
  endfacet
  facet normal 0.38467459496484313 -0.9228776302619256 -0.0179537057669566
    outer loop
      vertex 1.231315702561661 0.3092674924640697 -4.35
      vertex 1.5874782372214742 0.45772344617814026 -4.35
      vertex 1.4513780141086192 0.3718129698038294 -2.85
    endloop
  endfacet
  facet normal 0.5192312876382496 -0.8542684600406976 -0.02498535805667611
    outer loop
      vertex 1.6251487629517405 0.48061989676230926 -4.35
      vertex 1.664396578842523 0.4606035390212783 -2.85
      vertex 1.5874782372214742 0.45772344617814026 -4.35
    endloop
  endfacet
  facet normal 0.518812427973834 -0.8545250664445896 -0.024911350781621065
    outer loop
      vertex 1.6251487629517405 0.48061989676230926 -4.35
      vertex 1.9642190756318891 0.6864814906267905 -4.35
      vertex 2.0409767199332047 0.6893553602527615 -2.85
    endloop
  endfacet
  facet normal 0.5933512415267422 -0.8044275098722079 -0.028821615837291027
    outer loop
      vertex 2.0028712770748567 0.714991619174694 -4.35
      vertex 2.0409767199332047 0.6893553602527615 -2.85
      vertex 1.9642190756318891 0.6864814906267905 -4.35
    endloop
  endfacet
  facet normal 0.6286024943123567 -0.7769005831685906 -0.03583835956886775
    outer loop
      vertex 2.2189532222253376 0.8206320474640194 -2.85
      vertex 2.0028712770748567 0.714991619174694 -4.35
      vertex 2.318964647438582 0.9707477420956615 -4.35
    endloop
  endfacet
  facet normal 0.743415380532165 -0.6674498055252448 -0.042945652778005015
    outer loop
      vertex 2.3485074442974194 1.0036529424373017 -4.35
      vertex 2.408625178294923 0.9740986135466092 -2.85
      vertex 2.318964647438582 0.9707477420956615 -4.35
    endloop
  endfacet
  facet normal 0.7196791154407486 -0.6932802772321525 -0.03774159508197272
    outer loop
      vertex 2.3485074442974194 1.0036529424373017 -4.35
      vertex 2.6356750610363937 1.3017553740008174 -4.35
      vertex 2.7171910468595764 1.3047166005292077 -2.85
    endloop
  endfacet
  facet normal 0.8109766202935981 -0.5835021966111366 -0.042919784332537764
    outer loop
      vertex 2.6621370639234123 1.3385334114994756 -4.35
      vertex 2.7171910468595764 1.3047166005292077 -2.85
      vertex 2.6356750610363937 1.3017553740008174 -4.35
    endloop
  endfacet
  facet normal 0.7963127315876719 -0.603602263920451 -0.03937436350579911
    outer loop
      vertex 2.6621370639234123 1.3385334114994756 -4.35
      vertex 2.9144961295587115 1.671462475734135 -4.35
      vertex 2.83903532688717 1.474061057144401 -2.85
    endloop
  endfacet
  facet normal 0.8616635388783179 -0.5056645907688483 -0.04288668103580036
    outer loop
      vertex 3.0982706566928395 1.8573995367203993 -2.85
      vertex 2.9144961295587115 1.671462475734135 -4.35
      vertex 2.9378298653198196 1.7112236725792564 -4.35
    endloop
  endfacet
  facet normal 0.8613852851776304 -0.5061449248563571 -0.042810110039627786
    outer loop
      vertex 2.9378298653198196 1.7112236725792564 -4.35
      vertex 3.149482796819671 2.0714262782073214 -4.35
      vertex 3.0982706566928395 1.8573995367203993 -2.85
    endloop
  endfacet
  facet normal 0.9164550154905456 -0.3975061196569165 -0.045815820602983295
    outer loop
      vertex 3.167651324859689 2.1133140324404542 -4.35
      vertex 3.225711761211694 2.0742858211980706 -2.85
      vertex 3.149482796819671 2.0714262782073214 -4.35
    endloop
  endfacet
  facet normal 0.916267010232368 -0.3979465278421881 -0.04575288994352426
    outer loop
      vertex 3.167651324859689 2.1133140324404542 -4.35
      vertex 3.3326703748774142 2.493268375580465 -4.35
      vertex 3.309367279485797 2.2671545985691814 -2.85
    endloop
  endfacet
  facet normal 0.9602270101684454 -0.27502567684717744 -0.04821790142385229
    outer loop
      vertex 3.345041891806659 2.536462396038482 -4.35
      vertex 3.408809587197306 2.49611929508631 -2.85
      vertex 3.3326703748774142 2.493268375580465 -4.35
    endloop
  endfacet
  facet normal 0.9601326053160806 -0.2753626327574296 -0.0481746893072721
    outer loop
      vertex 3.345041891806659 2.536462396038482 -4.35
      vertex 3.457501484161714 2.928585758309502 -4.35
      vertex 3.465772817843563 2.6950012077863503 -2.85
    endloop
  endfacet
  facet normal 0.9820352819123763 -0.18209927479464771 -0.04946270512763014
    outer loop
      vertex 3.570908926278239 3.132738420314012 -2.85
      vertex 3.457501484161714 2.928585758309502 -4.35
      vertex 3.465608590139167 2.972306218553177 -4.35
    endloop
  endfacet
  facet normal 0.9893553436453166 -0.1347071218077344 -0.055045393401572974
    outer loop
      vertex 3.465608590139167 2.972306218553177 -4.35
      vertex 3.519628826235449 3.3690573964390786 -4.35
      vertex 3.570908926278239 3.132738420314012 -2.85
    endloop
  endfacet
  facet normal 0.9982411483093887 0.019880533838464172 -0.05585135805198125
    outer loop
      vertex 3.518765358266349 3.412413840687816 -4.35
      vertex 3.603493730617915 3.3720572466868903 -2.85
      vertex 3.519628826235449 3.3690573964390786 -4.35
    endloop
  endfacet
  facet normal 0.9980581269459177 0.02619801636825837 -0.056512292251996964
    outer loop
      vertex 3.518765358266349 3.412413840687816 -4.35
      vertex 3.508428942999284 3.8061972140458735 -4.35
      vertex 3.599518069462278 3.571683101281057 -2.85
    endloop
  endfacet
  facet normal -0.1129727861864777 -0.9935173197636333 0.012668263928049178
    outer loop
      vertex 0.25511811120842703 0.22160585672786068 -2.85
      vertex 0.38327548338597467 0.18790670460309042 -4.35
      vertex 0.5124662598063134 0.19234281642781667 -2.85
    endloop
  endfacet
  facet normal 0.029060940082974735 -0.9995775389391856 0.0004532215515962884
    outer loop
      vertex 0.6467001850267011 0.19624542918767535 -2.85
      vertex 0.5124662598063134 0.19234281642781667 -2.85
      vertex 0.41242759086481995 0.1887542503068827 -4.35
    endloop
  endfacet
  facet normal 0.029810013645212196 -0.999555526276459 0.0003361200133045805
    outer loop
      vertex 0.6467001850267011 0.19624542918767535 -2.85
      vertex 0.7854138593550667 0.1998779202390479 -4.35
      vertex 0.8703028916680333 0.2029139929251149 -2.85
    endloop
  endfacet
  facet normal 0.23280929634075126 -0.9724578318056953 -0.011207002145554593
    outer loop
      vertex 0.8241269029112247 0.20914593797178888 -4.35
      vertex 1.0485612326217169 0.2455895697645113 -2.85
      vertex 0.8703028916680333 0.2029139929251149 -2.85
    endloop
  endfacet
  facet normal 0.2217512301990708 -0.9750570982653091 -0.009489311230762796
    outer loop
      vertex 1.0485612326217169 0.2455895697645113 -2.85
      vertex 1.191590181542334 0.2927158481179745 -4.35
      vertex 1.2684581000134472 0.2955993599068421 -2.85
    endloop
  endfacet
  facet normal 0.3845405561896368 -0.9229339169131601 -0.01793169419483784
    outer loop
      vertex 1.4513780141086192 0.3718129698038294 -2.85
      vertex 1.2684581000134472 0.2955993599068421 -2.85
      vertex 1.231315702561661 0.3092674924640697 -4.35
    endloop
  endfacet
  facet normal 0.3846745949648436 -0.9228776302619256 -0.017953705766956565
    outer loop
      vertex 1.4513780141086192 0.3718129698038294 -2.85
      vertex 1.5874782372214742 0.45772344617814026 -4.35
      vertex 1.664396578842523 0.4606035390212783 -2.85
    endloop
  endfacet
  facet normal 0.5192312876382498 -0.8542684600406977 -0.02498535805667612
    outer loop
      vertex 1.6251487629517405 0.48061989676230926 -4.35
      vertex 1.8378537951625664 0.5660322397083104 -2.85
      vertex 1.664396578842523 0.4606035390212783 -2.85
    endloop
  endfacet
  facet normal 0.5188124279738336 -0.8545250664445899 -0.024911350781620895
    outer loop
      vertex 1.6251487629517405 0.48061989676230926 -4.35
      vertex 2.0409767199332047 0.6893553602527615 -2.85
      vertex 1.8378537951625664 0.5660322397083104 -2.85
    endloop
  endfacet
  facet normal 0.5933512415267451 -0.8044275098722058 -0.028821615837291068
    outer loop
      vertex 2.2189532222253376 0.8206320474640194 -2.85
      vertex 2.0409767199332047 0.6893553602527615 -2.85
      vertex 2.0028712770748567 0.714991619174694 -4.35
    endloop
  endfacet
  facet normal 0.6286024943123565 -0.7769005831685908 -0.03583835956886779
    outer loop
      vertex 2.2189532222253376 0.8206320474640194 -2.85
      vertex 2.318964647438582 0.9707477420956615 -4.35
      vertex 2.408625178294923 0.9740986135466092 -2.85
    endloop
  endfacet
  facet normal 0.7434153805321658 -0.6674498055252441 -0.04294565277800503
    outer loop
      vertex 2.5446559852338786 1.1256117210004946 -2.85
      vertex 2.408625178294923 0.9740986135466092 -2.85
      vertex 2.3485074442974194 1.0036529424373017 -4.35
    endloop
  endfacet
  facet normal 0.7196791154407494 -0.6932802772321517 -0.037741595081973105
    outer loop
      vertex 2.3485074442974194 1.0036529424373017 -4.35
      vertex 2.7171910468595764 1.3047166005292077 -2.85
      vertex 2.5446559852338786 1.1256117210004946 -2.85
    endloop
  endfacet
  facet normal 0.8109766202935977 -0.5835021966111373 -0.042919784332537764
    outer loop
      vertex 2.6621370639234123 1.3385334114994756 -4.35
      vertex 2.83903532688717 1.474061057144401 -2.85
      vertex 2.7171910468595764 1.3047166005292077 -2.85
    endloop
  endfacet
  facet normal 0.7963127315876721 -0.6036022639204507 -0.03937436350579905
    outer loop
      vertex 2.83903532688717 1.474061057144401 -2.85
      vertex 2.9144961295587115 1.671462475734135 -4.35
      vertex 2.9908313048322928 1.6743205277706297 -2.85
    endloop
  endfacet
  facet normal 0.8616635388783181 -0.5056645907688482 -0.042886681035800366
    outer loop
      vertex 3.0982706566928395 1.8573995367203993 -2.85
      vertex 2.9908313048322928 1.6743205277706297 -2.85
      vertex 2.9144961295587115 1.671462475734135 -4.35
    endloop
  endfacet
  facet normal 0.8613852851776297 -0.5061449248563582 -0.04281011003962796
    outer loop
      vertex 3.0982706566928395 1.8573995367203993 -2.85
      vertex 3.149482796819671 2.0714262782073214 -4.35
      vertex 3.225711761211694 2.0742858211980706 -2.85
    endloop
  endfacet
  facet normal 0.9164550154905481 -0.3975061196569109 -0.04581582060298325
    outer loop
      vertex 3.167651324859689 2.1133140324404542 -4.35
      vertex 3.309367279485797 2.2671545985691814 -2.85
      vertex 3.225711761211694 2.0742858211980706 -2.85
    endloop
  endfacet
  facet normal 0.9162670102323682 -0.39794652784218776 -0.04575288994352421
    outer loop
      vertex 3.309367279485797 2.2671545985691814 -2.85
      vertex 3.3326703748774142 2.493268375580465 -4.35
      vertex 3.408809587197306 2.49611929508631 -2.85
    endloop
  endfacet
  facet normal 0.960227010168444 -0.27502567684718154 -0.04821790142385235
    outer loop
      vertex 3.345041891806659 2.536462396038482 -4.35
      vertex 3.465772817843563 2.6950012077863503 -2.85
      vertex 3.408809587197306 2.49611929508631 -2.85
    endloop
  endfacet
  facet normal 0.9601326053160808 -0.27536263275742917 -0.048174689307272034
    outer loop
      vertex 3.465772817843563 2.6950012077863503 -2.85
      vertex 3.457501484161714 2.928585758309502 -4.35
      vertex 3.5335810330647357 2.9314344438074844 -2.85
    endloop
  endfacet
  facet normal 0.9820352819123759 -0.18209927479465032 -0.04946270512762978
    outer loop
      vertex 3.570908926278239 3.132738420314012 -2.85
      vertex 3.5335810330647357 2.9314344438074844 -2.85
      vertex 3.457501484161714 2.928585758309502 -4.35
    endloop
  endfacet
  facet normal 0.9893553436453166 -0.13470712180773387 -0.055045393401572884
    outer loop
      vertex 3.570908926278239 3.132738420314012 -2.85
      vertex 3.519628826235449 3.3690573964390786 -4.35
      vertex 3.603493730617915 3.3720572466868903 -2.85
    endloop
  endfacet
  facet normal 0.9982411483093887 0.019880533838466316 -0.05585135805198121
    outer loop
      vertex 3.518765358266349 3.412413840687816 -4.35
      vertex 3.599518069462278 3.571683101281057 -2.85
      vertex 3.603493730617915 3.3720572466868903 -2.85
    endloop
  endfacet
  facet normal 0.030665529076234484 0.9995236414235686 -0.003480741565204908
    outer loop
      vertex 0.33780944024436127 7.015949254525902 -4.35
      vertex 0.46115566661103646 7.017388575215373 -2.85
      vertex 0.3845581002280084 7.014514998913937 -4.35
    endloop
  endfacet
  facet normal 0.1415576861008951 0.9898879512188072 -0.009124995210560915
    outer loop
      vertex 0.7861056521666228 6.957092194401646 -4.35
      vertex 0.3845581002280084 7.014514998913937 -4.35
      vertex 0.7020631421977912 6.982937903534321 -2.85
    endloop
  endfacet
  facet normal 0.14136149884633525 0.9899158810662871 -0.009136468501234616
    outer loop
      vertex 0.7861056521666228 6.957092194401646 -4.35
      vertex 0.9075460105931538 6.953594636273748 -2.85
      vertex 0.8307377358675725 6.950718664721725 -4.35
    endloop
  endfacet
  facet normal 0.2575289513949028 0.9661535374651371 -0.0150393230247777
    outer loop
      vertex 1.2096455173289322 6.849720510855695 -4.35
      vertex 0.8307377358675725 6.950718664721725 -4.35
      vertex 1.1344074376615512 6.89312455242128 -2.85
    endloop
  endfacet
  facet normal 0.2940905528476572 0.9556904664009732 -0.012902680188616133
    outer loop
      vertex 1.2096455173289322 6.849720510855695 -4.35
      vertex 1.3054457466189986 6.840491662790339 -2.85
      vertex 1.2467959663427721 6.838288361563505 -4.35
    endloop
  endfacet
  facet normal 0.3759393549876114 0.9265050863217302 -0.016060086907047286
    outer loop
      vertex 1.6008864309275799 6.69461236579347 -4.35
      vertex 1.2467959663427721 6.838288361563505 -4.35
      vertex 1.5170891425625308 6.754615089706131 -2.85
    endloop
  endfacet
  facet normal 0.3624595806235024 0.931843948314938 -0.017026696774828785
    outer loop
      vertex 1.6008864309275799 6.69461236579347 -4.35
      vertex 1.705557573338812 6.681306475636716 -2.85
      vertex 1.641822587592788 6.678689418390055 -4.35
    endloop
  endfacet
  facet normal 0.4932287506567885 0.8696092780872586 -0.022474496437080764
    outer loop
      vertex 1.969009210836954 6.493114294618043 -4.35
      vertex 1.641822587592788 6.678689418390055 -4.35
      vertex 1.705557573338812 6.681306475636716 -2.85
    endloop
  endfacet
  facet normal 0.9760722416756737 0.21020764856059565 -0.05563922642210267
    outer loop
      vertex 3.497643014613523 3.8562802884255776 -4.35
      vertex 3.593282998780907 3.8092187558187893 -2.85
      vertex 3.508428942999284 3.8061972140458735 -4.35
    endloop
  endfacet
  facet normal 0.985159354960847 0.1641133186546267 -0.050277867628737684
    outer loop
      vertex 3.4979053281780184 4.314246658231797 -2.85
      vertex 3.497643014613523 3.8562802884255776 -4.35
      vertex 3.4218269409555857 4.311398220552117 -4.35
    endloop
  endfacet
  facet normal 0.961200595226155 0.27141523717021626 -0.04926646698029546
    outer loop
      vertex 3.4087798365578768 4.35760374918716 -4.35
      vertex 3.4979053281780184 4.314246658231797 -2.85
      vertex 3.4218269409555857 4.311398220552117 -4.35
    endloop
  endfacet
  facet normal 0.8824950251062647 0.46840062642591035 -0.04246626692455983
    outer loop
      vertex 3.0921417943845975 5.239441380191994 -4.35
      vertex 3.1972346080576597 5.177433596223644 -2.85
      vertex 3.1154442250868213 5.19553819559442 -4.35
    endloop
  endfacet
  facet normal 0.9611338953959506 0.2716468299373379 -0.04929132688415718
    outer loop
      vertex 3.4087798365578768 4.35760374918716 -4.35
      vertex 3.29030835143334 4.776776540628737 -4.35
      vertex 3.4378338344118404 4.526986208767653 -2.85
    endloop
  endfacet
  facet normal 0.9147197611720314 0.40132478844674635 -0.047182334613244455
    outer loop
      vertex 3.29030835143334 4.776776540628737 -4.35
      vertex 3.2743491696630658 4.813151515107403 -4.35
      vertex 3.366429618160626 4.779626788188572 -2.85
    endloop
  endfacet
  facet normal 0.9224753888352694 0.38334468227063484 -0.045672875627055215
    outer loop
      vertex 3.2743491696630658 4.813151515107403 -4.35
      vertex 3.1154442250868213 5.19553819559442 -4.35
      vertex 3.292951083487493 4.947102781753806 -2.85
    endloop
  endfacet
  facet normal 0.7068668972337776 0.7063569965632563 -0.03740298118102177
    outer loop
      vertex 2.6068048977887117 5.953867327747084 -4.35
      vertex 2.340144975249327 6.220719745121185 -4.35
      vertex 2.5767821903701225 6.063339634508816 -2.85
    endloop
  endfacet
  facet normal 0.7073049022539383 0.7059205544082966 -0.0373623622303297
    outer loop
      vertex 2.6068048977887117 5.953867327747084 -4.35
      vertex 2.7127093150887434 5.927145949451228 -2.85
      vertex 2.636328350576461 5.92428597789428 -4.35
    endloop
  endfacet
  facet normal 0.45747469100411364 0.8888690411669491 -0.025074583658343842
    outer loop
      vertex 1.9014505432451987 6.570199053896811 -2.85
      vertex 2.0090203878910438 6.472521721345944 -4.35
      vertex 1.969009210836954 6.493114294618043 -4.35
    endloop
  endfacet
  facet normal 0.604944585506988 0.7956068643232462 -0.03243094058935193
    outer loop
      vertex 2.3070762803843587 6.245893085486127 -4.35
      vertex 2.0090203878910438 6.472521721345944 -4.35
      vertex 2.264404720171433 6.339482449189405 -2.85
    endloop
  endfacet
  facet normal 0.6053924794224265 0.7952674887535875 -0.032397024405484816
    outer loop
      vertex 2.3070762803843587 6.245893085486127 -4.35
      vertex 2.416653143691393 6.223584274164849 -2.85
      vertex 2.340144975249327 6.220719745121185 -4.35
    endloop
  endfacet
  facet normal 0.7954784122105407 0.6045522192416359 -0.04160180184811869
    outer loop
      vertex 2.8693210610684847 5.618066352140252 -4.35
      vertex 2.9713490894379455 5.587037781507158 -2.85
      vertex 2.895072887405239 5.584181732625366 -4.35
    endloop
  endfacet
  facet normal 0.8672811428163979 0.4957764463957523 -0.04504591562264525
    outer loop
      vertex 3.0921417943845975 5.239441380191994 -4.35
      vertex 2.895072887405239 5.584181732625366 -4.35
      vertex 3.0899477778880313 5.379568453742019 -2.85
    endloop
  endfacet
  facet normal 0.7951389766584877 0.604995793242616 -0.04164250181282086
    outer loop
      vertex 2.8693210610684847 5.618066352140252 -4.35
      vertex 2.636328350576461 5.92428597789428 -4.35
      vertex 2.8527858077415975 5.743045034592081 -2.85
    endloop
  endfacet
  facet normal 0.03066552907623409 0.9995236414235688 -0.003480741565204876
    outer loop
      vertex 0.33780944024436127 7.015949254525902 -4.35
      vertex 0.24592860345097883 7.023991772468343 -2.85
      vertex 0.46115566661103646 7.017388575215373 -2.85
    endloop
  endfacet
  facet normal 0.14155768610089198 0.9898879512188077 -0.009124995210560236
    outer loop
      vertex 0.7020631421977912 6.982937903534321 -2.85
      vertex 0.3845581002280084 7.014514998913937 -4.35
      vertex 0.46115566661103646 7.017388575215373 -2.85
    endloop
  endfacet
  facet normal 0.14136149884633828 0.9899158810662867 -0.009136468501234861
    outer loop
      vertex 0.7861056521666228 6.957092194401646 -4.35
      vertex 0.7020631421977912 6.982937903534321 -2.85
      vertex 0.9075460105931538 6.953594636273748 -2.85
    endloop
  endfacet
  facet normal 0.2575289513949043 0.9661535374651368 -0.015039323024778024
    outer loop
      vertex 1.1344074376615512 6.89312455242128 -2.85
      vertex 0.8307377358675725 6.950718664721725 -4.35
      vertex 0.9075460105931538 6.953594636273748 -2.85
    endloop
  endfacet
  facet normal 0.29409055284765906 0.9556904664009724 -0.01290268018861625
    outer loop
      vertex 1.2096455173289322 6.849720510855695 -4.35
      vertex 1.1344074376615512 6.89312455242128 -2.85
      vertex 1.3054457466189986 6.840491662790339 -2.85
    endloop
  endfacet
  facet normal 0.3759393549876103 0.9265050863217307 -0.01606008690704704
    outer loop
      vertex 1.5170891425625308 6.754615089706131 -2.85
      vertex 1.2467959663427721 6.838288361563505 -4.35
      vertex 1.3054457466189986 6.840491662790339 -2.85
    endloop
  endfacet
  facet normal 0.49322875065678945 0.8696092780872582 -0.022474496437080514
    outer loop
      vertex 1.969009210836954 6.493114294618043 -4.35
      vertex 1.705557573338812 6.681306475636716 -2.85
      vertex 1.9014505432451987 6.570199053896811 -2.85
    endloop
  endfacet
  facet normal 0.362459580623498 0.9318439483149397 -0.01702669677482846
    outer loop
      vertex 1.6008864309275799 6.69461236579347 -4.35
      vertex 1.5170891425625308 6.754615089706131 -2.85
      vertex 1.705557573338812 6.681306475636716 -2.85
    endloop
  endfacet
  facet normal 0.9980581269459177 0.026198016368257603 -0.05651229225199708
    outer loop
      vertex 3.599518069462278 3.571683101281057 -2.85
      vertex 3.508428942999284 3.8061972140458735 -4.35
      vertex 3.593282998780907 3.8092187558187893 -2.85
    endloop
  endfacet
  facet normal 0.9760722416756729 0.21020764856060029 -0.05563922642210246
    outer loop
      vertex 3.497643014613523 3.8562802884255776 -4.35
      vertex 3.543621881524631 4.0398137811490775 -2.85
      vertex 3.593282998780907 3.8092187558187893 -2.85
    endloop
  endfacet
  facet normal 0.9851593549608473 0.16411331865462572 -0.05027786762873739
    outer loop
      vertex 3.4979053281780184 4.314246658231797 -2.85
      vertex 3.543621881524631 4.0398137811490775 -2.85
      vertex 3.497643014613523 3.8562802884255776 -4.35
    endloop
  endfacet
  facet normal 0.9612005952261552 0.27141523717021593 -0.049266466980295465
    outer loop
      vertex 3.4087798365578768 4.35760374918716 -4.35
      vertex 3.4378338344118404 4.526986208767653 -2.85
      vertex 3.4979053281780184 4.314246658231797 -2.85
    endloop
  endfacet
  facet normal 0.8824950251062668 0.4684006264259063 -0.042466266924560146
    outer loop
      vertex 3.0921417943845975 5.239441380191994 -4.35
      vertex 3.0899477778880313 5.379568453742019 -2.85
      vertex 3.1972346080576597 5.177433596223644 -2.85
    endloop
  endfacet
  facet normal 0.9611338953959507 0.27164682993733724 -0.0492913268841573
    outer loop
      vertex 3.4378338344118404 4.526986208767653 -2.85
      vertex 3.29030835143334 4.776776540628737 -4.35
      vertex 3.366429618160626 4.779626788188572 -2.85
    endloop
  endfacet
  facet normal 0.9147197611720251 0.4013247884467605 -0.04718233461324376
    outer loop
      vertex 3.366429618160626 4.779626788188572 -2.85
      vertex 3.2743491696630658 4.813151515107403 -4.35
      vertex 3.292951083487493 4.947102781753806 -2.85
    endloop
  endfacet
  facet normal 0.9224753888352694 0.38334468227063506 -0.045672875627055166
    outer loop
      vertex 3.292951083487493 4.947102781753806 -2.85
      vertex 3.1154442250868213 5.19553819559442 -4.35
      vertex 3.1972346080576597 5.177433596223644 -2.85
    endloop
  endfacet
  facet normal 0.7068668972337788 0.7063569965632551 -0.037402981181022074
    outer loop
      vertex 2.5767821903701225 6.063339634508816 -2.85
      vertex 2.340144975249327 6.220719745121185 -4.35
      vertex 2.416653143691393 6.223584274164849 -2.85
    endloop
  endfacet
  facet normal 0.7951389766584892 0.6049957932426138 -0.04164250181282136
    outer loop
      vertex 2.8527858077415975 5.743045034592081 -2.85
      vertex 2.636328350576461 5.92428597789428 -4.35
      vertex 2.7127093150887434 5.927145949451228 -2.85
    endloop
  endfacet
  facet normal 0.7073049022539325 0.7059205544083024 -0.03736236223032919
    outer loop
      vertex 2.6068048977887117 5.953867327747084 -4.35
      vertex 2.5767821903701225 6.063339634508816 -2.85
      vertex 2.7127093150887434 5.927145949451228 -2.85
    endloop
  endfacet
  facet normal 0.4574746910041167 0.8888690411669474 -0.025074583658343523
    outer loop
      vertex 1.9014505432451987 6.570199053896811 -2.85
      vertex 2.0856609047989485 6.475391411456117 -2.85
      vertex 2.0090203878910438 6.472521721345944 -4.35
    endloop
  endfacet
  facet normal 0.6049445855069883 0.795606864323246 -0.03243094058935197
    outer loop
      vertex 2.264404720171433 6.339482449189405 -2.85
      vertex 2.0090203878910438 6.472521721345944 -4.35
      vertex 2.0856609047989485 6.475391411456117 -2.85
    endloop
  endfacet
  facet normal 0.6053924794224192 0.795267488753593 -0.032397024405484205
    outer loop
      vertex 2.3070762803843587 6.245893085486127 -4.35
      vertex 2.264404720171433 6.339482449189405 -2.85
      vertex 2.416653143691393 6.223584274164849 -2.85
    endloop
  endfacet
  facet normal 0.7954784122105394 0.6045522192416378 -0.04160180184811855
    outer loop
      vertex 2.8693210610684847 5.618066352140252 -4.35
      vertex 2.8527858077415975 5.743045034592081 -2.85
      vertex 2.9713490894379455 5.587037781507158 -2.85
    endloop
  endfacet
  facet normal 0.8672811428163978 0.49577644639575263 -0.0450459156226452
    outer loop
      vertex 3.0899477778880313 5.379568453742019 -2.85
      vertex 2.895072887405239 5.584181732625366 -4.35
      vertex 2.9713490894379455 5.587037781507158 -2.85
    endloop
  endfacet
endsolid OpenSCAD_Model
