solid OpenSCAD_Model
  facet normal 0 0 -1
    outer loop
      vertex -55.864043790736545 -104.9290569265353 0
      vertex -55.875 -104.71999999999998 0
      vertex -53.875 -104.71999999999998 0
    endloop
  endfacet
  facet normal -0.96592582628907 -0.25881904510251486 0
    outer loop
      vertex -55.77711303259031 -105.33803398874988 0
      vertex -55.77711303259031 -105.33803398874988 15
      vertex -55.83129520146761 -105.1358233816355 0
    endloop
  endfacet
  facet normal -0.9876883405951384 -0.15643446504022634 0
    outer loop
      vertex -55.83129520146761 -105.1358233816355 0
      vertex -55.83129520146761 -105.1358233816355 15
      vertex -55.864043790736545 -104.9290569265353 0
    endloop
  endfacet
  facet normal -0.9335804264972053 -0.3583679495452912 0
    outer loop
      vertex -55.702090915285204 -105.53347328615159 0
      vertex -55.702090915285204 -105.53347328615159 15
      vertex -55.77711303259031 -105.33803398874988 0
    endloop
  endfacet
  facet normal -0.838670567945416 -0.5446390350150396 0
    outer loop
      vertex -55.49303398874989 -105.89557050458492 0
      vertex -55.607050807568875 -105.71999999999998 15
      vertex -55.607050807568875 -105.71999999999998 0
    endloop
  endfacet
  facet normal -0.8910065241883536 -0.4539904997395747 0
    outer loop
      vertex -55.702090915285204 -105.53347328615159 0
      vertex -55.607050807568875 -105.71999999999998 0
      vertex -55.607050807568875 -105.71999999999998 15
    endloop
  endfacet
  facet normal -0.7771459614569765 -0.6293203910498305 0
    outer loop
      vertex -55.49303398874989 -105.89557050458492 0
      vertex -55.36128965095479 -106.0582612127177 0
      vertex -55.36128965095479 -106.0582612127177 15
    endloop
  endfacet
  facet normal -0.7071067811865646 -0.7071067811865306 0
    outer loop
      vertex -55.36128965095479 -106.0582612127177 0
      vertex -55.21326121271772 -106.20628965095477 0
      vertex -55.21326121271772 -106.20628965095477 15
    endloop
  endfacet
  facet normal -0.6293203910498509 -0.7771459614569598 0
    outer loop
      vertex -55.05057050458495 -106.33803398874988 0
      vertex -55.05057050458495 -106.33803398874988 15
      vertex -55.21326121271772 -106.20628965095477 0
    endloop
  endfacet
  facet normal -0.9986295347545737 -0.05233595624294961 0
    outer loop
      vertex -55.864043790736545 -104.9290569265353 0
      vertex -55.864043790736545 -104.9290569265353 15
      vertex -55.875 -104.71999999999998 0
    endloop
  endfacet
  facet normal -0.5446390350150241 -0.8386705679454259 0
    outer loop
      vertex -55.05057050458495 -106.33803398874988 0
      vertex -54.875 -106.45205080756887 0
      vertex -54.875 -106.45205080756887 15
    endloop
  endfacet
  facet normal -0.4539904997395071 -0.8910065241883881 0
    outer loop
      vertex -54.875 -106.45205080756887 0
      vertex -54.6884732861516 -106.54709091528518 0
      vertex -54.6884732861516 -106.54709091528518 15
    endloop
  endfacet
  facet normal -0.3583679495453208 -0.933580426497194 0
    outer loop
      vertex -54.6884732861516 -106.54709091528518 0
      vertex -54.49303398874989 -106.62211303259029 0
      vertex -54.49303398874989 -106.62211303259029 15
    endloop
  endfacet
  facet normal -0.2588190451025233 -0.9659258262890675 0
    outer loop
      vertex -54.49303398874989 -106.62211303259029 0
      vertex -54.29082338163552 -106.6762952014676 0
      vertex -54.29082338163552 -106.6762952014676 15
    endloop
  endfacet
  facet normal -0.1564344650402211 -0.9876883405951392 0
    outer loop
      vertex -54.29082338163552 -106.6762952014676 0
      vertex -54.084056926535304 -106.70904379073653 0
      vertex -54.084056926535304 -106.70904379073653 15
    endloop
  endfacet
  facet normal -0.05233595624295138 -0.9986295347545735 0
    outer loop
      vertex -54.084056926535304 -106.70904379073653 0
      vertex -53.875 -106.71999999999998 0
      vertex -53.875 -106.71999999999998 15
    endloop
  endfacet
  facet normal 0 0 -1
    outer loop
      vertex -55.875 -104.71999999999998 0
      vertex -55.875 104.71999999999998 0
      vertex -53.875 -104.71999999999998 0
    endloop
  endfacet
  facet normal -1 0 0
    outer loop
      vertex -55.875 -104.71999999999998 0
      vertex -55.875 -104.71999999999998 15
      vertex -55.875 104.71999999999998 0
    endloop
  endfacet
  facet normal 0 0 -1
    outer loop
      vertex -55.77711303259031 -105.33803398874988 0
      vertex -55.83129520146761 -105.1358233816355 0
      vertex 55.875 -104.71999999999998 0
    endloop
  endfacet
  facet normal 0 0 -1
    outer loop
      vertex -55.702090915285204 -105.53347328615159 0
      vertex 55.875 -104.71999999999998 0
      vertex -55.607050807568875 -105.71999999999998 0
    endloop
  endfacet
  facet normal 0 0 -1
    outer loop
      vertex -55.702090915285204 -105.53347328615159 0
      vertex -55.77711303259031 -105.33803398874988 0
      vertex 55.875 -104.71999999999998 0
    endloop
  endfacet
  facet normal 0 0 -1
    outer loop
      vertex -55.49303398874989 -105.89557050458492 0
      vertex -55.607050807568875 -105.71999999999998 0
      vertex 55.875 -104.71999999999998 0
    endloop
  endfacet
  facet normal 0 0 -1
    outer loop
      vertex -55.83129520146761 -105.1358233816355 0
      vertex -55.864043790736545 -104.9290569265353 0
      vertex 55.875 -104.71999999999998 0
    endloop
  endfacet
  facet normal 0 0 -1
    outer loop
      vertex -55.864043790736545 -104.9290569265353 0
      vertex -53.875 -104.71999999999998 0
      vertex 53.875 -104.71999999999998 0
    endloop
  endfacet
  facet normal 0 0 -1
    outer loop
      vertex -55.49303398874989 -105.89557050458492 0
      vertex 55.875 -104.71999999999998 0
      vertex -55.36128965095479 -106.0582612127177 0
    endloop
  endfacet
  facet normal 0 0 -1
    outer loop
      vertex -55.36128965095479 -106.0582612127177 0
      vertex 55.875 -104.71999999999998 0
      vertex -55.21326121271772 -106.20628965095477 0
    endloop
  endfacet
  facet normal 0 0 -1
    outer loop
      vertex -55.05057050458495 -106.33803398874988 0
      vertex -55.21326121271772 -106.20628965095477 0
      vertex 55.875 -104.71999999999998 0
    endloop
  endfacet
  facet normal 0 0 -1
    outer loop
      vertex -55.05057050458495 -106.33803398874988 0
      vertex 55.875 -104.71999999999998 0
      vertex -54.875 -106.45205080756887 0
    endloop
  endfacet
  facet normal 0 0 -1
    outer loop
      vertex -54.875 -106.45205080756887 0
      vertex 55.875 -104.71999999999998 0
      vertex -54.6884732861516 -106.54709091528518 0
    endloop
  endfacet
  facet normal 0 0 -1
    outer loop
      vertex -54.6884732861516 -106.54709091528518 0
      vertex 55.875 -104.71999999999998 0
      vertex -54.49303398874989 -106.62211303259029 0
    endloop
  endfacet
  facet normal 0 0 -1
    outer loop
      vertex -54.49303398874989 -106.62211303259029 0
      vertex 55.875 -104.71999999999998 0
      vertex -54.29082338163552 -106.6762952014676 0
    endloop
  endfacet
  facet normal 0 0 -1
    outer loop
      vertex -54.29082338163552 -106.6762952014676 0
      vertex 55.875 -104.71999999999998 0
      vertex -54.084056926535304 -106.70904379073653 0
    endloop
  endfacet
  facet normal 0 0 -1
    outer loop
      vertex -54.084056926535304 -106.70904379073653 0
      vertex 55.875 -104.71999999999998 0
      vertex -53.875 -106.71999999999998 0
    endloop
  endfacet
  facet normal -0.7771459614569765 -0.6293203910498305 0
    outer loop
      vertex -55.49303398874989 -105.89557050458492 0
      vertex -55.36128965095479 -106.0582612127177 15
      vertex -55.49303398874989 -105.89557050458492 15
    endloop
  endfacet
  facet normal -0.8910065241883536 -0.4539904997395747 0
    outer loop
      vertex -55.702090915285204 -105.53347328615159 0
      vertex -55.607050807568875 -105.71999999999998 15
      vertex -55.702090915285204 -105.53347328615159 15
    endloop
  endfacet
  facet normal -0.96592582628907 -0.25881904510251486 0
    outer loop
      vertex -55.83129520146761 -105.1358233816355 0
      vertex -55.77711303259031 -105.33803398874988 15
      vertex -55.83129520146761 -105.1358233816355 15
    endloop
  endfacet
  facet normal -0.9335804264972053 -0.3583679495452912 0
    outer loop
      vertex -55.77711303259031 -105.33803398874988 0
      vertex -55.702090915285204 -105.53347328615159 15
      vertex -55.77711303259031 -105.33803398874988 15
    endloop
  endfacet
  facet normal -0.838670567945416 -0.5446390350150396 0
    outer loop
      vertex -55.49303398874989 -105.89557050458492 0
      vertex -55.49303398874989 -105.89557050458492 15
      vertex -55.607050807568875 -105.71999999999998 15
    endloop
  endfacet
  facet normal -0.7071067811865646 -0.7071067811865306 0
    outer loop
      vertex -55.36128965095479 -106.0582612127177 0
      vertex -55.21326121271772 -106.20628965095477 15
      vertex -55.36128965095479 -106.0582612127177 15
    endloop
  endfacet
  facet normal -0.6293203910498509 -0.7771459614569598 0
    outer loop
      vertex -55.21326121271772 -106.20628965095477 0
      vertex -55.05057050458495 -106.33803398874988 15
      vertex -55.21326121271772 -106.20628965095477 15
    endloop
  endfacet
  facet normal -0.9876883405951384 -0.15643446504022634 0
    outer loop
      vertex -55.864043790736545 -104.9290569265353 0
      vertex -55.83129520146761 -105.1358233816355 15
      vertex -55.864043790736545 -104.9290569265353 15
    endloop
  endfacet
  facet normal -0.9986295347545737 -0.05233595624294961 0
    outer loop
      vertex -55.875 -104.71999999999998 0
      vertex -55.864043790736545 -104.9290569265353 15
      vertex -55.875 -104.71999999999998 15
    endloop
  endfacet
  facet normal -0.5446390350150241 -0.8386705679454259 0
    outer loop
      vertex -55.05057050458495 -106.33803398874988 0
      vertex -54.875 -106.45205080756887 15
      vertex -55.05057050458495 -106.33803398874988 15
    endloop
  endfacet
  facet normal -0.4539904997395071 -0.8910065241883881 0
    outer loop
      vertex -54.875 -106.45205080756887 0
      vertex -54.6884732861516 -106.54709091528518 15
      vertex -54.875 -106.45205080756887 15
    endloop
  endfacet
  facet normal -0.3583679495453208 -0.933580426497194 0
    outer loop
      vertex -54.6884732861516 -106.54709091528518 0
      vertex -54.49303398874989 -106.62211303259029 15
      vertex -54.6884732861516 -106.54709091528518 15
    endloop
  endfacet
  facet normal -0.2588190451025233 -0.9659258262890675 0
    outer loop
      vertex -54.49303398874989 -106.62211303259029 0
      vertex -54.29082338163552 -106.6762952014676 15
      vertex -54.49303398874989 -106.62211303259029 15
    endloop
  endfacet
  facet normal -0.1564344650402211 -0.9876883405951392 0
    outer loop
      vertex -54.29082338163552 -106.6762952014676 0
      vertex -54.084056926535304 -106.70904379073653 15
      vertex -54.29082338163552 -106.6762952014676 15
    endloop
  endfacet
  facet normal -0.05233595624295138 -0.9986295347545735 0
    outer loop
      vertex -54.084056926535304 -106.70904379073653 0
      vertex -53.875 -106.71999999999998 15
      vertex -54.084056926535304 -106.70904379073653 15
    endloop
  endfacet
  facet normal 0 0 1
    outer loop
      vertex -55.49303398874989 -105.89557050458492 15
      vertex -55.36128965095479 -106.0582612127177 15
      vertex -55.607050807568875 -105.71999999999998 15
    endloop
  endfacet
  facet normal 0 0 1
    outer loop
      vertex -55.607050807568875 -105.71999999999998 15
      vertex -55.36128965095479 -106.0582612127177 15
      vertex -55.21326121271772 -106.20628965095477 15
    endloop
  endfacet
  facet normal 0 0 1
    outer loop
      vertex -55.607050807568875 -105.71999999999998 15
      vertex -55.21326121271772 -106.20628965095477 15
      vertex -55.05057050458495 -106.33803398874988 15
    endloop
  endfacet
  facet normal 0 0 1
    outer loop
      vertex -55.607050807568875 -105.71999999999998 15
      vertex -55.05057050458495 -106.33803398874988 15
      vertex -54.875 -106.45205080756887 15
    endloop
  endfacet
  facet normal 0 0 1
    outer loop
      vertex -55.607050807568875 -105.71999999999998 15
      vertex -54.875 -106.45205080756887 15
      vertex -54.6884732861516 -106.54709091528518 15
    endloop
  endfacet
  facet normal 0 0 1
    outer loop
      vertex -55.607050807568875 -105.71999999999998 15
      vertex -54.49303398874989 -106.62211303259029 15
      vertex -54.29082338163552 -106.6762952014676 15
    endloop
  endfacet
  facet normal 0 0 1
    outer loop
      vertex -55.607050807568875 -105.71999999999998 15
      vertex -54.6884732861516 -106.54709091528518 15
      vertex -54.49303398874989 -106.62211303259029 15
    endloop
  endfacet
  facet normal 0 0 1
    outer loop
      vertex -55.607050807568875 -105.71999999999998 15
      vertex -54.29082338163552 -106.6762952014676 15
      vertex -54.084056926535304 -106.70904379073653 15
    endloop
  endfacet
  facet normal 0 0 1
    outer loop
      vertex -55.607050807568875 -105.71999999999998 15
      vertex -54.084056926535304 -106.70904379073653 15
      vertex -53.875 -106.71999999999998 15
    endloop
  endfacet
  facet normal 0 0 1
    outer loop
      vertex -55.77711303259031 -105.33803398874988 15
      vertex -54.875 106.45205080756887 15
      vertex -55.83129520146761 -105.1358233816355 15
    endloop
  endfacet
  facet normal 0 0 1
    outer loop
      vertex -55.702090915285204 -105.53347328615159 15
      vertex -54.875 106.45205080756887 15
      vertex -55.77711303259031 -105.33803398874988 15
    endloop
  endfacet
  facet normal 0 0 1
    outer loop
      vertex -55.864043790736545 -104.9290569265353 15
      vertex -54.875 106.45205080756887 15
      vertex -55.875 -104.71999999999998 15
    endloop
  endfacet
  facet normal 0 0 1
    outer loop
      vertex -55.83129520146761 -105.1358233816355 15
      vertex -54.875 106.45205080756887 15
      vertex -55.864043790736545 -104.9290569265353 15
    endloop
  endfacet
  facet normal 0 0 1
    outer loop
      vertex -55.702090915285204 -105.53347328615159 15
      vertex -55.607050807568875 -105.71999999999998 15
      vertex -54.875 106.45205080756887 15
    endloop
  endfacet
  facet normal 0 0 1
    outer loop
      vertex -55.607050807568875 -105.71999999999998 15
      vertex -53.875 -104.71999999999998 15
      vertex -53.875 104.71999999999998 15
    endloop
  endfacet
  facet normal 0 -1 0
    outer loop
      vertex -53.875 -106.71999999999998 0
      vertex 53.875 -106.71999999999998 15
      vertex -53.875 -106.71999999999998 15
    endloop
  endfacet
  facet normal 0 0 1
    outer loop
      vertex -55.607050807568875 -105.71999999999998 15
      vertex -53.875 -106.71999999999998 15
      vertex 53.875 -106.71999999999998 15
    endloop
  endfacet
  facet normal 0 0 1
    outer loop
      vertex -55.607050807568875 -105.71999999999998 15
      vertex 53.875 -104.71999999999998 15
      vertex -53.875 -104.71999999999998 15
    endloop
  endfacet
  facet normal 0 0 -1
    outer loop
      vertex -55.875 104.71999999999998 0
      vertex -55.864043790736545 104.9290569265353 0
      vertex -53.875 -104.71999999999998 0
    endloop
  endfacet
  facet normal 0 0 -1
    outer loop
      vertex -55.864043790736545 104.9290569265353 0
      vertex -55.83129520146761 105.1358233816355 0
      vertex -53.875 -104.71999999999998 0
    endloop
  endfacet
  facet normal 0 0 -1
    outer loop
      vertex -55.83129520146761 105.1358233816355 0
      vertex -55.77711303259031 105.33803398874988 0
      vertex -53.875 -104.71999999999998 0
    endloop
  endfacet
  facet normal 0 0 -1
    outer loop
      vertex -55.77711303259031 105.33803398874988 0
      vertex -55.702090915285204 105.53347328615159 0
      vertex -53.875 -104.71999999999998 0
    endloop
  endfacet
  facet normal 0 0 -1
    outer loop
      vertex -55.702090915285204 105.53347328615159 0
      vertex -55.607050807568875 105.71999999999998 0
      vertex -53.875 -104.71999999999998 0
    endloop
  endfacet
  facet normal 0 0 -1
    outer loop
      vertex -55.607050807568875 105.71999999999998 0
      vertex -55.49303398874989 105.89557050458492 0
      vertex -53.875 -104.71999999999998 0
    endloop
  endfacet
  facet normal 0 0 -1
    outer loop
      vertex -55.49303398874989 105.89557050458492 0
      vertex -55.36128965095479 106.0582612127177 0
      vertex -53.875 -104.71999999999998 0
    endloop
  endfacet
  facet normal 0 0 -1
    outer loop
      vertex -55.36128965095479 106.0582612127177 0
      vertex -55.21326121271772 106.20628965095477 0
      vertex -53.875 -104.71999999999998 0
    endloop
  endfacet
  facet normal 0 0 -1
    outer loop
      vertex -55.21326121271772 106.20628965095477 0
      vertex -55.05057050458495 106.33803398874988 0
      vertex -53.875 -104.71999999999998 0
    endloop
  endfacet
  facet normal 0 0 -1
    outer loop
      vertex -55.05057050458495 106.33803398874988 0
      vertex -54.875 106.45205080756887 0
      vertex -53.875 -104.71999999999998 0
    endloop
  endfacet
  facet normal 0 0 -1
    outer loop
      vertex -54.875 106.45205080756887 0
      vertex -53.875 104.71999999999998 0
      vertex -53.875 -104.71999999999998 0
    endloop
  endfacet
  facet normal 0 0 -1
    outer loop
      vertex -54.875 106.45205080756887 0
      vertex -54.6884732861516 106.54709091528518 0
      vertex -53.875 104.71999999999998 0
    endloop
  endfacet
  facet normal 0 0 -1
    outer loop
      vertex -54.6884732861516 106.54709091528518 0
      vertex -54.49303398874989 106.62211303259029 0
      vertex -53.875 104.71999999999998 0
    endloop
  endfacet
  facet normal 0 0 -1
    outer loop
      vertex -54.49303398874989 106.62211303259029 0
      vertex -54.29082338163552 106.6762952014676 0
      vertex -53.875 104.71999999999998 0
    endloop
  endfacet
  facet normal 0 0 -1
    outer loop
      vertex -54.29082338163552 106.6762952014676 0
      vertex -54.084056926535304 106.70904379073653 0
      vertex -53.875 104.71999999999998 0
    endloop
  endfacet
  facet normal 0 0 -1
    outer loop
      vertex -54.084056926535304 106.70904379073653 0
      vertex -53.875 106.71999999999998 0
      vertex -53.875 104.71999999999998 0
    endloop
  endfacet
  facet normal -0.9986295347545737 0.05233595624294961 0
    outer loop
      vertex -55.875 104.71999999999998 0
      vertex -55.875 104.71999999999998 15
      vertex -55.864043790736545 104.9290569265353 0
    endloop
  endfacet
  facet normal -0.9876883405951384 0.15643446504022634 0
    outer loop
      vertex -55.864043790736545 104.9290569265353 0
      vertex -55.864043790736545 104.9290569265353 15
      vertex -55.83129520146761 105.1358233816355 0
    endloop
  endfacet
  facet normal -0.96592582628907 0.25881904510251486 0
    outer loop
      vertex -55.83129520146761 105.1358233816355 0
      vertex -55.83129520146761 105.1358233816355 15
      vertex -55.77711303259031 105.33803398874988 0
    endloop
  endfacet
  facet normal -0.9335804264972053 0.3583679495452912 0
    outer loop
      vertex -55.77711303259031 105.33803398874988 0
      vertex -55.77711303259031 105.33803398874988 15
      vertex -55.702090915285204 105.53347328615159 0
    endloop
  endfacet
  facet normal -0.8910065241883536 0.4539904997395747 0
    outer loop
      vertex -55.702090915285204 105.53347328615159 0
      vertex -55.702090915285204 105.53347328615159 15
      vertex -55.607050807568875 105.71999999999998 0
    endloop
  endfacet
  facet normal -0.838670567945416 0.5446390350150396 0
    outer loop
      vertex -55.607050807568875 105.71999999999998 0
      vertex -55.607050807568875 105.71999999999998 15
      vertex -55.49303398874989 105.89557050458492 0
    endloop
  endfacet
  facet normal -0.7771459614569765 0.6293203910498305 0
    outer loop
      vertex -55.49303398874989 105.89557050458492 0
      vertex -55.49303398874989 105.89557050458492 15
      vertex -55.36128965095479 106.0582612127177 0
    endloop
  endfacet
  facet normal -0.7071067811865646 0.7071067811865306 0
    outer loop
      vertex -55.36128965095479 106.0582612127177 0
      vertex -55.36128965095479 106.0582612127177 15
      vertex -55.21326121271772 106.20628965095477 0
    endloop
  endfacet
  facet normal -0.6293203910498509 0.7771459614569598 0
    outer loop
      vertex -55.21326121271772 106.20628965095477 0
      vertex -55.21326121271772 106.20628965095477 15
      vertex -55.05057050458495 106.33803398874988 0
    endloop
  endfacet
  facet normal -0.5446390350150241 0.8386705679454259 0
    outer loop
      vertex -55.05057050458495 106.33803398874988 0
      vertex -54.875 106.45205080756887 15
      vertex -54.875 106.45205080756887 0
    endloop
  endfacet
  facet normal -0.4539904997395071 0.8910065241883881 0
    outer loop
      vertex -54.875 106.45205080756887 0
      vertex -54.875 106.45205080756887 15
      vertex -54.6884732861516 106.54709091528518 0
    endloop
  endfacet
  facet normal -0.3583679495453208 0.933580426497194 0
    outer loop
      vertex -54.6884732861516 106.54709091528518 0
      vertex -54.6884732861516 106.54709091528518 15
      vertex -54.49303398874989 106.62211303259029 0
    endloop
  endfacet
  facet normal -0.2588190451025233 0.9659258262890675 0
    outer loop
      vertex -54.49303398874989 106.62211303259029 0
      vertex -54.49303398874989 106.62211303259029 15
      vertex -54.29082338163552 106.6762952014676 0
    endloop
  endfacet
  facet normal -0.1564344650402211 0.9876883405951392 0
    outer loop
      vertex -54.29082338163552 106.6762952014676 0
      vertex -54.29082338163552 106.6762952014676 15
      vertex -54.084056926535304 106.70904379073653 0
    endloop
  endfacet
  facet normal -0.05233595624295138 0.9986295347545735 0
    outer loop
      vertex -54.084056926535304 106.70904379073653 0
      vertex -54.084056926535304 106.70904379073653 15
      vertex -53.875 106.71999999999998 0
    endloop
  endfacet
  facet normal 0 0 -1
    outer loop
      vertex -53.875 106.71999999999998 0
      vertex 53.875 106.71999999999998 0
      vertex -53.875 104.71999999999998 0
    endloop
  endfacet
  facet normal 0 1 0
    outer loop
      vertex -53.875 106.71999999999998 0
      vertex -53.875 106.71999999999998 15
      vertex 53.875 106.71999999999998 0
    endloop
  endfacet
  facet normal -1 0 0
    outer loop
      vertex -55.875 -104.71999999999998 15
      vertex -55.875 104.71999999999998 15
      vertex -55.875 104.71999999999998 0
    endloop
  endfacet
  facet normal 0 0 1
    outer loop
      vertex -55.875 -104.71999999999998 15
      vertex -54.875 106.45205080756887 15
      vertex -55.875 104.71999999999998 15
    endloop
  endfacet
  facet normal 0 0 1
    outer loop
      vertex -55.607050807568875 -105.71999999999998 15
      vertex -53.875 104.71999999999998 15
      vertex -54.875 106.45205080756887 15
    endloop
  endfacet
  facet normal -0.9986295347545737 0.05233595624294961 0
    outer loop
      vertex -55.864043790736545 104.9290569265353 0
      vertex -55.875 104.71999999999998 15
      vertex -55.864043790736545 104.9290569265353 15
    endloop
  endfacet
  facet normal -0.9876883405951384 0.15643446504022634 0
    outer loop
      vertex -55.83129520146761 105.1358233816355 0
      vertex -55.864043790736545 104.9290569265353 15
      vertex -55.83129520146761 105.1358233816355 15
    endloop
  endfacet
  facet normal -0.96592582628907 0.25881904510251486 0
    outer loop
      vertex -55.77711303259031 105.33803398874988 0
      vertex -55.83129520146761 105.1358233816355 15
      vertex -55.77711303259031 105.33803398874988 15
    endloop
  endfacet
  facet normal -0.9335804264972053 0.3583679495452912 0
    outer loop
      vertex -55.702090915285204 105.53347328615159 0
      vertex -55.77711303259031 105.33803398874988 15
      vertex -55.702090915285204 105.53347328615159 15
    endloop
  endfacet
  facet normal -0.8910065241883536 0.4539904997395747 0
    outer loop
      vertex -55.607050807568875 105.71999999999998 0
      vertex -55.702090915285204 105.53347328615159 15
      vertex -55.607050807568875 105.71999999999998 15
    endloop
  endfacet
  facet normal -0.838670567945416 0.5446390350150396 0
    outer loop
      vertex -55.49303398874989 105.89557050458492 0
      vertex -55.607050807568875 105.71999999999998 15
      vertex -55.49303398874989 105.89557050458492 15
    endloop
  endfacet
  facet normal -0.7771459614569765 0.6293203910498305 0
    outer loop
      vertex -55.36128965095479 106.0582612127177 0
      vertex -55.49303398874989 105.89557050458492 15
      vertex -55.36128965095479 106.0582612127177 15
    endloop
  endfacet
  facet normal -0.7071067811865646 0.7071067811865306 0
    outer loop
      vertex -55.21326121271772 106.20628965095477 0
      vertex -55.36128965095479 106.0582612127177 15
      vertex -55.21326121271772 106.20628965095477 15
    endloop
  endfacet
  facet normal -0.6293203910498509 0.7771459614569598 0
    outer loop
      vertex -55.05057050458495 106.33803398874988 0
      vertex -55.21326121271772 106.20628965095477 15
      vertex -55.05057050458495 106.33803398874988 15
    endloop
  endfacet
  facet normal -0.5446390350150241 0.8386705679454259 0
    outer loop
      vertex -55.05057050458495 106.33803398874988 0
      vertex -55.05057050458495 106.33803398874988 15
      vertex -54.875 106.45205080756887 15
    endloop
  endfacet
  facet normal -0.4539904997395071 0.8910065241883881 0
    outer loop
      vertex -54.6884732861516 106.54709091528518 0
      vertex -54.875 106.45205080756887 15
      vertex -54.6884732861516 106.54709091528518 15
    endloop
  endfacet
  facet normal -0.3583679495453208 0.933580426497194 0
    outer loop
      vertex -54.49303398874989 106.62211303259029 0
      vertex -54.6884732861516 106.54709091528518 15
      vertex -54.49303398874989 106.62211303259029 15
    endloop
  endfacet
  facet normal -0.2588190451025233 0.9659258262890675 0
    outer loop
      vertex -54.29082338163552 106.6762952014676 0
      vertex -54.49303398874989 106.62211303259029 15
      vertex -54.29082338163552 106.6762952014676 15
    endloop
  endfacet
  facet normal -0.1564344650402211 0.9876883405951392 0
    outer loop
      vertex -54.084056926535304 106.70904379073653 0
      vertex -54.29082338163552 106.6762952014676 15
      vertex -54.084056926535304 106.70904379073653 15
    endloop
  endfacet
  facet normal -0.05233595624295138 0.9986295347545735 0
    outer loop
      vertex -53.875 106.71999999999998 0
      vertex -54.084056926535304 106.70904379073653 15
      vertex -53.875 106.71999999999998 15
    endloop
  endfacet
  facet normal 0 0 1
    outer loop
      vertex -55.875 104.71999999999998 15
      vertex -54.875 106.45205080756887 15
      vertex -55.864043790736545 104.9290569265353 15
    endloop
  endfacet
  facet normal 0 0 1
    outer loop
      vertex -55.83129520146761 105.1358233816355 15
      vertex -54.875 106.45205080756887 15
      vertex -55.77711303259031 105.33803398874988 15
    endloop
  endfacet
  facet normal 0 0 1
    outer loop
      vertex -55.864043790736545 104.9290569265353 15
      vertex -54.875 106.45205080756887 15
      vertex -55.83129520146761 105.1358233816355 15
    endloop
  endfacet
  facet normal 0 0 1
    outer loop
      vertex -55.77711303259031 105.33803398874988 15
      vertex -54.875 106.45205080756887 15
      vertex -55.702090915285204 105.53347328615159 15
    endloop
  endfacet
  facet normal 0 0 1
    outer loop
      vertex -55.702090915285204 105.53347328615159 15
      vertex -54.875 106.45205080756887 15
      vertex -55.607050807568875 105.71999999999998 15
    endloop
  endfacet
  facet normal 0 0 1
    outer loop
      vertex -55.607050807568875 105.71999999999998 15
      vertex -54.875 106.45205080756887 15
      vertex -55.49303398874989 105.89557050458492 15
    endloop
  endfacet
  facet normal 0 0 1
    outer loop
      vertex -55.49303398874989 105.89557050458492 15
      vertex -54.875 106.45205080756887 15
      vertex -55.36128965095479 106.0582612127177 15
    endloop
  endfacet
  facet normal 0 0 1
    outer loop
      vertex -55.36128965095479 106.0582612127177 15
      vertex -54.875 106.45205080756887 15
      vertex -55.21326121271772 106.20628965095477 15
    endloop
  endfacet
  facet normal 0 0 1
    outer loop
      vertex -55.21326121271772 106.20628965095477 15
      vertex -54.875 106.45205080756887 15
      vertex -55.05057050458495 106.33803398874988 15
    endloop
  endfacet
  facet normal 0 0 1
    outer loop
      vertex -54.875 106.45205080756887 15
      vertex -53.875 104.71999999999998 15
      vertex -54.6884732861516 106.54709091528518 15
    endloop
  endfacet
  facet normal 0 0 1
    outer loop
      vertex -54.6884732861516 106.54709091528518 15
      vertex 53.875 104.71999999999998 15
      vertex -54.49303398874989 106.62211303259029 15
    endloop
  endfacet
  facet normal 0 0 1
    outer loop
      vertex -54.6884732861516 106.54709091528518 15
      vertex -53.875 104.71999999999998 15
      vertex 53.875 104.71999999999998 15
    endloop
  endfacet
  facet normal 0 0 1
    outer loop
      vertex -54.49303398874989 106.62211303259029 15
      vertex 53.875 104.71999999999998 15
      vertex -54.29082338163552 106.6762952014676 15
    endloop
  endfacet
  facet normal 0 0 1
    outer loop
      vertex -54.29082338163552 106.6762952014676 15
      vertex 53.875 104.71999999999998 15
      vertex -54.084056926535304 106.70904379073653 15
    endloop
  endfacet
  facet normal 0 0 1
    outer loop
      vertex -54.084056926535304 106.70904379073653 15
      vertex 53.875 104.71999999999998 15
      vertex -53.875 106.71999999999998 15
    endloop
  endfacet
  facet normal 0 0 -1
    outer loop
      vertex -55.864043790736545 -104.9290569265353 0
      vertex 53.875 -104.71999999999998 0
      vertex 55.875 -104.71999999999998 0
    endloop
  endfacet
  facet normal 0 0 -1
    outer loop
      vertex -53.875 -106.71999999999998 0
      vertex 55.875 -104.71999999999998 0
      vertex 53.875 -106.71999999999998 0
    endloop
  endfacet
  facet normal 0 -1 0
    outer loop
      vertex -53.875 -106.71999999999998 0
      vertex 53.875 -106.71999999999998 0
      vertex 53.875 -106.71999999999998 15
    endloop
  endfacet
  facet normal 0 0 -1
    outer loop
      vertex 53.875 -106.71999999999998 0
      vertex 55.875 -104.71999999999998 0
      vertex 54.084056926535304 -106.70904379073653 0
    endloop
  endfacet
  facet normal 0 0 -1
    outer loop
      vertex 54.084056926535304 -106.70904379073653 0
      vertex 55.875 -104.71999999999998 0
      vertex 54.29082338163552 -106.6762952014676 0
    endloop
  endfacet
  facet normal 0 0 -1
    outer loop
      vertex 54.29082338163552 -106.6762952014676 0
      vertex 55.875 -104.71999999999998 0
      vertex 54.49303398874989 -106.62211303259029 0
    endloop
  endfacet
  facet normal 0 0 -1
    outer loop
      vertex 54.49303398874989 -106.62211303259029 0
      vertex 55.875 -104.71999999999998 0
      vertex 54.6884732861516 -106.54709091528518 0
    endloop
  endfacet
  facet normal 0 0 -1
    outer loop
      vertex 54.6884732861516 -106.54709091528518 0
      vertex 55.875 -104.71999999999998 0
      vertex 54.875 -106.45205080756887 0
    endloop
  endfacet
  facet normal 0 0 -1
    outer loop
      vertex 54.875 -106.45205080756887 0
      vertex 55.875 -104.71999999999998 0
      vertex 55.05057050458495 -106.33803398874988 0
    endloop
  endfacet
  facet normal 0 0 -1
    outer loop
      vertex 55.05057050458495 -106.33803398874988 0
      vertex 55.875 -104.71999999999998 0
      vertex 55.21326121271772 -106.20628965095477 0
    endloop
  endfacet
  facet normal 0 0 -1
    outer loop
      vertex 55.21326121271772 -106.20628965095477 0
      vertex 55.875 -104.71999999999998 0
      vertex 55.36128965095479 -106.0582612127177 0
    endloop
  endfacet
  facet normal 0 0 -1
    outer loop
      vertex 55.36128965095479 -106.0582612127177 0
      vertex 55.875 -104.71999999999998 0
      vertex 55.49303398874989 -105.89557050458492 0
    endloop
  endfacet
  facet normal 0 0 -1
    outer loop
      vertex 55.49303398874989 -105.89557050458492 0
      vertex 55.875 -104.71999999999998 0
      vertex 55.607050807568875 -105.71999999999998 0
    endloop
  endfacet
  facet normal 0 0 -1
    outer loop
      vertex 55.607050807568875 -105.71999999999998 0
      vertex 55.875 -104.71999999999998 0
      vertex 55.702090915285204 -105.53347328615159 0
    endloop
  endfacet
  facet normal 0 0 -1
    outer loop
      vertex 55.702090915285204 -105.53347328615159 0
      vertex 55.875 -104.71999999999998 0
      vertex 55.77711303259031 -105.33803398874988 0
    endloop
  endfacet
  facet normal 0 0 -1
    outer loop
      vertex 55.77711303259031 -105.33803398874988 0
      vertex 55.875 -104.71999999999998 0
      vertex 55.83129520146761 -105.1358233816355 0
    endloop
  endfacet
  facet normal 0 0 -1
    outer loop
      vertex 55.83129520146761 -105.1358233816355 0
      vertex 55.875 -104.71999999999998 0
      vertex 55.864043790736545 -104.9290569265353 0
    endloop
  endfacet
  facet normal 0.05233595624295138 -0.9986295347545735 0
    outer loop
      vertex 53.875 -106.71999999999998 0
      vertex 54.084056926535304 -106.70904379073653 0
      vertex 54.084056926535304 -106.70904379073653 15
    endloop
  endfacet
  facet normal 0.1564344650402211 -0.9876883405951392 0
    outer loop
      vertex 54.084056926535304 -106.70904379073653 0
      vertex 54.29082338163552 -106.6762952014676 0
      vertex 54.29082338163552 -106.6762952014676 15
    endloop
  endfacet
  facet normal 0.2588190451025233 -0.9659258262890675 0
    outer loop
      vertex 54.29082338163552 -106.6762952014676 0
      vertex 54.49303398874989 -106.62211303259029 0
      vertex 54.49303398874989 -106.62211303259029 15
    endloop
  endfacet
  facet normal 0.3583679495453208 -0.933580426497194 0
    outer loop
      vertex 54.49303398874989 -106.62211303259029 0
      vertex 54.6884732861516 -106.54709091528518 0
      vertex 54.6884732861516 -106.54709091528518 15
    endloop
  endfacet
  facet normal 0.4539904997395071 -0.8910065241883881 0
    outer loop
      vertex 54.6884732861516 -106.54709091528518 0
      vertex 54.875 -106.45205080756887 0
      vertex 54.875 -106.45205080756887 15
    endloop
  endfacet
  facet normal 0.5446390350150241 -0.8386705679454259 0
    outer loop
      vertex 54.875 -106.45205080756887 0
      vertex 55.05057050458495 -106.33803398874988 0
      vertex 55.05057050458495 -106.33803398874988 15
    endloop
  endfacet
  facet normal 0.6293203910498509 -0.7771459614569598 0
    outer loop
      vertex 55.05057050458495 -106.33803398874988 0
      vertex 55.21326121271772 -106.20628965095477 0
      vertex 55.21326121271772 -106.20628965095477 15
    endloop
  endfacet
  facet normal 0.7071067811865646 -0.7071067811865306 0
    outer loop
      vertex 55.21326121271772 -106.20628965095477 0
      vertex 55.36128965095479 -106.0582612127177 0
      vertex 55.36128965095479 -106.0582612127177 15
    endloop
  endfacet
  facet normal 0.7771459614569765 -0.6293203910498305 0
    outer loop
      vertex 55.36128965095479 -106.0582612127177 0
      vertex 55.49303398874989 -105.89557050458492 0
      vertex 55.49303398874989 -105.89557050458492 15
    endloop
  endfacet
  facet normal 0.838670567945416 -0.5446390350150396 0
    outer loop
      vertex 55.49303398874989 -105.89557050458492 0
      vertex 55.607050807568875 -105.71999999999998 0
      vertex 55.607050807568875 -105.71999999999998 15
    endloop
  endfacet
  facet normal 0.8910065241883536 -0.4539904997395747 0
    outer loop
      vertex 55.607050807568875 -105.71999999999998 0
      vertex 55.702090915285204 -105.53347328615159 0
      vertex 55.702090915285204 -105.53347328615159 15
    endloop
  endfacet
  facet normal 0.9335804264972053 -0.3583679495452912 0
    outer loop
      vertex 55.702090915285204 -105.53347328615159 0
      vertex 55.77711303259031 -105.33803398874988 0
      vertex 55.77711303259031 -105.33803398874988 15
    endloop
  endfacet
  facet normal 0.96592582628907 -0.25881904510251486 0
    outer loop
      vertex 55.77711303259031 -105.33803398874988 0
      vertex 55.83129520146761 -105.1358233816355 0
      vertex 55.83129520146761 -105.1358233816355 15
    endloop
  endfacet
  facet normal 0.9876883405951384 -0.15643446504022634 0
    outer loop
      vertex 55.83129520146761 -105.1358233816355 0
      vertex 55.864043790736545 -104.9290569265353 0
      vertex 55.864043790736545 -104.9290569265353 15
    endloop
  endfacet
  facet normal 0.9986295347545737 -0.05233595624294961 0
    outer loop
      vertex 55.864043790736545 -104.9290569265353 0
      vertex 55.875 -104.71999999999998 0
      vertex 55.875 -104.71999999999998 15
    endloop
  endfacet
  facet normal 0 0 -1
    outer loop
      vertex 55.875 -104.71999999999998 0
      vertex 53.875 -104.71999999999998 0
      vertex 53.875 104.71999999999998 0
    endloop
  endfacet
  facet normal 1 0 0
    outer loop
      vertex 55.875 -104.71999999999998 0
      vertex 55.875 104.71999999999998 0
      vertex 55.875 -104.71999999999998 15
    endloop
  endfacet
  facet normal 0 0 1
    outer loop
      vertex -55.607050807568875 -105.71999999999998 15
      vertex 53.875 -106.71999999999998 15
      vertex 54.084056926535304 -106.70904379073653 15
    endloop
  endfacet
  facet normal 0 0 1
    outer loop
      vertex -55.607050807568875 -105.71999999999998 15
      vertex 54.084056926535304 -106.70904379073653 15
      vertex 54.29082338163552 -106.6762952014676 15
    endloop
  endfacet
  facet normal 0 0 1
    outer loop
      vertex -55.607050807568875 -105.71999999999998 15
      vertex 54.29082338163552 -106.6762952014676 15
      vertex 54.49303398874989 -106.62211303259029 15
    endloop
  endfacet
  facet normal 0 0 1
    outer loop
      vertex -55.607050807568875 -105.71999999999998 15
      vertex 54.49303398874989 -106.62211303259029 15
      vertex 54.6884732861516 -106.54709091528518 15
    endloop
  endfacet
  facet normal 0 0 1
    outer loop
      vertex -55.607050807568875 -105.71999999999998 15
      vertex 54.6884732861516 -106.54709091528518 15
      vertex 54.875 -106.45205080756887 15
    endloop
  endfacet
  facet normal 0 0 1
    outer loop
      vertex -55.607050807568875 -105.71999999999998 15
      vertex 54.875 -106.45205080756887 15
      vertex 55.05057050458495 -106.33803398874988 15
    endloop
  endfacet
  facet normal 0 0 1
    outer loop
      vertex -55.607050807568875 -105.71999999999998 15
      vertex 55.05057050458495 -106.33803398874988 15
      vertex 55.21326121271772 -106.20628965095477 15
    endloop
  endfacet
  facet normal 0 0 1
    outer loop
      vertex -55.607050807568875 -105.71999999999998 15
      vertex 55.21326121271772 -106.20628965095477 15
      vertex 55.36128965095479 -106.0582612127177 15
    endloop
  endfacet
  facet normal 0 0 1
    outer loop
      vertex -55.607050807568875 -105.71999999999998 15
      vertex 55.875 -104.71999999999998 15
      vertex 53.875 -104.71999999999998 15
    endloop
  endfacet
  facet normal 0 0 1
    outer loop
      vertex -55.607050807568875 -105.71999999999998 15
      vertex 55.36128965095479 -106.0582612127177 15
      vertex 55.49303398874989 -105.89557050458492 15
    endloop
  endfacet
  facet normal 0 0 1
    outer loop
      vertex -55.607050807568875 -105.71999999999998 15
      vertex 55.49303398874989 -105.89557050458492 15
      vertex 55.607050807568875 -105.71999999999998 15
    endloop
  endfacet
  facet normal 0 0 1
    outer loop
      vertex -55.607050807568875 -105.71999999999998 15
      vertex 55.607050807568875 -105.71999999999998 15
      vertex 55.702090915285204 -105.53347328615159 15
    endloop
  endfacet
  facet normal 0 0 1
    outer loop
      vertex -55.607050807568875 -105.71999999999998 15
      vertex 55.702090915285204 -105.53347328615159 15
      vertex 55.77711303259031 -105.33803398874988 15
    endloop
  endfacet
  facet normal 0 0 1
    outer loop
      vertex -55.607050807568875 -105.71999999999998 15
      vertex 55.77711303259031 -105.33803398874988 15
      vertex 55.83129520146761 -105.1358233816355 15
    endloop
  endfacet
  facet normal 0 0 1
    outer loop
      vertex -55.607050807568875 -105.71999999999998 15
      vertex 55.83129520146761 -105.1358233816355 15
      vertex 55.864043790736545 -104.9290569265353 15
    endloop
  endfacet
  facet normal 0 0 1
    outer loop
      vertex -55.607050807568875 -105.71999999999998 15
      vertex 55.864043790736545 -104.9290569265353 15
      vertex 55.875 -104.71999999999998 15
    endloop
  endfacet
  facet normal 0.05233595624295138 -0.9986295347545735 0
    outer loop
      vertex 53.875 -106.71999999999998 0
      vertex 54.084056926535304 -106.70904379073653 15
      vertex 53.875 -106.71999999999998 15
    endloop
  endfacet
  facet normal 0.1564344650402211 -0.9876883405951392 0
    outer loop
      vertex 54.084056926535304 -106.70904379073653 0
      vertex 54.29082338163552 -106.6762952014676 15
      vertex 54.084056926535304 -106.70904379073653 15
    endloop
  endfacet
  facet normal 0.2588190451025233 -0.9659258262890675 0
    outer loop
      vertex 54.29082338163552 -106.6762952014676 0
      vertex 54.49303398874989 -106.62211303259029 15
      vertex 54.29082338163552 -106.6762952014676 15
    endloop
  endfacet
  facet normal 0.3583679495453208 -0.933580426497194 0
    outer loop
      vertex 54.49303398874989 -106.62211303259029 0
      vertex 54.6884732861516 -106.54709091528518 15
      vertex 54.49303398874989 -106.62211303259029 15
    endloop
  endfacet
  facet normal 0.4539904997395071 -0.8910065241883881 0
    outer loop
      vertex 54.6884732861516 -106.54709091528518 0
      vertex 54.875 -106.45205080756887 15
      vertex 54.6884732861516 -106.54709091528518 15
    endloop
  endfacet
  facet normal 0.5446390350150241 -0.8386705679454259 0
    outer loop
      vertex 54.875 -106.45205080756887 0
      vertex 55.05057050458495 -106.33803398874988 15
      vertex 54.875 -106.45205080756887 15
    endloop
  endfacet
  facet normal 0.6293203910498509 -0.7771459614569598 0
    outer loop
      vertex 55.05057050458495 -106.33803398874988 0
      vertex 55.21326121271772 -106.20628965095477 15
      vertex 55.05057050458495 -106.33803398874988 15
    endloop
  endfacet
  facet normal 0.7071067811865646 -0.7071067811865306 0
    outer loop
      vertex 55.21326121271772 -106.20628965095477 0
      vertex 55.36128965095479 -106.0582612127177 15
      vertex 55.21326121271772 -106.20628965095477 15
    endloop
  endfacet
  facet normal 0.7771459614569765 -0.6293203910498305 0
    outer loop
      vertex 55.36128965095479 -106.0582612127177 0
      vertex 55.49303398874989 -105.89557050458492 15
      vertex 55.36128965095479 -106.0582612127177 15
    endloop
  endfacet
  facet normal 0.838670567945416 -0.5446390350150396 0
    outer loop
      vertex 55.49303398874989 -105.89557050458492 0
      vertex 55.607050807568875 -105.71999999999998 15
      vertex 55.49303398874989 -105.89557050458492 15
    endloop
  endfacet
  facet normal 0.8910065241883536 -0.4539904997395747 0
    outer loop
      vertex 55.607050807568875 -105.71999999999998 0
      vertex 55.702090915285204 -105.53347328615159 15
      vertex 55.607050807568875 -105.71999999999998 15
    endloop
  endfacet
  facet normal 0.9335804264972053 -0.3583679495452912 0
    outer loop
      vertex 55.702090915285204 -105.53347328615159 0
      vertex 55.77711303259031 -105.33803398874988 15
      vertex 55.702090915285204 -105.53347328615159 15
    endloop
  endfacet
  facet normal 0.96592582628907 -0.25881904510251486 0
    outer loop
      vertex 55.77711303259031 -105.33803398874988 0
      vertex 55.83129520146761 -105.1358233816355 15
      vertex 55.77711303259031 -105.33803398874988 15
    endloop
  endfacet
  facet normal 0.9876883405951384 -0.15643446504022634 0
    outer loop
      vertex 55.83129520146761 -105.1358233816355 0
      vertex 55.864043790736545 -104.9290569265353 15
      vertex 55.83129520146761 -105.1358233816355 15
    endloop
  endfacet
  facet normal 0.9986295347545737 -0.05233595624294961 0
    outer loop
      vertex 55.864043790736545 -104.9290569265353 0
      vertex 55.875 -104.71999999999998 15
      vertex 55.864043790736545 -104.9290569265353 15
    endloop
  endfacet
  facet normal 0 0 1
    outer loop
      vertex 53.875 -104.71999999999998 15
      vertex 55.875 -104.71999999999998 15
      vertex 53.875 104.71999999999998 15
    endloop
  endfacet
  facet normal 0 0 -1
    outer loop
      vertex 53.875 106.71999999999998 0
      vertex 53.875 104.71999999999998 0
      vertex -53.875 104.71999999999998 0
    endloop
  endfacet
  facet normal 0 0 -1
    outer loop
      vertex 55.875 -104.71999999999998 0
      vertex 53.875 104.71999999999998 0
      vertex 53.875 106.71999999999998 0
    endloop
  endfacet
  facet normal 0 0 -1
    outer loop
      vertex 55.875 -104.71999999999998 0
      vertex 53.875 106.71999999999998 0
      vertex 54.084056926535304 106.70904379073653 0
    endloop
  endfacet
  facet normal 0 0 -1
    outer loop
      vertex 55.875 -104.71999999999998 0
      vertex 54.084056926535304 106.70904379073653 0
      vertex 54.29082338163552 106.6762952014676 0
    endloop
  endfacet
  facet normal 0 0 -1
    outer loop
      vertex 55.875 -104.71999999999998 0
      vertex 54.29082338163552 106.6762952014676 0
      vertex 54.49303398874989 106.62211303259029 0
    endloop
  endfacet
  facet normal 0 0 -1
    outer loop
      vertex 55.875 -104.71999999999998 0
      vertex 55.864043790736545 104.9290569265353 0
      vertex 55.875 104.71999999999998 0
    endloop
  endfacet
  facet normal 0 0 -1
    outer loop
      vertex 55.875 -104.71999999999998 0
      vertex 54.49303398874989 106.62211303259029 0
      vertex 54.6884732861516 106.54709091528518 0
    endloop
  endfacet
  facet normal 0 0 -1
    outer loop
      vertex 55.875 -104.71999999999998 0
      vertex 54.6884732861516 106.54709091528518 0
      vertex 54.875 106.45205080756887 0
    endloop
  endfacet
  facet normal 0 0 -1
    outer loop
      vertex 55.875 -104.71999999999998 0
      vertex 54.875 106.45205080756887 0
      vertex 55.05057050458495 106.33803398874988 0
    endloop
  endfacet
  facet normal 0 0 -1
    outer loop
      vertex 55.875 -104.71999999999998 0
      vertex 55.05057050458495 106.33803398874988 0
      vertex 55.21326121271772 106.20628965095477 0
    endloop
  endfacet
  facet normal 0 0 -1
    outer loop
      vertex 55.875 -104.71999999999998 0
      vertex 55.21326121271772 106.20628965095477 0
      vertex 55.36128965095479 106.0582612127177 0
    endloop
  endfacet
  facet normal 0 0 -1
    outer loop
      vertex 55.875 -104.71999999999998 0
      vertex 55.36128965095479 106.0582612127177 0
      vertex 55.49303398874989 105.89557050458492 0
    endloop
  endfacet
  facet normal 0 0 -1
    outer loop
      vertex 55.875 -104.71999999999998 0
      vertex 55.83129520146761 105.1358233816355 0
      vertex 55.864043790736545 104.9290569265353 0
    endloop
  endfacet
  facet normal 0 0 -1
    outer loop
      vertex 55.875 -104.71999999999998 0
      vertex 55.77711303259031 105.33803398874988 0
      vertex 55.83129520146761 105.1358233816355 0
    endloop
  endfacet
  facet normal 0 0 -1
    outer loop
      vertex 55.875 -104.71999999999998 0
      vertex 55.702090915285204 105.53347328615159 0
      vertex 55.77711303259031 105.33803398874988 0
    endloop
  endfacet
  facet normal 0 0 -1
    outer loop
      vertex 55.875 -104.71999999999998 0
      vertex 55.607050807568875 105.71999999999998 0
      vertex 55.702090915285204 105.53347328615159 0
    endloop
  endfacet
  facet normal 0 0 -1
    outer loop
      vertex 55.875 -104.71999999999998 0
      vertex 55.49303398874989 105.89557050458492 0
      vertex 55.607050807568875 105.71999999999998 0
    endloop
  endfacet
  facet normal 0.05233595624295138 0.9986295347545735 0
    outer loop
      vertex 53.875 106.71999999999998 0
      vertex 53.875 106.71999999999998 15
      vertex 54.084056926535304 106.70904379073653 0
    endloop
  endfacet
  facet normal 0.1564344650402211 0.9876883405951392 0
    outer loop
      vertex 54.084056926535304 106.70904379073653 0
      vertex 54.084056926535304 106.70904379073653 15
      vertex 54.29082338163552 106.6762952014676 0
    endloop
  endfacet
  facet normal 0.2588190451025233 0.9659258262890675 0
    outer loop
      vertex 54.29082338163552 106.6762952014676 0
      vertex 54.29082338163552 106.6762952014676 15
      vertex 54.49303398874989 106.62211303259029 0
    endloop
  endfacet
  facet normal 0.3583679495453208 0.933580426497194 0
    outer loop
      vertex 54.49303398874989 106.62211303259029 0
      vertex 54.49303398874989 106.62211303259029 15
      vertex 54.6884732861516 106.54709091528518 0
    endloop
  endfacet
  facet normal 0.4539904997395071 0.8910065241883881 0
    outer loop
      vertex 54.6884732861516 106.54709091528518 0
      vertex 54.6884732861516 106.54709091528518 15
      vertex 54.875 106.45205080756887 0
    endloop
  endfacet
  facet normal 0.5446390350150241 0.8386705679454259 0
    outer loop
      vertex 54.875 106.45205080756887 0
      vertex 54.875 106.45205080756887 15
      vertex 55.05057050458495 106.33803398874988 0
    endloop
  endfacet
  facet normal 0.9986295347545737 0.05233595624294961 0
    outer loop
      vertex 55.875 104.71999999999998 0
      vertex 55.864043790736545 104.9290569265353 0
      vertex 55.864043790736545 104.9290569265353 15
    endloop
  endfacet
  facet normal 0.6293203910498509 0.7771459614569598 0
    outer loop
      vertex 55.21326121271772 106.20628965095477 0
      vertex 55.05057050458495 106.33803398874988 0
      vertex 55.05057050458495 106.33803398874988 15
    endloop
  endfacet
  facet normal 0.7071067811865646 0.7071067811865306 0
    outer loop
      vertex 55.21326121271772 106.20628965095477 0
      vertex 55.21326121271772 106.20628965095477 15
      vertex 55.36128965095479 106.0582612127177 0
    endloop
  endfacet
  facet normal 0.7771459614569765 0.6293203910498305 0
    outer loop
      vertex 55.36128965095479 106.0582612127177 0
      vertex 55.36128965095479 106.0582612127177 15
      vertex 55.49303398874989 105.89557050458492 0
    endloop
  endfacet
  facet normal 0.838670567945416 0.5446390350150396 0
    outer loop
      vertex 55.607050807568875 105.71999999999998 0
      vertex 55.49303398874989 105.89557050458492 0
      vertex 55.49303398874989 105.89557050458492 15
    endloop
  endfacet
  facet normal 0.8910065241883536 0.4539904997395747 0
    outer loop
      vertex 55.607050807568875 105.71999999999998 0
      vertex 55.607050807568875 105.71999999999998 15
      vertex 55.702090915285204 105.53347328615159 0
    endloop
  endfacet
  facet normal 0.9335804264972053 0.3583679495452912 0
    outer loop
      vertex 55.77711303259031 105.33803398874988 0
      vertex 55.702090915285204 105.53347328615159 0
      vertex 55.702090915285204 105.53347328615159 15
    endloop
  endfacet
  facet normal 0.9876883405951384 0.15643446504022634 0
    outer loop
      vertex 55.864043790736545 104.9290569265353 0
      vertex 55.83129520146761 105.1358233816355 0
      vertex 55.83129520146761 105.1358233816355 15
    endloop
  endfacet
  facet normal 0.96592582628907 0.25881904510251486 0
    outer loop
      vertex 55.83129520146761 105.1358233816355 0
      vertex 55.77711303259031 105.33803398874988 0
      vertex 55.77711303259031 105.33803398874988 15
    endloop
  endfacet
  facet normal 0 1 0
    outer loop
      vertex -53.875 106.71999999999998 15
      vertex 53.875 106.71999999999998 15
      vertex 53.875 106.71999999999998 0
    endloop
  endfacet
  facet normal 0 0 1
    outer loop
      vertex -53.875 106.71999999999998 15
      vertex 53.875 104.71999999999998 15
      vertex 53.875 106.71999999999998 15
    endloop
  endfacet
  facet normal 1 0 0
    outer loop
      vertex 55.875 -104.71999999999998 15
      vertex 55.875 104.71999999999998 0
      vertex 55.875 104.71999999999998 15
    endloop
  endfacet
  facet normal 0 0 1
    outer loop
      vertex 55.875 -104.71999999999998 15
      vertex 53.875 106.71999999999998 15
      vertex 53.875 104.71999999999998 15
    endloop
  endfacet
  facet normal 0 0 1
    outer loop
      vertex 55.875 -104.71999999999998 15
      vertex 54.084056926535304 106.70904379073653 15
      vertex 53.875 106.71999999999998 15
    endloop
  endfacet
  facet normal 0 0 1
    outer loop
      vertex 55.875 -104.71999999999998 15
      vertex 54.29082338163552 106.6762952014676 15
      vertex 54.084056926535304 106.70904379073653 15
    endloop
  endfacet
  facet normal 0 0 1
    outer loop
      vertex 55.875 -104.71999999999998 15
      vertex 54.49303398874989 106.62211303259029 15
      vertex 54.29082338163552 106.6762952014676 15
    endloop
  endfacet
  facet normal 0 0 1
    outer loop
      vertex 55.875 -104.71999999999998 15
      vertex 55.875 104.71999999999998 15
      vertex 55.864043790736545 104.9290569265353 15
    endloop
  endfacet
  facet normal 0 0 1
    outer loop
      vertex 55.875 -104.71999999999998 15
      vertex 54.6884732861516 106.54709091528518 15
      vertex 54.49303398874989 106.62211303259029 15
    endloop
  endfacet
  facet normal 0 0 1
    outer loop
      vertex 55.875 -104.71999999999998 15
      vertex 54.875 106.45205080756887 15
      vertex 54.6884732861516 106.54709091528518 15
    endloop
  endfacet
  facet normal 0 0 1
    outer loop
      vertex 55.875 -104.71999999999998 15
      vertex 55.05057050458495 106.33803398874988 15
      vertex 54.875 106.45205080756887 15
    endloop
  endfacet
  facet normal 0 0 1
    outer loop
      vertex 55.875 -104.71999999999998 15
      vertex 55.21326121271772 106.20628965095477 15
      vertex 55.05057050458495 106.33803398874988 15
    endloop
  endfacet
  facet normal 0 0 1
    outer loop
      vertex 55.875 -104.71999999999998 15
      vertex 55.36128965095479 106.0582612127177 15
      vertex 55.21326121271772 106.20628965095477 15
    endloop
  endfacet
  facet normal 0 0 1
    outer loop
      vertex 55.875 -104.71999999999998 15
      vertex 55.49303398874989 105.89557050458492 15
      vertex 55.36128965095479 106.0582612127177 15
    endloop
  endfacet
  facet normal 0 0 1
    outer loop
      vertex 55.875 -104.71999999999998 15
      vertex 55.864043790736545 104.9290569265353 15
      vertex 55.83129520146761 105.1358233816355 15
    endloop
  endfacet
  facet normal 0 0 1
    outer loop
      vertex 55.875 -104.71999999999998 15
      vertex 55.83129520146761 105.1358233816355 15
      vertex 55.77711303259031 105.33803398874988 15
    endloop
  endfacet
  facet normal 0 0 1
    outer loop
      vertex 55.875 -104.71999999999998 15
      vertex 55.77711303259031 105.33803398874988 15
      vertex 55.702090915285204 105.53347328615159 15
    endloop
  endfacet
  facet normal 0 0 1
    outer loop
      vertex 55.875 -104.71999999999998 15
      vertex 55.702090915285204 105.53347328615159 15
      vertex 55.607050807568875 105.71999999999998 15
    endloop
  endfacet
  facet normal 0 0 1
    outer loop
      vertex 55.875 -104.71999999999998 15
      vertex 55.607050807568875 105.71999999999998 15
      vertex 55.49303398874989 105.89557050458492 15
    endloop
  endfacet
  facet normal 0.05233595624295138 0.9986295347545735 0
    outer loop
      vertex 54.084056926535304 106.70904379073653 0
      vertex 53.875 106.71999999999998 15
      vertex 54.084056926535304 106.70904379073653 15
    endloop
  endfacet
  facet normal 0.1564344650402211 0.9876883405951392 0
    outer loop
      vertex 54.29082338163552 106.6762952014676 0
      vertex 54.084056926535304 106.70904379073653 15
      vertex 54.29082338163552 106.6762952014676 15
    endloop
  endfacet
  facet normal 0.2588190451025233 0.9659258262890675 0
    outer loop
      vertex 54.49303398874989 106.62211303259029 0
      vertex 54.29082338163552 106.6762952014676 15
      vertex 54.49303398874989 106.62211303259029 15
    endloop
  endfacet
  facet normal 0.3583679495453208 0.933580426497194 0
    outer loop
      vertex 54.6884732861516 106.54709091528518 0
      vertex 54.49303398874989 106.62211303259029 15
      vertex 54.6884732861516 106.54709091528518 15
    endloop
  endfacet
  facet normal 0.4539904997395071 0.8910065241883881 0
    outer loop
      vertex 54.875 106.45205080756887 0
      vertex 54.6884732861516 106.54709091528518 15
      vertex 54.875 106.45205080756887 15
    endloop
  endfacet
  facet normal 0.5446390350150241 0.8386705679454259 0
    outer loop
      vertex 55.05057050458495 106.33803398874988 0
      vertex 54.875 106.45205080756887 15
      vertex 55.05057050458495 106.33803398874988 15
    endloop
  endfacet
  facet normal 0.9986295347545737 0.05233595624294961 0
    outer loop
      vertex 55.875 104.71999999999998 0
      vertex 55.864043790736545 104.9290569265353 15
      vertex 55.875 104.71999999999998 15
    endloop
  endfacet
  facet normal 0.9876883405951384 0.15643446504022634 0
    outer loop
      vertex 55.864043790736545 104.9290569265353 0
      vertex 55.83129520146761 105.1358233816355 15
      vertex 55.864043790736545 104.9290569265353 15
    endloop
  endfacet
  facet normal 0.6293203910498509 0.7771459614569598 0
    outer loop
      vertex 55.21326121271772 106.20628965095477 0
      vertex 55.05057050458495 106.33803398874988 15
      vertex 55.21326121271772 106.20628965095477 15
    endloop
  endfacet
  facet normal 0.7071067811865646 0.7071067811865306 0
    outer loop
      vertex 55.36128965095479 106.0582612127177 0
      vertex 55.21326121271772 106.20628965095477 15
      vertex 55.36128965095479 106.0582612127177 15
    endloop
  endfacet
  facet normal 0.838670567945416 0.5446390350150396 0
    outer loop
      vertex 55.607050807568875 105.71999999999998 0
      vertex 55.49303398874989 105.89557050458492 15
      vertex 55.607050807568875 105.71999999999998 15
    endloop
  endfacet
  facet normal 0.9335804264972053 0.3583679495452912 0
    outer loop
      vertex 55.77711303259031 105.33803398874988 0
      vertex 55.702090915285204 105.53347328615159 15
      vertex 55.77711303259031 105.33803398874988 15
    endloop
  endfacet
  facet normal 0.96592582628907 0.25881904510251486 0
    outer loop
      vertex 55.83129520146761 105.1358233816355 0
      vertex 55.77711303259031 105.33803398874988 15
      vertex 55.83129520146761 105.1358233816355 15
    endloop
  endfacet
  facet normal 0.8910065241883536 0.4539904997395747 0
    outer loop
      vertex 55.702090915285204 105.53347328615159 0
      vertex 55.607050807568875 105.71999999999998 15
      vertex 55.702090915285204 105.53347328615159 15
    endloop
  endfacet
  facet normal 0.7771459614569765 0.6293203910498305 0
    outer loop
      vertex 55.49303398874989 105.89557050458492 0
      vertex 55.36128965095479 106.0582612127177 15
      vertex 55.49303398874989 105.89557050458492 15
    endloop
  endfacet
  facet normal 1 0 0
    outer loop
      vertex -53.875 -104.71999999999998 15
      vertex -53.875 -104.71999999999998 2
      vertex -53.875 104.71999999999998 2
    endloop
  endfacet
  facet normal 0 1 0
    outer loop
      vertex -53.875 -104.71999999999998 15
      vertex 53.875 -104.71999999999998 15
      vertex -53.875 -104.71999999999998 2
    endloop
  endfacet
  facet normal 0 -1 0
    outer loop
      vertex -53.875 104.71999999999998 15
      vertex -53.875 104.71999999999998 2
      vertex 53.875 104.71999999999998 2
    endloop
  endfacet
  facet normal 1 0 0
    outer loop
      vertex -53.875 -104.71999999999998 15
      vertex -53.875 104.71999999999998 2
      vertex -53.875 104.71999999999998 15
    endloop
  endfacet
  facet normal 0 1 0
    outer loop
      vertex 53.875 -104.71999999999998 15
      vertex 53.875 -104.71999999999998 2
      vertex -53.875 -104.71999999999998 2
    endloop
  endfacet
  facet normal -1 0 0
    outer loop
      vertex 53.875 -104.71999999999998 15
      vertex 53.875 104.71999999999998 15
      vertex 53.875 -104.71999999999998 2
    endloop
  endfacet
  facet normal -1 0 0
    outer loop
      vertex 53.875 104.71999999999998 15
      vertex 53.875 104.71999999999998 2
      vertex 53.875 -104.71999999999998 2
    endloop
  endfacet
  facet normal 0 -1 0
    outer loop
      vertex -53.875 104.71999999999998 15
      vertex 53.875 104.71999999999998 2
      vertex 53.875 104.71999999999998 15
    endloop
  endfacet
  facet normal 0 0 1
    outer loop
      vertex -53.875 -104.71999999999998 2
      vertex 53.875 -104.71999999999998 2
      vertex -53.875 104.71999999999998 2
    endloop
  endfacet
  facet normal 0 0 -1
    outer loop
      vertex -53.875 -104.71999999999998 0
      vertex -53.875 104.71999999999998 0
      vertex 53.875 104.71999999999998 0
    endloop
  endfacet
  facet normal 0 0 -1
    outer loop
      vertex 53.875 -104.71999999999998 0
      vertex -53.875 -104.71999999999998 0
      vertex 53.875 104.71999999999998 0
    endloop
  endfacet
  facet normal 0 0 1
    outer loop
      vertex 53.875 104.71999999999998 2
      vertex -53.875 104.71999999999998 2
      vertex 53.875 -104.71999999999998 2
    endloop
  endfacet
endsolid OpenSCAD_Model
